G04 #@! TF.GenerationSoftware,KiCad,Pcbnew,5.1.8*
G04 #@! TF.CreationDate,2021-01-02T16:40:16+01:00*
G04 #@! TF.ProjectId,F008_gpio2parallel,46303038-5f67-4706-996f-32706172616c,rev?*
G04 #@! TF.SameCoordinates,PXa52d280PY2b953a0*
G04 #@! TF.FileFunction,Legend,Top*
G04 #@! TF.FilePolarity,Positive*
%FSLAX46Y46*%
G04 Gerber Fmt 4.6, Leading zero omitted, Abs format (unit mm)*
G04 Created by KiCad (PCBNEW 5.1.8) date 2021-01-02 16:40:16*
%MOMM*%
%LPD*%
G01*
G04 APERTURE LIST*
%ADD10C,0.120000*%
%ADD11C,0.150000*%
%ADD12C,0.200000*%
%ADD13C,0.250000*%
G04 APERTURE END LIST*
D10*
X-55100000Y-44520000D02*
X1900000Y-44420000D01*
D11*
X-1192977Y-46067619D02*
X-1526310Y-45543809D01*
X-1764405Y-46067619D02*
X-1764405Y-44967619D01*
X-1383453Y-44967619D01*
X-1288215Y-45020000D01*
X-1240596Y-45072380D01*
X-1192977Y-45177142D01*
X-1192977Y-45334285D01*
X-1240596Y-45439047D01*
X-1288215Y-45491428D01*
X-1383453Y-45543809D01*
X-1764405Y-45543809D01*
X-764405Y-46067619D02*
X-764405Y-44967619D01*
X-383453Y-44967619D01*
X-288215Y-45020000D01*
X-240596Y-45072380D01*
X-192977Y-45177142D01*
X-192977Y-45334285D01*
X-240596Y-45439047D01*
X-288215Y-45491428D01*
X-383453Y-45543809D01*
X-764405Y-45543809D01*
X235595Y-46067619D02*
X235595Y-44967619D01*
X-1764405Y-47867619D02*
X-1764405Y-46767619D01*
X-1383453Y-46767619D01*
X-1288215Y-46820000D01*
X-1240596Y-46872380D01*
X-1192977Y-46977142D01*
X-1192977Y-47134285D01*
X-1240596Y-47239047D01*
X-1288215Y-47291428D01*
X-1383453Y-47343809D01*
X-1764405Y-47343809D01*
X-764405Y-47867619D02*
X-764405Y-46767619D01*
X-288215Y-47867619D02*
X-288215Y-46767619D01*
X283214Y-47867619D01*
X283214Y-46767619D01*
D12*
X-51061905Y-10242857D02*
X-49538096Y-10242857D01*
X-50300000Y-11004761D02*
X-50300000Y-9480952D01*
D11*
X-1390596Y-40820000D02*
X-1485834Y-40767619D01*
X-1628691Y-40767619D01*
X-1771548Y-40820000D01*
X-1866786Y-40924761D01*
X-1914405Y-41029523D01*
X-1962024Y-41239047D01*
X-1962024Y-41396190D01*
X-1914405Y-41605714D01*
X-1866786Y-41710476D01*
X-1771548Y-41815238D01*
X-1628691Y-41867619D01*
X-1533453Y-41867619D01*
X-1390596Y-41815238D01*
X-1342977Y-41762857D01*
X-1342977Y-41396190D01*
X-1533453Y-41396190D01*
X-914405Y-41867619D02*
X-914405Y-40767619D01*
X-533453Y-40767619D01*
X-438215Y-40820000D01*
X-390596Y-40872380D01*
X-342977Y-40977142D01*
X-342977Y-41134285D01*
X-390596Y-41239047D01*
X-438215Y-41291428D01*
X-533453Y-41343809D01*
X-914405Y-41343809D01*
X85595Y-41867619D02*
X85595Y-40767619D01*
X752261Y-40767619D02*
X942738Y-40767619D01*
X1037976Y-40820000D01*
X1133214Y-40924761D01*
X1180833Y-41134285D01*
X1180833Y-41500952D01*
X1133214Y-41710476D01*
X1037976Y-41815238D01*
X942738Y-41867619D01*
X752261Y-41867619D01*
X657023Y-41815238D01*
X561785Y-41710476D01*
X514166Y-41500952D01*
X514166Y-41134285D01*
X561785Y-40924761D01*
X657023Y-40820000D01*
X752261Y-40767619D01*
X-1914405Y-43667619D02*
X-1914405Y-42567619D01*
X-1533453Y-42567619D01*
X-1438215Y-42620000D01*
X-1390596Y-42672380D01*
X-1342977Y-42777142D01*
X-1342977Y-42934285D01*
X-1390596Y-43039047D01*
X-1438215Y-43091428D01*
X-1533453Y-43143809D01*
X-1914405Y-43143809D01*
X-914405Y-43667619D02*
X-914405Y-42567619D01*
X-438215Y-43667619D02*
X-438215Y-42567619D01*
X133214Y-43667619D01*
X133214Y-42567619D01*
X-54391786Y-40917619D02*
X-54748929Y-40917619D01*
X-54784643Y-41441428D01*
X-54748929Y-41389047D01*
X-54677500Y-41336666D01*
X-54498929Y-41336666D01*
X-54427500Y-41389047D01*
X-54391786Y-41441428D01*
X-54356072Y-41546190D01*
X-54356072Y-41808095D01*
X-54391786Y-41912857D01*
X-54427500Y-41965238D01*
X-54498929Y-42017619D01*
X-54677500Y-42017619D01*
X-54748929Y-41965238D01*
X-54784643Y-41912857D01*
X-54141786Y-40917619D02*
X-53891786Y-42017619D01*
X-53641786Y-40917619D01*
X-51891786Y-40917619D02*
X-52248929Y-40917619D01*
X-52284643Y-41441428D01*
X-52248929Y-41389047D01*
X-52177500Y-41336666D01*
X-51998929Y-41336666D01*
X-51927500Y-41389047D01*
X-51891786Y-41441428D01*
X-51856072Y-41546190D01*
X-51856072Y-41808095D01*
X-51891786Y-41912857D01*
X-51927500Y-41965238D01*
X-51998929Y-42017619D01*
X-52177500Y-42017619D01*
X-52248929Y-41965238D01*
X-52284643Y-41912857D01*
X-51641786Y-40917619D02*
X-51391786Y-42017619D01*
X-51141786Y-40917619D01*
X-49356072Y-40970000D02*
X-49427500Y-40917619D01*
X-49534643Y-40917619D01*
X-49641786Y-40970000D01*
X-49713215Y-41074761D01*
X-49748929Y-41179523D01*
X-49784643Y-41389047D01*
X-49784643Y-41546190D01*
X-49748929Y-41755714D01*
X-49713215Y-41860476D01*
X-49641786Y-41965238D01*
X-49534643Y-42017619D01*
X-49463215Y-42017619D01*
X-49356072Y-41965238D01*
X-49320358Y-41912857D01*
X-49320358Y-41546190D01*
X-49463215Y-41546190D01*
X-48998929Y-42017619D02*
X-48998929Y-40917619D01*
X-48570358Y-42017619D01*
X-48570358Y-40917619D01*
X-48213215Y-42017619D02*
X-48213215Y-40917619D01*
X-48034643Y-40917619D01*
X-47927500Y-40970000D01*
X-47856072Y-41074761D01*
X-47820358Y-41179523D01*
X-47784643Y-41389047D01*
X-47784643Y-41546190D01*
X-47820358Y-41755714D01*
X-47856072Y-41860476D01*
X-47927500Y-41965238D01*
X-48034643Y-42017619D01*
X-48213215Y-42017619D01*
X-46498929Y-42017619D02*
X-46927500Y-42017619D01*
X-46713215Y-42017619D02*
X-46713215Y-40917619D01*
X-46784643Y-41074761D01*
X-46856072Y-41179523D01*
X-46927500Y-41231904D01*
X-45856072Y-41284285D02*
X-45856072Y-42017619D01*
X-46034643Y-40865238D02*
X-46213215Y-41650952D01*
X-45748929Y-41650952D01*
X-43927500Y-42017619D02*
X-44356072Y-42017619D01*
X-44141786Y-42017619D02*
X-44141786Y-40917619D01*
X-44213215Y-41074761D01*
X-44284643Y-41179523D01*
X-44356072Y-41231904D01*
X-43248929Y-40917619D02*
X-43606072Y-40917619D01*
X-43641786Y-41441428D01*
X-43606072Y-41389047D01*
X-43534643Y-41336666D01*
X-43356072Y-41336666D01*
X-43284643Y-41389047D01*
X-43248929Y-41441428D01*
X-43213215Y-41546190D01*
X-43213215Y-41808095D01*
X-43248929Y-41912857D01*
X-43284643Y-41965238D01*
X-43356072Y-42017619D01*
X-43534643Y-42017619D01*
X-43606072Y-41965238D01*
X-43641786Y-41912857D01*
X-41356072Y-42017619D02*
X-41784643Y-42017619D01*
X-41570358Y-42017619D02*
X-41570358Y-40917619D01*
X-41641786Y-41074761D01*
X-41713215Y-41179523D01*
X-41784643Y-41231904D01*
X-40927500Y-41389047D02*
X-40998929Y-41336666D01*
X-41034643Y-41284285D01*
X-41070358Y-41179523D01*
X-41070358Y-41127142D01*
X-41034643Y-41022380D01*
X-40998929Y-40970000D01*
X-40927500Y-40917619D01*
X-40784643Y-40917619D01*
X-40713215Y-40970000D01*
X-40677500Y-41022380D01*
X-40641786Y-41127142D01*
X-40641786Y-41179523D01*
X-40677500Y-41284285D01*
X-40713215Y-41336666D01*
X-40784643Y-41389047D01*
X-40927500Y-41389047D01*
X-40998929Y-41441428D01*
X-41034643Y-41493809D01*
X-41070358Y-41598571D01*
X-41070358Y-41808095D01*
X-41034643Y-41912857D01*
X-40998929Y-41965238D01*
X-40927500Y-42017619D01*
X-40784643Y-42017619D01*
X-40713215Y-41965238D01*
X-40677500Y-41912857D01*
X-40641786Y-41808095D01*
X-40641786Y-41598571D01*
X-40677500Y-41493809D01*
X-40713215Y-41441428D01*
X-40784643Y-41389047D01*
X-38784643Y-40970000D02*
X-38856072Y-40917619D01*
X-38963215Y-40917619D01*
X-39070358Y-40970000D01*
X-39141786Y-41074761D01*
X-39177500Y-41179523D01*
X-39213215Y-41389047D01*
X-39213215Y-41546190D01*
X-39177500Y-41755714D01*
X-39141786Y-41860476D01*
X-39070358Y-41965238D01*
X-38963215Y-42017619D01*
X-38891786Y-42017619D01*
X-38784643Y-41965238D01*
X-38748929Y-41912857D01*
X-38748929Y-41546190D01*
X-38891786Y-41546190D01*
X-38427500Y-42017619D02*
X-38427500Y-40917619D01*
X-37998929Y-42017619D01*
X-37998929Y-40917619D01*
X-37641786Y-42017619D02*
X-37641786Y-40917619D01*
X-37463215Y-40917619D01*
X-37356072Y-40970000D01*
X-37284643Y-41074761D01*
X-37248929Y-41179523D01*
X-37213215Y-41389047D01*
X-37213215Y-41546190D01*
X-37248929Y-41755714D01*
X-37284643Y-41860476D01*
X-37356072Y-41965238D01*
X-37463215Y-42017619D01*
X-37641786Y-42017619D01*
X-36356072Y-41022380D02*
X-36320358Y-40970000D01*
X-36248929Y-40917619D01*
X-36070358Y-40917619D01*
X-35998929Y-40970000D01*
X-35963215Y-41022380D01*
X-35927500Y-41127142D01*
X-35927500Y-41231904D01*
X-35963215Y-41389047D01*
X-36391786Y-42017619D01*
X-35927500Y-42017619D01*
X-35677500Y-40917619D02*
X-35213215Y-40917619D01*
X-35463215Y-41336666D01*
X-35356072Y-41336666D01*
X-35284643Y-41389047D01*
X-35248929Y-41441428D01*
X-35213215Y-41546190D01*
X-35213215Y-41808095D01*
X-35248929Y-41912857D01*
X-35284643Y-41965238D01*
X-35356072Y-42017619D01*
X-35570358Y-42017619D01*
X-35641786Y-41965238D01*
X-35677500Y-41912857D01*
X-33784643Y-41022380D02*
X-33748929Y-40970000D01*
X-33677500Y-40917619D01*
X-33498929Y-40917619D01*
X-33427500Y-40970000D01*
X-33391786Y-41022380D01*
X-33356072Y-41127142D01*
X-33356072Y-41231904D01*
X-33391786Y-41389047D01*
X-33820358Y-42017619D01*
X-33356072Y-42017619D01*
X-32713215Y-41284285D02*
X-32713215Y-42017619D01*
X-32891786Y-40865238D02*
X-33070358Y-41650952D01*
X-32606072Y-41650952D01*
X-30784643Y-40970000D02*
X-30856072Y-40917619D01*
X-30963215Y-40917619D01*
X-31070358Y-40970000D01*
X-31141786Y-41074761D01*
X-31177500Y-41179523D01*
X-31213215Y-41389047D01*
X-31213215Y-41546190D01*
X-31177500Y-41755714D01*
X-31141786Y-41860476D01*
X-31070358Y-41965238D01*
X-30963215Y-42017619D01*
X-30891786Y-42017619D01*
X-30784643Y-41965238D01*
X-30748929Y-41912857D01*
X-30748929Y-41546190D01*
X-30891786Y-41546190D01*
X-30427500Y-42017619D02*
X-30427500Y-40917619D01*
X-29998929Y-42017619D01*
X-29998929Y-40917619D01*
X-29641786Y-42017619D02*
X-29641786Y-40917619D01*
X-29463215Y-40917619D01*
X-29356072Y-40970000D01*
X-29284643Y-41074761D01*
X-29248929Y-41179523D01*
X-29213215Y-41389047D01*
X-29213215Y-41546190D01*
X-29248929Y-41755714D01*
X-29284643Y-41860476D01*
X-29356072Y-41965238D01*
X-29463215Y-42017619D01*
X-29641786Y-42017619D01*
X-28356072Y-41022380D02*
X-28320358Y-40970000D01*
X-28248929Y-40917619D01*
X-28070358Y-40917619D01*
X-27998929Y-40970000D01*
X-27963215Y-41022380D01*
X-27927500Y-41127142D01*
X-27927500Y-41231904D01*
X-27963215Y-41389047D01*
X-28391786Y-42017619D01*
X-27927500Y-42017619D01*
X-27248929Y-40917619D02*
X-27606072Y-40917619D01*
X-27641786Y-41441428D01*
X-27606072Y-41389047D01*
X-27534643Y-41336666D01*
X-27356072Y-41336666D01*
X-27284643Y-41389047D01*
X-27248929Y-41441428D01*
X-27213215Y-41546190D01*
X-27213215Y-41808095D01*
X-27248929Y-41912857D01*
X-27284643Y-41965238D01*
X-27356072Y-42017619D01*
X-27534643Y-42017619D01*
X-27606072Y-41965238D01*
X-27641786Y-41912857D01*
X-25606072Y-40917619D02*
X-25534643Y-40917619D01*
X-25463215Y-40970000D01*
X-25427500Y-41022380D01*
X-25391786Y-41127142D01*
X-25356072Y-41336666D01*
X-25356072Y-41598571D01*
X-25391786Y-41808095D01*
X-25427500Y-41912857D01*
X-25463215Y-41965238D01*
X-25534643Y-42017619D01*
X-25606072Y-42017619D01*
X-25677500Y-41965238D01*
X-25713215Y-41912857D01*
X-25748929Y-41808095D01*
X-25784643Y-41598571D01*
X-25784643Y-41336666D01*
X-25748929Y-41127142D01*
X-25713215Y-41022380D01*
X-25677500Y-40970000D01*
X-25606072Y-40917619D01*
X-24927500Y-41389047D02*
X-24998929Y-41336666D01*
X-25034643Y-41284285D01*
X-25070358Y-41179523D01*
X-25070358Y-41127142D01*
X-25034643Y-41022380D01*
X-24998929Y-40970000D01*
X-24927500Y-40917619D01*
X-24784643Y-40917619D01*
X-24713215Y-40970000D01*
X-24677500Y-41022380D01*
X-24641786Y-41127142D01*
X-24641786Y-41179523D01*
X-24677500Y-41284285D01*
X-24713215Y-41336666D01*
X-24784643Y-41389047D01*
X-24927500Y-41389047D01*
X-24998929Y-41441428D01*
X-25034643Y-41493809D01*
X-25070358Y-41598571D01*
X-25070358Y-41808095D01*
X-25034643Y-41912857D01*
X-24998929Y-41965238D01*
X-24927500Y-42017619D01*
X-24784643Y-42017619D01*
X-24713215Y-41965238D01*
X-24677500Y-41912857D01*
X-24641786Y-41808095D01*
X-24641786Y-41598571D01*
X-24677500Y-41493809D01*
X-24713215Y-41441428D01*
X-24784643Y-41389047D01*
X-23034643Y-40917619D02*
X-22963215Y-40917619D01*
X-22891786Y-40970000D01*
X-22856072Y-41022380D01*
X-22820358Y-41127142D01*
X-22784643Y-41336666D01*
X-22784643Y-41598571D01*
X-22820358Y-41808095D01*
X-22856072Y-41912857D01*
X-22891786Y-41965238D01*
X-22963215Y-42017619D01*
X-23034643Y-42017619D01*
X-23106072Y-41965238D01*
X-23141786Y-41912857D01*
X-23177501Y-41808095D01*
X-23213215Y-41598571D01*
X-23213215Y-41336666D01*
X-23177501Y-41127142D01*
X-23141786Y-41022380D01*
X-23106072Y-40970000D01*
X-23034643Y-40917619D01*
X-22534643Y-40917619D02*
X-22034643Y-40917619D01*
X-22356072Y-42017619D01*
X-20463215Y-40917619D02*
X-20391786Y-40917619D01*
X-20320358Y-40970000D01*
X-20284643Y-41022380D01*
X-20248929Y-41127142D01*
X-20213215Y-41336666D01*
X-20213215Y-41598571D01*
X-20248929Y-41808095D01*
X-20284643Y-41912857D01*
X-20320358Y-41965238D01*
X-20391786Y-42017619D01*
X-20463215Y-42017619D01*
X-20534643Y-41965238D01*
X-20570358Y-41912857D01*
X-20606072Y-41808095D01*
X-20641786Y-41598571D01*
X-20641786Y-41336666D01*
X-20606072Y-41127142D01*
X-20570358Y-41022380D01*
X-20534643Y-40970000D01*
X-20463215Y-40917619D01*
X-19498929Y-42017619D02*
X-19927500Y-42017619D01*
X-19713215Y-42017619D02*
X-19713215Y-40917619D01*
X-19784643Y-41074761D01*
X-19856072Y-41179523D01*
X-19927500Y-41231904D01*
X-18213215Y-40970000D02*
X-18284643Y-40917619D01*
X-18391786Y-40917619D01*
X-18498929Y-40970000D01*
X-18570358Y-41074761D01*
X-18606072Y-41179523D01*
X-18641786Y-41389047D01*
X-18641786Y-41546190D01*
X-18606072Y-41755714D01*
X-18570358Y-41860476D01*
X-18498929Y-41965238D01*
X-18391786Y-42017619D01*
X-18320358Y-42017619D01*
X-18213215Y-41965238D01*
X-18177500Y-41912857D01*
X-18177500Y-41546190D01*
X-18320358Y-41546190D01*
X-17856072Y-42017619D02*
X-17856072Y-40917619D01*
X-17427500Y-42017619D01*
X-17427500Y-40917619D01*
X-17070358Y-42017619D02*
X-17070358Y-40917619D01*
X-16891786Y-40917619D01*
X-16784643Y-40970000D01*
X-16713215Y-41074761D01*
X-16677500Y-41179523D01*
X-16641786Y-41389047D01*
X-16641786Y-41546190D01*
X-16677500Y-41755714D01*
X-16713215Y-41860476D01*
X-16784643Y-41965238D01*
X-16891786Y-42017619D01*
X-17070358Y-42017619D01*
X-15356072Y-42017619D02*
X-15784643Y-42017619D01*
X-15570358Y-42017619D02*
X-15570358Y-40917619D01*
X-15641786Y-41074761D01*
X-15713215Y-41179523D01*
X-15784643Y-41231904D01*
X-15070358Y-41022380D02*
X-15034643Y-40970000D01*
X-14963215Y-40917619D01*
X-14784643Y-40917619D01*
X-14713215Y-40970000D01*
X-14677500Y-41022380D01*
X-14641786Y-41127142D01*
X-14641786Y-41231904D01*
X-14677500Y-41389047D01*
X-15106072Y-42017619D01*
X-14641786Y-42017619D01*
X-12784643Y-40970000D02*
X-12856072Y-40917619D01*
X-12963215Y-40917619D01*
X-13070358Y-40970000D01*
X-13141786Y-41074761D01*
X-13177500Y-41179523D01*
X-13213215Y-41389047D01*
X-13213215Y-41546190D01*
X-13177500Y-41755714D01*
X-13141786Y-41860476D01*
X-13070358Y-41965238D01*
X-12963215Y-42017619D01*
X-12891786Y-42017619D01*
X-12784643Y-41965238D01*
X-12748929Y-41912857D01*
X-12748929Y-41546190D01*
X-12891786Y-41546190D01*
X-12427500Y-42017619D02*
X-12427500Y-40917619D01*
X-11998929Y-42017619D01*
X-11998929Y-40917619D01*
X-11641786Y-42017619D02*
X-11641786Y-40917619D01*
X-11463215Y-40917619D01*
X-11356072Y-40970000D01*
X-11284643Y-41074761D01*
X-11248929Y-41179523D01*
X-11213215Y-41389047D01*
X-11213215Y-41546190D01*
X-11248929Y-41755714D01*
X-11284643Y-41860476D01*
X-11356072Y-41965238D01*
X-11463215Y-42017619D01*
X-11641786Y-42017619D01*
X-9927500Y-42017619D02*
X-10356072Y-42017619D01*
X-10141786Y-42017619D02*
X-10141786Y-40917619D01*
X-10213215Y-41074761D01*
X-10284643Y-41179523D01*
X-10356072Y-41231904D01*
X-9284643Y-40917619D02*
X-9427500Y-40917619D01*
X-9498929Y-40970000D01*
X-9534643Y-41022380D01*
X-9606072Y-41179523D01*
X-9641786Y-41389047D01*
X-9641786Y-41808095D01*
X-9606072Y-41912857D01*
X-9570358Y-41965238D01*
X-9498929Y-42017619D01*
X-9356072Y-42017619D01*
X-9284643Y-41965238D01*
X-9248929Y-41912857D01*
X-9213215Y-41808095D01*
X-9213215Y-41546190D01*
X-9248929Y-41441428D01*
X-9284643Y-41389047D01*
X-9356072Y-41336666D01*
X-9498929Y-41336666D01*
X-9570358Y-41389047D01*
X-9606072Y-41441428D01*
X-9641786Y-41546190D01*
X-7784643Y-41022380D02*
X-7748929Y-40970000D01*
X-7677500Y-40917619D01*
X-7498929Y-40917619D01*
X-7427500Y-40970000D01*
X-7391786Y-41022380D01*
X-7356072Y-41127142D01*
X-7356072Y-41231904D01*
X-7391786Y-41389047D01*
X-7820358Y-42017619D01*
X-7356072Y-42017619D01*
X-6891786Y-40917619D02*
X-6820358Y-40917619D01*
X-6748929Y-40970000D01*
X-6713215Y-41022380D01*
X-6677500Y-41127142D01*
X-6641786Y-41336666D01*
X-6641786Y-41598571D01*
X-6677500Y-41808095D01*
X-6713215Y-41912857D01*
X-6748929Y-41965238D01*
X-6820358Y-42017619D01*
X-6891786Y-42017619D01*
X-6963215Y-41965238D01*
X-6998929Y-41912857D01*
X-7034643Y-41808095D01*
X-7070358Y-41598571D01*
X-7070358Y-41336666D01*
X-7034643Y-41127142D01*
X-6998929Y-41022380D01*
X-6963215Y-40970000D01*
X-6891786Y-40917619D01*
X-5213215Y-41022380D02*
X-5177500Y-40970000D01*
X-5106072Y-40917619D01*
X-4927500Y-40917619D01*
X-4856072Y-40970000D01*
X-4820358Y-41022380D01*
X-4784643Y-41127142D01*
X-4784643Y-41231904D01*
X-4820358Y-41389047D01*
X-5248929Y-42017619D01*
X-4784643Y-42017619D01*
X-4070358Y-42017619D02*
X-4498929Y-42017619D01*
X-4284643Y-42017619D02*
X-4284643Y-40917619D01*
X-4356072Y-41074761D01*
X-4427500Y-41179523D01*
X-4498929Y-41231904D01*
X-54391786Y-42717619D02*
X-54748929Y-42717619D01*
X-54784643Y-43241428D01*
X-54748929Y-43189047D01*
X-54677500Y-43136666D01*
X-54498929Y-43136666D01*
X-54427500Y-43189047D01*
X-54391786Y-43241428D01*
X-54356072Y-43346190D01*
X-54356072Y-43608095D01*
X-54391786Y-43712857D01*
X-54427500Y-43765238D01*
X-54498929Y-43817619D01*
X-54677500Y-43817619D01*
X-54748929Y-43765238D01*
X-54784643Y-43712857D01*
X-54141786Y-42717619D02*
X-53891786Y-43817619D01*
X-53641786Y-42717619D01*
X-52106072Y-42717619D02*
X-52034643Y-42717619D01*
X-51963215Y-42770000D01*
X-51927500Y-42822380D01*
X-51891786Y-42927142D01*
X-51856072Y-43136666D01*
X-51856072Y-43398571D01*
X-51891786Y-43608095D01*
X-51927500Y-43712857D01*
X-51963215Y-43765238D01*
X-52034643Y-43817619D01*
X-52106072Y-43817619D01*
X-52177500Y-43765238D01*
X-52213215Y-43712857D01*
X-52248929Y-43608095D01*
X-52284643Y-43398571D01*
X-52284643Y-43136666D01*
X-52248929Y-42927142D01*
X-52213215Y-42822380D01*
X-52177500Y-42770000D01*
X-52106072Y-42717619D01*
X-51570358Y-42822380D02*
X-51534643Y-42770000D01*
X-51463215Y-42717619D01*
X-51284643Y-42717619D01*
X-51213215Y-42770000D01*
X-51177500Y-42822380D01*
X-51141786Y-42927142D01*
X-51141786Y-43031904D01*
X-51177500Y-43189047D01*
X-51606072Y-43817619D01*
X-51141786Y-43817619D01*
X-49534643Y-42717619D02*
X-49463215Y-42717619D01*
X-49391786Y-42770000D01*
X-49356072Y-42822380D01*
X-49320358Y-42927142D01*
X-49284643Y-43136666D01*
X-49284643Y-43398571D01*
X-49320358Y-43608095D01*
X-49356072Y-43712857D01*
X-49391786Y-43765238D01*
X-49463215Y-43817619D01*
X-49534643Y-43817619D01*
X-49606072Y-43765238D01*
X-49641786Y-43712857D01*
X-49677500Y-43608095D01*
X-49713215Y-43398571D01*
X-49713215Y-43136666D01*
X-49677500Y-42927142D01*
X-49641786Y-42822380D01*
X-49606072Y-42770000D01*
X-49534643Y-42717619D01*
X-49034643Y-42717619D02*
X-48570358Y-42717619D01*
X-48820358Y-43136666D01*
X-48713215Y-43136666D01*
X-48641786Y-43189047D01*
X-48606072Y-43241428D01*
X-48570358Y-43346190D01*
X-48570358Y-43608095D01*
X-48606072Y-43712857D01*
X-48641786Y-43765238D01*
X-48713215Y-43817619D01*
X-48927500Y-43817619D01*
X-48998929Y-43765238D01*
X-49034643Y-43712857D01*
X-46963215Y-42717619D02*
X-46891786Y-42717619D01*
X-46820358Y-42770000D01*
X-46784643Y-42822380D01*
X-46748929Y-42927142D01*
X-46713215Y-43136666D01*
X-46713215Y-43398571D01*
X-46748929Y-43608095D01*
X-46784643Y-43712857D01*
X-46820358Y-43765238D01*
X-46891786Y-43817619D01*
X-46963215Y-43817619D01*
X-47034643Y-43765238D01*
X-47070358Y-43712857D01*
X-47106072Y-43608095D01*
X-47141786Y-43398571D01*
X-47141786Y-43136666D01*
X-47106072Y-42927142D01*
X-47070358Y-42822380D01*
X-47034643Y-42770000D01*
X-46963215Y-42717619D01*
X-46070358Y-43084285D02*
X-46070358Y-43817619D01*
X-46248929Y-42665238D02*
X-46427500Y-43450952D01*
X-45963215Y-43450952D01*
X-44141786Y-42770000D02*
X-44213215Y-42717619D01*
X-44320358Y-42717619D01*
X-44427500Y-42770000D01*
X-44498929Y-42874761D01*
X-44534643Y-42979523D01*
X-44570358Y-43189047D01*
X-44570358Y-43346190D01*
X-44534643Y-43555714D01*
X-44498929Y-43660476D01*
X-44427500Y-43765238D01*
X-44320358Y-43817619D01*
X-44248929Y-43817619D01*
X-44141786Y-43765238D01*
X-44106072Y-43712857D01*
X-44106072Y-43346190D01*
X-44248929Y-43346190D01*
X-43784643Y-43817619D02*
X-43784643Y-42717619D01*
X-43356072Y-43817619D01*
X-43356072Y-42717619D01*
X-42998929Y-43817619D02*
X-42998929Y-42717619D01*
X-42820358Y-42717619D01*
X-42713215Y-42770000D01*
X-42641786Y-42874761D01*
X-42606072Y-42979523D01*
X-42570358Y-43189047D01*
X-42570358Y-43346190D01*
X-42606072Y-43555714D01*
X-42641786Y-43660476D01*
X-42713215Y-43765238D01*
X-42820358Y-43817619D01*
X-42998929Y-43817619D01*
X-41284643Y-43817619D02*
X-41713215Y-43817619D01*
X-41498929Y-43817619D02*
X-41498929Y-42717619D01*
X-41570358Y-42874761D01*
X-41641786Y-42979523D01*
X-41713215Y-43031904D01*
X-41034643Y-42717619D02*
X-40534643Y-42717619D01*
X-40856072Y-43817619D01*
X-39141786Y-42822380D02*
X-39106072Y-42770000D01*
X-39034643Y-42717619D01*
X-38856072Y-42717619D01*
X-38784643Y-42770000D01*
X-38748929Y-42822380D01*
X-38713215Y-42927142D01*
X-38713215Y-43031904D01*
X-38748929Y-43189047D01*
X-39177500Y-43817619D01*
X-38713215Y-43817619D01*
X-38463215Y-42717619D02*
X-37963215Y-42717619D01*
X-38284643Y-43817619D01*
X-36570358Y-42822380D02*
X-36534643Y-42770000D01*
X-36463215Y-42717619D01*
X-36284643Y-42717619D01*
X-36213215Y-42770000D01*
X-36177500Y-42822380D01*
X-36141786Y-42927142D01*
X-36141786Y-43031904D01*
X-36177500Y-43189047D01*
X-36606072Y-43817619D01*
X-36141786Y-43817619D01*
X-35856072Y-42822380D02*
X-35820358Y-42770000D01*
X-35748929Y-42717619D01*
X-35570358Y-42717619D01*
X-35498929Y-42770000D01*
X-35463215Y-42822380D01*
X-35427500Y-42927142D01*
X-35427500Y-43031904D01*
X-35463215Y-43189047D01*
X-35891786Y-43817619D01*
X-35427500Y-43817619D01*
X-33606072Y-42717619D02*
X-33963215Y-42717619D01*
X-33998929Y-43241428D01*
X-33963215Y-43189047D01*
X-33891786Y-43136666D01*
X-33713215Y-43136666D01*
X-33641786Y-43189047D01*
X-33606072Y-43241428D01*
X-33570358Y-43346190D01*
X-33570358Y-43608095D01*
X-33606072Y-43712857D01*
X-33641786Y-43765238D01*
X-33713215Y-43817619D01*
X-33891786Y-43817619D01*
X-33963215Y-43765238D01*
X-33998929Y-43712857D01*
X-33356072Y-42717619D02*
X-33106072Y-43817619D01*
X-32856072Y-42717619D01*
X-31070358Y-43817619D02*
X-31498929Y-43817619D01*
X-31284643Y-43817619D02*
X-31284643Y-42717619D01*
X-31356072Y-42874761D01*
X-31427500Y-42979523D01*
X-31498929Y-43031904D01*
X-30606072Y-42717619D02*
X-30534643Y-42717619D01*
X-30463215Y-42770000D01*
X-30427500Y-42822380D01*
X-30391786Y-42927142D01*
X-30356072Y-43136666D01*
X-30356072Y-43398571D01*
X-30391786Y-43608095D01*
X-30427500Y-43712857D01*
X-30463215Y-43765238D01*
X-30534643Y-43817619D01*
X-30606072Y-43817619D01*
X-30677500Y-43765238D01*
X-30713215Y-43712857D01*
X-30748929Y-43608095D01*
X-30784643Y-43398571D01*
X-30784643Y-43136666D01*
X-30748929Y-42927142D01*
X-30713215Y-42822380D01*
X-30677500Y-42770000D01*
X-30606072Y-42717619D01*
X-28748929Y-42717619D02*
X-28677501Y-42717619D01*
X-28606072Y-42770000D01*
X-28570358Y-42822380D01*
X-28534643Y-42927142D01*
X-28498929Y-43136666D01*
X-28498929Y-43398571D01*
X-28534643Y-43608095D01*
X-28570358Y-43712857D01*
X-28606072Y-43765238D01*
X-28677501Y-43817619D01*
X-28748929Y-43817619D01*
X-28820358Y-43765238D01*
X-28856072Y-43712857D01*
X-28891786Y-43608095D01*
X-28927501Y-43398571D01*
X-28927501Y-43136666D01*
X-28891786Y-42927142D01*
X-28856072Y-42822380D01*
X-28820358Y-42770000D01*
X-28748929Y-42717619D01*
X-28141786Y-43817619D02*
X-27998929Y-43817619D01*
X-27927501Y-43765238D01*
X-27891786Y-43712857D01*
X-27820358Y-43555714D01*
X-27784643Y-43346190D01*
X-27784643Y-42927142D01*
X-27820358Y-42822380D01*
X-27856072Y-42770000D01*
X-27927501Y-42717619D01*
X-28070358Y-42717619D01*
X-28141786Y-42770000D01*
X-28177501Y-42822380D01*
X-28213215Y-42927142D01*
X-28213215Y-43189047D01*
X-28177501Y-43293809D01*
X-28141786Y-43346190D01*
X-28070358Y-43398571D01*
X-27927501Y-43398571D01*
X-27856072Y-43346190D01*
X-27820358Y-43293809D01*
X-27784643Y-43189047D01*
X-25927501Y-43817619D02*
X-26356072Y-43817619D01*
X-26141786Y-43817619D02*
X-26141786Y-42717619D01*
X-26213215Y-42874761D01*
X-26284643Y-42979523D01*
X-26356072Y-43031904D01*
X-25213215Y-43817619D02*
X-25641786Y-43817619D01*
X-25427501Y-43817619D02*
X-25427501Y-42717619D01*
X-25498929Y-42874761D01*
X-25570358Y-42979523D01*
X-25641786Y-43031904D01*
X-23356072Y-42770000D02*
X-23427501Y-42717619D01*
X-23534643Y-42717619D01*
X-23641786Y-42770000D01*
X-23713215Y-42874761D01*
X-23748929Y-42979523D01*
X-23784643Y-43189047D01*
X-23784643Y-43346190D01*
X-23748929Y-43555714D01*
X-23713215Y-43660476D01*
X-23641786Y-43765238D01*
X-23534643Y-43817619D01*
X-23463215Y-43817619D01*
X-23356072Y-43765238D01*
X-23320358Y-43712857D01*
X-23320358Y-43346190D01*
X-23463215Y-43346190D01*
X-22998929Y-43817619D02*
X-22998929Y-42717619D01*
X-22570358Y-43817619D01*
X-22570358Y-42717619D01*
X-22213215Y-43817619D02*
X-22213215Y-42717619D01*
X-22034643Y-42717619D01*
X-21927501Y-42770000D01*
X-21856072Y-42874761D01*
X-21820358Y-42979523D01*
X-21784643Y-43189047D01*
X-21784643Y-43346190D01*
X-21820358Y-43555714D01*
X-21856072Y-43660476D01*
X-21927501Y-43765238D01*
X-22034643Y-43817619D01*
X-22213215Y-43817619D01*
X-20748929Y-42717619D02*
X-20677501Y-42717619D01*
X-20606072Y-42770000D01*
X-20570358Y-42822380D01*
X-20534643Y-42927142D01*
X-20498929Y-43136666D01*
X-20498929Y-43398571D01*
X-20534643Y-43608095D01*
X-20570358Y-43712857D01*
X-20606072Y-43765238D01*
X-20677501Y-43817619D01*
X-20748929Y-43817619D01*
X-20820358Y-43765238D01*
X-20856072Y-43712857D01*
X-20891786Y-43608095D01*
X-20927501Y-43398571D01*
X-20927501Y-43136666D01*
X-20891786Y-42927142D01*
X-20856072Y-42822380D01*
X-20820358Y-42770000D01*
X-20748929Y-42717619D01*
X-20034643Y-42717619D02*
X-19963215Y-42717619D01*
X-19891786Y-42770000D01*
X-19856072Y-42822380D01*
X-19820358Y-42927142D01*
X-19784643Y-43136666D01*
X-19784643Y-43398571D01*
X-19820358Y-43608095D01*
X-19856072Y-43712857D01*
X-19891786Y-43765238D01*
X-19963215Y-43817619D01*
X-20034643Y-43817619D01*
X-20106072Y-43765238D01*
X-20141786Y-43712857D01*
X-20177501Y-43608095D01*
X-20213215Y-43398571D01*
X-20213215Y-43136666D01*
X-20177501Y-42927142D01*
X-20141786Y-42822380D01*
X-20106072Y-42770000D01*
X-20034643Y-42717619D01*
X-18177500Y-42717619D02*
X-18106072Y-42717619D01*
X-18034643Y-42770000D01*
X-17998929Y-42822380D01*
X-17963215Y-42927142D01*
X-17927500Y-43136666D01*
X-17927500Y-43398571D01*
X-17963215Y-43608095D01*
X-17998929Y-43712857D01*
X-18034643Y-43765238D01*
X-18106072Y-43817619D01*
X-18177500Y-43817619D01*
X-18248929Y-43765238D01*
X-18284643Y-43712857D01*
X-18320358Y-43608095D01*
X-18356072Y-43398571D01*
X-18356072Y-43136666D01*
X-18320358Y-42927142D01*
X-18284643Y-42822380D01*
X-18248929Y-42770000D01*
X-18177500Y-42717619D01*
X-17248929Y-42717619D02*
X-17606072Y-42717619D01*
X-17641786Y-43241428D01*
X-17606072Y-43189047D01*
X-17534643Y-43136666D01*
X-17356072Y-43136666D01*
X-17284643Y-43189047D01*
X-17248929Y-43241428D01*
X-17213215Y-43346190D01*
X-17213215Y-43608095D01*
X-17248929Y-43712857D01*
X-17284643Y-43765238D01*
X-17356072Y-43817619D01*
X-17534643Y-43817619D01*
X-17606072Y-43765238D01*
X-17641786Y-43712857D01*
X-15606072Y-42717619D02*
X-15534643Y-42717619D01*
X-15463215Y-42770000D01*
X-15427500Y-42822380D01*
X-15391786Y-42927142D01*
X-15356072Y-43136666D01*
X-15356072Y-43398571D01*
X-15391786Y-43608095D01*
X-15427500Y-43712857D01*
X-15463215Y-43765238D01*
X-15534643Y-43817619D01*
X-15606072Y-43817619D01*
X-15677500Y-43765238D01*
X-15713215Y-43712857D01*
X-15748929Y-43608095D01*
X-15784643Y-43398571D01*
X-15784643Y-43136666D01*
X-15748929Y-42927142D01*
X-15713215Y-42822380D01*
X-15677500Y-42770000D01*
X-15606072Y-42717619D01*
X-14713215Y-42717619D02*
X-14856072Y-42717619D01*
X-14927500Y-42770000D01*
X-14963215Y-42822380D01*
X-15034643Y-42979523D01*
X-15070358Y-43189047D01*
X-15070358Y-43608095D01*
X-15034643Y-43712857D01*
X-14998929Y-43765238D01*
X-14927500Y-43817619D01*
X-14784643Y-43817619D01*
X-14713215Y-43765238D01*
X-14677500Y-43712857D01*
X-14641786Y-43608095D01*
X-14641786Y-43346190D01*
X-14677500Y-43241428D01*
X-14713215Y-43189047D01*
X-14784643Y-43136666D01*
X-14927500Y-43136666D01*
X-14998929Y-43189047D01*
X-15034643Y-43241428D01*
X-15070358Y-43346190D01*
X-12784643Y-43817619D02*
X-13213215Y-43817619D01*
X-12998929Y-43817619D02*
X-12998929Y-42717619D01*
X-13070358Y-42874761D01*
X-13141786Y-42979523D01*
X-13213215Y-43031904D01*
X-12534643Y-42717619D02*
X-12070358Y-42717619D01*
X-12320358Y-43136666D01*
X-12213215Y-43136666D01*
X-12141786Y-43189047D01*
X-12106072Y-43241428D01*
X-12070358Y-43346190D01*
X-12070358Y-43608095D01*
X-12106072Y-43712857D01*
X-12141786Y-43765238D01*
X-12213215Y-43817619D01*
X-12427500Y-43817619D01*
X-12498929Y-43765238D01*
X-12534643Y-43712857D01*
X-10213215Y-43817619D02*
X-10641786Y-43817619D01*
X-10427500Y-43817619D02*
X-10427500Y-42717619D01*
X-10498929Y-42874761D01*
X-10570358Y-42979523D01*
X-10641786Y-43031904D01*
X-9856072Y-43817619D02*
X-9713215Y-43817619D01*
X-9641786Y-43765238D01*
X-9606072Y-43712857D01*
X-9534643Y-43555714D01*
X-9498929Y-43346190D01*
X-9498929Y-42927142D01*
X-9534643Y-42822380D01*
X-9570358Y-42770000D01*
X-9641786Y-42717619D01*
X-9784643Y-42717619D01*
X-9856072Y-42770000D01*
X-9891786Y-42822380D01*
X-9927500Y-42927142D01*
X-9927500Y-43189047D01*
X-9891786Y-43293809D01*
X-9856072Y-43346190D01*
X-9784643Y-43398571D01*
X-9641786Y-43398571D01*
X-9570358Y-43346190D01*
X-9534643Y-43293809D01*
X-9498929Y-43189047D01*
X-8070358Y-42822380D02*
X-8034643Y-42770000D01*
X-7963215Y-42717619D01*
X-7784643Y-42717619D01*
X-7713215Y-42770000D01*
X-7677500Y-42822380D01*
X-7641786Y-42927142D01*
X-7641786Y-43031904D01*
X-7677500Y-43189047D01*
X-8106072Y-43817619D01*
X-7641786Y-43817619D01*
X-6998929Y-42717619D02*
X-7141786Y-42717619D01*
X-7213215Y-42770000D01*
X-7248929Y-42822380D01*
X-7320358Y-42979523D01*
X-7356072Y-43189047D01*
X-7356072Y-43608095D01*
X-7320358Y-43712857D01*
X-7284643Y-43765238D01*
X-7213215Y-43817619D01*
X-7070358Y-43817619D01*
X-6998929Y-43765238D01*
X-6963215Y-43712857D01*
X-6927500Y-43608095D01*
X-6927500Y-43346190D01*
X-6963215Y-43241428D01*
X-6998929Y-43189047D01*
X-7070358Y-43136666D01*
X-7213215Y-43136666D01*
X-7284643Y-43189047D01*
X-7320358Y-43241428D01*
X-7356072Y-43346190D01*
X-5070358Y-42770000D02*
X-5141786Y-42717619D01*
X-5248929Y-42717619D01*
X-5356072Y-42770000D01*
X-5427500Y-42874761D01*
X-5463215Y-42979523D01*
X-5498929Y-43189047D01*
X-5498929Y-43346190D01*
X-5463215Y-43555714D01*
X-5427500Y-43660476D01*
X-5356072Y-43765238D01*
X-5248929Y-43817619D01*
X-5177500Y-43817619D01*
X-5070358Y-43765238D01*
X-5034643Y-43712857D01*
X-5034643Y-43346190D01*
X-5177500Y-43346190D01*
X-4713215Y-43817619D02*
X-4713215Y-42717619D01*
X-4284643Y-43817619D01*
X-4284643Y-42717619D01*
X-3927500Y-43817619D02*
X-3927500Y-42717619D01*
X-3748929Y-42717619D01*
X-3641786Y-42770000D01*
X-3570358Y-42874761D01*
X-3534643Y-42979523D01*
X-3498929Y-43189047D01*
X-3498929Y-43346190D01*
X-3534643Y-43555714D01*
X-3570358Y-43660476D01*
X-3641786Y-43765238D01*
X-3748929Y-43817619D01*
X-3927500Y-43817619D01*
X-53725715Y-45230714D02*
X-53680000Y-45185000D01*
X-53588572Y-45139285D01*
X-53360000Y-45139285D01*
X-53268572Y-45185000D01*
X-53222858Y-45230714D01*
X-53177143Y-45322142D01*
X-53177143Y-45413571D01*
X-53222858Y-45550714D01*
X-53771429Y-46099285D01*
X-53177143Y-46099285D01*
X-50891429Y-45459285D02*
X-50891429Y-46099285D01*
X-51120000Y-45093571D02*
X-51348572Y-45779285D01*
X-50754286Y-45779285D01*
X-48514286Y-45139285D02*
X-48697143Y-45139285D01*
X-48788572Y-45185000D01*
X-48834286Y-45230714D01*
X-48925715Y-45367857D01*
X-48971429Y-45550714D01*
X-48971429Y-45916428D01*
X-48925715Y-46007857D01*
X-48880000Y-46053571D01*
X-48788572Y-46099285D01*
X-48605715Y-46099285D01*
X-48514286Y-46053571D01*
X-48468572Y-46007857D01*
X-48422858Y-45916428D01*
X-48422858Y-45687857D01*
X-48468572Y-45596428D01*
X-48514286Y-45550714D01*
X-48605715Y-45505000D01*
X-48788572Y-45505000D01*
X-48880000Y-45550714D01*
X-48925715Y-45596428D01*
X-48971429Y-45687857D01*
X-46411429Y-45550714D02*
X-46502858Y-45505000D01*
X-46548572Y-45459285D01*
X-46594286Y-45367857D01*
X-46594286Y-45322142D01*
X-46548572Y-45230714D01*
X-46502858Y-45185000D01*
X-46411429Y-45139285D01*
X-46228572Y-45139285D01*
X-46137143Y-45185000D01*
X-46091429Y-45230714D01*
X-46045715Y-45322142D01*
X-46045715Y-45367857D01*
X-46091429Y-45459285D01*
X-46137143Y-45505000D01*
X-46228572Y-45550714D01*
X-46411429Y-45550714D01*
X-46502858Y-45596428D01*
X-46548572Y-45642142D01*
X-46594286Y-45733571D01*
X-46594286Y-45916428D01*
X-46548572Y-46007857D01*
X-46502858Y-46053571D01*
X-46411429Y-46099285D01*
X-46228572Y-46099285D01*
X-46137143Y-46053571D01*
X-46091429Y-46007857D01*
X-46045715Y-45916428D01*
X-46045715Y-45733571D01*
X-46091429Y-45642142D01*
X-46137143Y-45596428D01*
X-46228572Y-45550714D01*
X-43668572Y-46099285D02*
X-44217143Y-46099285D01*
X-43942858Y-46099285D02*
X-43942858Y-45139285D01*
X-44034286Y-45276428D01*
X-44125715Y-45367857D01*
X-44217143Y-45413571D01*
X-43074286Y-45139285D02*
X-42982858Y-45139285D01*
X-42891429Y-45185000D01*
X-42845715Y-45230714D01*
X-42800000Y-45322142D01*
X-42754286Y-45505000D01*
X-42754286Y-45733571D01*
X-42800000Y-45916428D01*
X-42845715Y-46007857D01*
X-42891429Y-46053571D01*
X-42982858Y-46099285D01*
X-43074286Y-46099285D01*
X-43165715Y-46053571D01*
X-43211429Y-46007857D01*
X-43257143Y-45916428D01*
X-43302858Y-45733571D01*
X-43302858Y-45505000D01*
X-43257143Y-45322142D01*
X-43211429Y-45230714D01*
X-43165715Y-45185000D01*
X-43074286Y-45139285D01*
X-41108572Y-46099285D02*
X-41657143Y-46099285D01*
X-41382858Y-46099285D02*
X-41382858Y-45139285D01*
X-41474286Y-45276428D01*
X-41565715Y-45367857D01*
X-41657143Y-45413571D01*
X-40742858Y-45230714D02*
X-40697143Y-45185000D01*
X-40605715Y-45139285D01*
X-40377143Y-45139285D01*
X-40285715Y-45185000D01*
X-40240000Y-45230714D01*
X-40194286Y-45322142D01*
X-40194286Y-45413571D01*
X-40240000Y-45550714D01*
X-40788572Y-46099285D01*
X-40194286Y-46099285D01*
X-38548572Y-46099285D02*
X-39097143Y-46099285D01*
X-38822858Y-46099285D02*
X-38822858Y-45139285D01*
X-38914286Y-45276428D01*
X-39005715Y-45367857D01*
X-39097143Y-45413571D01*
X-37725715Y-45459285D02*
X-37725715Y-46099285D01*
X-37954286Y-45093571D02*
X-38182858Y-45779285D01*
X-37588572Y-45779285D01*
X-35988572Y-46099285D02*
X-36537143Y-46099285D01*
X-36262858Y-46099285D02*
X-36262858Y-45139285D01*
X-36354286Y-45276428D01*
X-36445715Y-45367857D01*
X-36537143Y-45413571D01*
X-35165715Y-45139285D02*
X-35348572Y-45139285D01*
X-35440000Y-45185000D01*
X-35485715Y-45230714D01*
X-35577143Y-45367857D01*
X-35622858Y-45550714D01*
X-35622858Y-45916428D01*
X-35577143Y-46007857D01*
X-35531429Y-46053571D01*
X-35440000Y-46099285D01*
X-35257143Y-46099285D01*
X-35165715Y-46053571D01*
X-35120000Y-46007857D01*
X-35074286Y-45916428D01*
X-35074286Y-45687857D01*
X-35120000Y-45596428D01*
X-35165715Y-45550714D01*
X-35257143Y-45505000D01*
X-35440000Y-45505000D01*
X-35531429Y-45550714D01*
X-35577143Y-45596428D01*
X-35622858Y-45687857D01*
X-33428572Y-46099285D02*
X-33977143Y-46099285D01*
X-33702858Y-46099285D02*
X-33702858Y-45139285D01*
X-33794286Y-45276428D01*
X-33885715Y-45367857D01*
X-33977143Y-45413571D01*
X-32880000Y-45550714D02*
X-32971429Y-45505000D01*
X-33017143Y-45459285D01*
X-33062858Y-45367857D01*
X-33062858Y-45322142D01*
X-33017143Y-45230714D01*
X-32971429Y-45185000D01*
X-32880000Y-45139285D01*
X-32697143Y-45139285D01*
X-32605715Y-45185000D01*
X-32560000Y-45230714D01*
X-32514286Y-45322142D01*
X-32514286Y-45367857D01*
X-32560000Y-45459285D01*
X-32605715Y-45505000D01*
X-32697143Y-45550714D01*
X-32880000Y-45550714D01*
X-32971429Y-45596428D01*
X-33017143Y-45642142D01*
X-33062858Y-45733571D01*
X-33062858Y-45916428D01*
X-33017143Y-46007857D01*
X-32971429Y-46053571D01*
X-32880000Y-46099285D01*
X-32697143Y-46099285D01*
X-32605715Y-46053571D01*
X-32560000Y-46007857D01*
X-32514286Y-45916428D01*
X-32514286Y-45733571D01*
X-32560000Y-45642142D01*
X-32605715Y-45596428D01*
X-32697143Y-45550714D01*
X-31417143Y-45230714D02*
X-31371429Y-45185000D01*
X-31280000Y-45139285D01*
X-31051429Y-45139285D01*
X-30960000Y-45185000D01*
X-30914286Y-45230714D01*
X-30868572Y-45322142D01*
X-30868572Y-45413571D01*
X-30914286Y-45550714D01*
X-31462858Y-46099285D01*
X-30868572Y-46099285D01*
X-30274286Y-45139285D02*
X-30182858Y-45139285D01*
X-30091429Y-45185000D01*
X-30045715Y-45230714D01*
X-30000000Y-45322142D01*
X-29954286Y-45505000D01*
X-29954286Y-45733571D01*
X-30000000Y-45916428D01*
X-30045715Y-46007857D01*
X-30091429Y-46053571D01*
X-30182858Y-46099285D01*
X-30274286Y-46099285D01*
X-30365715Y-46053571D01*
X-30411429Y-46007857D01*
X-30457143Y-45916428D01*
X-30502858Y-45733571D01*
X-30502858Y-45505000D01*
X-30457143Y-45322142D01*
X-30411429Y-45230714D01*
X-30365715Y-45185000D01*
X-30274286Y-45139285D01*
X-28857143Y-45230714D02*
X-28811429Y-45185000D01*
X-28720000Y-45139285D01*
X-28491429Y-45139285D01*
X-28400000Y-45185000D01*
X-28354286Y-45230714D01*
X-28308572Y-45322142D01*
X-28308572Y-45413571D01*
X-28354286Y-45550714D01*
X-28902858Y-46099285D01*
X-28308572Y-46099285D01*
X-27942858Y-45230714D02*
X-27897143Y-45185000D01*
X-27805715Y-45139285D01*
X-27577143Y-45139285D01*
X-27485715Y-45185000D01*
X-27440000Y-45230714D01*
X-27394286Y-45322142D01*
X-27394286Y-45413571D01*
X-27440000Y-45550714D01*
X-27988572Y-46099285D01*
X-27394286Y-46099285D01*
X-26297143Y-45230714D02*
X-26251429Y-45185000D01*
X-26160000Y-45139285D01*
X-25931429Y-45139285D01*
X-25840000Y-45185000D01*
X-25794286Y-45230714D01*
X-25748572Y-45322142D01*
X-25748572Y-45413571D01*
X-25794286Y-45550714D01*
X-26342858Y-46099285D01*
X-25748572Y-46099285D01*
X-24925715Y-45459285D02*
X-24925715Y-46099285D01*
X-25154286Y-45093571D02*
X-25382858Y-45779285D01*
X-24788572Y-45779285D01*
X-23737143Y-45230714D02*
X-23691429Y-45185000D01*
X-23600000Y-45139285D01*
X-23371429Y-45139285D01*
X-23280000Y-45185000D01*
X-23234286Y-45230714D01*
X-23188572Y-45322142D01*
X-23188572Y-45413571D01*
X-23234286Y-45550714D01*
X-23782858Y-46099285D01*
X-23188572Y-46099285D01*
X-22365715Y-45139285D02*
X-22548572Y-45139285D01*
X-22640000Y-45185000D01*
X-22685715Y-45230714D01*
X-22777143Y-45367857D01*
X-22822858Y-45550714D01*
X-22822858Y-45916428D01*
X-22777143Y-46007857D01*
X-22731429Y-46053571D01*
X-22640000Y-46099285D01*
X-22457143Y-46099285D01*
X-22365715Y-46053571D01*
X-22320000Y-46007857D01*
X-22274286Y-45916428D01*
X-22274286Y-45687857D01*
X-22320000Y-45596428D01*
X-22365715Y-45550714D01*
X-22457143Y-45505000D01*
X-22640000Y-45505000D01*
X-22731429Y-45550714D01*
X-22777143Y-45596428D01*
X-22822858Y-45687857D01*
X-21177143Y-45230714D02*
X-21131429Y-45185000D01*
X-21040000Y-45139285D01*
X-20811429Y-45139285D01*
X-20720000Y-45185000D01*
X-20674286Y-45230714D01*
X-20628572Y-45322142D01*
X-20628572Y-45413571D01*
X-20674286Y-45550714D01*
X-21222858Y-46099285D01*
X-20628572Y-46099285D01*
X-20080000Y-45550714D02*
X-20171429Y-45505000D01*
X-20217143Y-45459285D01*
X-20262858Y-45367857D01*
X-20262858Y-45322142D01*
X-20217143Y-45230714D01*
X-20171429Y-45185000D01*
X-20080000Y-45139285D01*
X-19897143Y-45139285D01*
X-19805715Y-45185000D01*
X-19760000Y-45230714D01*
X-19714286Y-45322142D01*
X-19714286Y-45367857D01*
X-19760000Y-45459285D01*
X-19805715Y-45505000D01*
X-19897143Y-45550714D01*
X-20080000Y-45550714D01*
X-20171429Y-45596428D01*
X-20217143Y-45642142D01*
X-20262858Y-45733571D01*
X-20262858Y-45916428D01*
X-20217143Y-46007857D01*
X-20171429Y-46053571D01*
X-20080000Y-46099285D01*
X-19897143Y-46099285D01*
X-19805715Y-46053571D01*
X-19760000Y-46007857D01*
X-19714286Y-45916428D01*
X-19714286Y-45733571D01*
X-19760000Y-45642142D01*
X-19805715Y-45596428D01*
X-19897143Y-45550714D01*
X-18662858Y-45139285D02*
X-18068572Y-45139285D01*
X-18388572Y-45505000D01*
X-18251429Y-45505000D01*
X-18160000Y-45550714D01*
X-18114286Y-45596428D01*
X-18068572Y-45687857D01*
X-18068572Y-45916428D01*
X-18114286Y-46007857D01*
X-18160000Y-46053571D01*
X-18251429Y-46099285D01*
X-18525715Y-46099285D01*
X-18617143Y-46053571D01*
X-18662858Y-46007857D01*
X-17474286Y-45139285D02*
X-17382858Y-45139285D01*
X-17291429Y-45185000D01*
X-17245715Y-45230714D01*
X-17200000Y-45322142D01*
X-17154286Y-45505000D01*
X-17154286Y-45733571D01*
X-17200000Y-45916428D01*
X-17245715Y-46007857D01*
X-17291429Y-46053571D01*
X-17382858Y-46099285D01*
X-17474286Y-46099285D01*
X-17565715Y-46053571D01*
X-17611429Y-46007857D01*
X-17657143Y-45916428D01*
X-17702858Y-45733571D01*
X-17702858Y-45505000D01*
X-17657143Y-45322142D01*
X-17611429Y-45230714D01*
X-17565715Y-45185000D01*
X-17474286Y-45139285D01*
X-16102858Y-45139285D02*
X-15508572Y-45139285D01*
X-15828572Y-45505000D01*
X-15691429Y-45505000D01*
X-15600000Y-45550714D01*
X-15554286Y-45596428D01*
X-15508572Y-45687857D01*
X-15508572Y-45916428D01*
X-15554286Y-46007857D01*
X-15600000Y-46053571D01*
X-15691429Y-46099285D01*
X-15965715Y-46099285D01*
X-16057143Y-46053571D01*
X-16102858Y-46007857D01*
X-15142858Y-45230714D02*
X-15097143Y-45185000D01*
X-15005715Y-45139285D01*
X-14777143Y-45139285D01*
X-14685715Y-45185000D01*
X-14640000Y-45230714D01*
X-14594286Y-45322142D01*
X-14594286Y-45413571D01*
X-14640000Y-45550714D01*
X-15188572Y-46099285D01*
X-14594286Y-46099285D01*
X-13542858Y-45139285D02*
X-12948572Y-45139285D01*
X-13268572Y-45505000D01*
X-13131429Y-45505000D01*
X-13040000Y-45550714D01*
X-12994286Y-45596428D01*
X-12948572Y-45687857D01*
X-12948572Y-45916428D01*
X-12994286Y-46007857D01*
X-13040000Y-46053571D01*
X-13131429Y-46099285D01*
X-13405715Y-46099285D01*
X-13497143Y-46053571D01*
X-13542858Y-46007857D01*
X-12125715Y-45459285D02*
X-12125715Y-46099285D01*
X-12354286Y-45093571D02*
X-12582858Y-45779285D01*
X-11988572Y-45779285D01*
X-10982858Y-45139285D02*
X-10388572Y-45139285D01*
X-10708572Y-45505000D01*
X-10571429Y-45505000D01*
X-10480000Y-45550714D01*
X-10434286Y-45596428D01*
X-10388572Y-45687857D01*
X-10388572Y-45916428D01*
X-10434286Y-46007857D01*
X-10480000Y-46053571D01*
X-10571429Y-46099285D01*
X-10845715Y-46099285D01*
X-10937143Y-46053571D01*
X-10982858Y-46007857D01*
X-9565715Y-45139285D02*
X-9748572Y-45139285D01*
X-9840000Y-45185000D01*
X-9885715Y-45230714D01*
X-9977143Y-45367857D01*
X-10022858Y-45550714D01*
X-10022858Y-45916428D01*
X-9977143Y-46007857D01*
X-9931429Y-46053571D01*
X-9840000Y-46099285D01*
X-9657143Y-46099285D01*
X-9565715Y-46053571D01*
X-9520000Y-46007857D01*
X-9474286Y-45916428D01*
X-9474286Y-45687857D01*
X-9520000Y-45596428D01*
X-9565715Y-45550714D01*
X-9657143Y-45505000D01*
X-9840000Y-45505000D01*
X-9931429Y-45550714D01*
X-9977143Y-45596428D01*
X-10022858Y-45687857D01*
X-8422858Y-45139285D02*
X-7828572Y-45139285D01*
X-8148572Y-45505000D01*
X-8011429Y-45505000D01*
X-7920000Y-45550714D01*
X-7874286Y-45596428D01*
X-7828572Y-45687857D01*
X-7828572Y-45916428D01*
X-7874286Y-46007857D01*
X-7920000Y-46053571D01*
X-8011429Y-46099285D01*
X-8285715Y-46099285D01*
X-8377143Y-46053571D01*
X-8422858Y-46007857D01*
X-7280000Y-45550714D02*
X-7371429Y-45505000D01*
X-7417143Y-45459285D01*
X-7462858Y-45367857D01*
X-7462858Y-45322142D01*
X-7417143Y-45230714D01*
X-7371429Y-45185000D01*
X-7280000Y-45139285D01*
X-7097143Y-45139285D01*
X-7005715Y-45185000D01*
X-6960000Y-45230714D01*
X-6914286Y-45322142D01*
X-6914286Y-45367857D01*
X-6960000Y-45459285D01*
X-7005715Y-45505000D01*
X-7097143Y-45550714D01*
X-7280000Y-45550714D01*
X-7371429Y-45596428D01*
X-7417143Y-45642142D01*
X-7462858Y-45733571D01*
X-7462858Y-45916428D01*
X-7417143Y-46007857D01*
X-7371429Y-46053571D01*
X-7280000Y-46099285D01*
X-7097143Y-46099285D01*
X-7005715Y-46053571D01*
X-6960000Y-46007857D01*
X-6914286Y-45916428D01*
X-6914286Y-45733571D01*
X-6960000Y-45642142D01*
X-7005715Y-45596428D01*
X-7097143Y-45550714D01*
X-5360000Y-45459285D02*
X-5360000Y-46099285D01*
X-5588572Y-45093571D02*
X-5817143Y-45779285D01*
X-5222858Y-45779285D01*
X-4674286Y-45139285D02*
X-4582858Y-45139285D01*
X-4491429Y-45185000D01*
X-4445715Y-45230714D01*
X-4400000Y-45322142D01*
X-4354286Y-45505000D01*
X-4354286Y-45733571D01*
X-4400000Y-45916428D01*
X-4445715Y-46007857D01*
X-4491429Y-46053571D01*
X-4582858Y-46099285D01*
X-4674286Y-46099285D01*
X-4765715Y-46053571D01*
X-4811429Y-46007857D01*
X-4857143Y-45916428D01*
X-4902858Y-45733571D01*
X-4902858Y-45505000D01*
X-4857143Y-45322142D01*
X-4811429Y-45230714D01*
X-4765715Y-45185000D01*
X-4674286Y-45139285D01*
X-53085715Y-47689285D02*
X-53634286Y-47689285D01*
X-53360000Y-47689285D02*
X-53360000Y-46729285D01*
X-53451429Y-46866428D01*
X-53542858Y-46957857D01*
X-53634286Y-47003571D01*
X-51302858Y-46729285D02*
X-50708572Y-46729285D01*
X-51028572Y-47095000D01*
X-50891429Y-47095000D01*
X-50800000Y-47140714D01*
X-50754286Y-47186428D01*
X-50708572Y-47277857D01*
X-50708572Y-47506428D01*
X-50754286Y-47597857D01*
X-50800000Y-47643571D01*
X-50891429Y-47689285D01*
X-51165715Y-47689285D01*
X-51257143Y-47643571D01*
X-51302858Y-47597857D01*
X-48377143Y-46729285D02*
X-48834286Y-46729285D01*
X-48880000Y-47186428D01*
X-48834286Y-47140714D01*
X-48742858Y-47095000D01*
X-48514286Y-47095000D01*
X-48422858Y-47140714D01*
X-48377143Y-47186428D01*
X-48331429Y-47277857D01*
X-48331429Y-47506428D01*
X-48377143Y-47597857D01*
X-48422858Y-47643571D01*
X-48514286Y-47689285D01*
X-48742858Y-47689285D01*
X-48834286Y-47643571D01*
X-48880000Y-47597857D01*
X-46548572Y-46729285D02*
X-45908572Y-46729285D01*
X-46320000Y-47689285D01*
X-44034286Y-47689285D02*
X-43851429Y-47689285D01*
X-43760000Y-47643571D01*
X-43714286Y-47597857D01*
X-43622858Y-47460714D01*
X-43577143Y-47277857D01*
X-43577143Y-46912142D01*
X-43622858Y-46820714D01*
X-43668572Y-46775000D01*
X-43760000Y-46729285D01*
X-43942858Y-46729285D01*
X-44034286Y-46775000D01*
X-44080000Y-46820714D01*
X-44125715Y-46912142D01*
X-44125715Y-47140714D01*
X-44080000Y-47232142D01*
X-44034286Y-47277857D01*
X-43942858Y-47323571D01*
X-43760000Y-47323571D01*
X-43668572Y-47277857D01*
X-43622858Y-47232142D01*
X-43577143Y-47140714D01*
X-41200000Y-47689285D02*
X-41748572Y-47689285D01*
X-41474286Y-47689285D02*
X-41474286Y-46729285D01*
X-41565715Y-46866428D01*
X-41657143Y-46957857D01*
X-41748572Y-47003571D01*
X-40285715Y-47689285D02*
X-40834286Y-47689285D01*
X-40560000Y-47689285D02*
X-40560000Y-46729285D01*
X-40651429Y-46866428D01*
X-40742858Y-46957857D01*
X-40834286Y-47003571D01*
X-38640000Y-47689285D02*
X-39188572Y-47689285D01*
X-38914286Y-47689285D02*
X-38914286Y-46729285D01*
X-39005715Y-46866428D01*
X-39097143Y-46957857D01*
X-39188572Y-47003571D01*
X-38320000Y-46729285D02*
X-37725715Y-46729285D01*
X-38045715Y-47095000D01*
X-37908572Y-47095000D01*
X-37817143Y-47140714D01*
X-37771429Y-47186428D01*
X-37725715Y-47277857D01*
X-37725715Y-47506428D01*
X-37771429Y-47597857D01*
X-37817143Y-47643571D01*
X-37908572Y-47689285D01*
X-38182858Y-47689285D01*
X-38274286Y-47643571D01*
X-38320000Y-47597857D01*
X-36080000Y-47689285D02*
X-36628572Y-47689285D01*
X-36354286Y-47689285D02*
X-36354286Y-46729285D01*
X-36445715Y-46866428D01*
X-36537143Y-46957857D01*
X-36628572Y-47003571D01*
X-35211429Y-46729285D02*
X-35668572Y-46729285D01*
X-35714286Y-47186428D01*
X-35668572Y-47140714D01*
X-35577143Y-47095000D01*
X-35348572Y-47095000D01*
X-35257143Y-47140714D01*
X-35211429Y-47186428D01*
X-35165715Y-47277857D01*
X-35165715Y-47506428D01*
X-35211429Y-47597857D01*
X-35257143Y-47643571D01*
X-35348572Y-47689285D01*
X-35577143Y-47689285D01*
X-35668572Y-47643571D01*
X-35714286Y-47597857D01*
X-33520000Y-47689285D02*
X-34068572Y-47689285D01*
X-33794286Y-47689285D02*
X-33794286Y-46729285D01*
X-33885715Y-46866428D01*
X-33977143Y-46957857D01*
X-34068572Y-47003571D01*
X-33200000Y-46729285D02*
X-32560000Y-46729285D01*
X-32971429Y-47689285D01*
X-30960000Y-47689285D02*
X-31508572Y-47689285D01*
X-31234286Y-47689285D02*
X-31234286Y-46729285D01*
X-31325715Y-46866428D01*
X-31417143Y-46957857D01*
X-31508572Y-47003571D01*
X-30502858Y-47689285D02*
X-30320000Y-47689285D01*
X-30228572Y-47643571D01*
X-30182858Y-47597857D01*
X-30091429Y-47460714D01*
X-30045715Y-47277857D01*
X-30045715Y-46912142D01*
X-30091429Y-46820714D01*
X-30137143Y-46775000D01*
X-30228572Y-46729285D01*
X-30411429Y-46729285D01*
X-30502858Y-46775000D01*
X-30548572Y-46820714D01*
X-30594286Y-46912142D01*
X-30594286Y-47140714D01*
X-30548572Y-47232142D01*
X-30502858Y-47277857D01*
X-30411429Y-47323571D01*
X-30228572Y-47323571D01*
X-30137143Y-47277857D01*
X-30091429Y-47232142D01*
X-30045715Y-47140714D01*
X-28948572Y-46820714D02*
X-28902858Y-46775000D01*
X-28811429Y-46729285D01*
X-28582858Y-46729285D01*
X-28491429Y-46775000D01*
X-28445715Y-46820714D01*
X-28400000Y-46912142D01*
X-28400000Y-47003571D01*
X-28445715Y-47140714D01*
X-28994286Y-47689285D01*
X-28400000Y-47689285D01*
X-27485715Y-47689285D02*
X-28034286Y-47689285D01*
X-27760000Y-47689285D02*
X-27760000Y-46729285D01*
X-27851429Y-46866428D01*
X-27942858Y-46957857D01*
X-28034286Y-47003571D01*
X-26388572Y-46820714D02*
X-26342858Y-46775000D01*
X-26251429Y-46729285D01*
X-26022858Y-46729285D01*
X-25931429Y-46775000D01*
X-25885715Y-46820714D01*
X-25840000Y-46912142D01*
X-25840000Y-47003571D01*
X-25885715Y-47140714D01*
X-26434286Y-47689285D01*
X-25840000Y-47689285D01*
X-25520000Y-46729285D02*
X-24925715Y-46729285D01*
X-25245715Y-47095000D01*
X-25108572Y-47095000D01*
X-25017143Y-47140714D01*
X-24971429Y-47186428D01*
X-24925715Y-47277857D01*
X-24925715Y-47506428D01*
X-24971429Y-47597857D01*
X-25017143Y-47643571D01*
X-25108572Y-47689285D01*
X-25382858Y-47689285D01*
X-25474286Y-47643571D01*
X-25520000Y-47597857D01*
X-23828572Y-46820714D02*
X-23782858Y-46775000D01*
X-23691429Y-46729285D01*
X-23462858Y-46729285D01*
X-23371429Y-46775000D01*
X-23325715Y-46820714D01*
X-23280000Y-46912142D01*
X-23280000Y-47003571D01*
X-23325715Y-47140714D01*
X-23874286Y-47689285D01*
X-23280000Y-47689285D01*
X-22411429Y-46729285D02*
X-22868572Y-46729285D01*
X-22914286Y-47186428D01*
X-22868572Y-47140714D01*
X-22777143Y-47095000D01*
X-22548572Y-47095000D01*
X-22457143Y-47140714D01*
X-22411429Y-47186428D01*
X-22365715Y-47277857D01*
X-22365715Y-47506428D01*
X-22411429Y-47597857D01*
X-22457143Y-47643571D01*
X-22548572Y-47689285D01*
X-22777143Y-47689285D01*
X-22868572Y-47643571D01*
X-22914286Y-47597857D01*
X-21268572Y-46820714D02*
X-21222858Y-46775000D01*
X-21131429Y-46729285D01*
X-20902858Y-46729285D01*
X-20811429Y-46775000D01*
X-20765715Y-46820714D01*
X-20720000Y-46912142D01*
X-20720000Y-47003571D01*
X-20765715Y-47140714D01*
X-21314286Y-47689285D01*
X-20720000Y-47689285D01*
X-20400000Y-46729285D02*
X-19760000Y-46729285D01*
X-20171429Y-47689285D01*
X-18708572Y-46820714D02*
X-18662858Y-46775000D01*
X-18571429Y-46729285D01*
X-18342858Y-46729285D01*
X-18251429Y-46775000D01*
X-18205715Y-46820714D01*
X-18160000Y-46912142D01*
X-18160000Y-47003571D01*
X-18205715Y-47140714D01*
X-18754286Y-47689285D01*
X-18160000Y-47689285D01*
X-17702858Y-47689285D02*
X-17520000Y-47689285D01*
X-17428572Y-47643571D01*
X-17382858Y-47597857D01*
X-17291429Y-47460714D01*
X-17245715Y-47277857D01*
X-17245715Y-46912142D01*
X-17291429Y-46820714D01*
X-17337143Y-46775000D01*
X-17428572Y-46729285D01*
X-17611429Y-46729285D01*
X-17702858Y-46775000D01*
X-17748572Y-46820714D01*
X-17794286Y-46912142D01*
X-17794286Y-47140714D01*
X-17748572Y-47232142D01*
X-17702858Y-47277857D01*
X-17611429Y-47323571D01*
X-17428572Y-47323571D01*
X-17337143Y-47277857D01*
X-17291429Y-47232142D01*
X-17245715Y-47140714D01*
X-16194286Y-46729285D02*
X-15600000Y-46729285D01*
X-15920000Y-47095000D01*
X-15782858Y-47095000D01*
X-15691429Y-47140714D01*
X-15645715Y-47186428D01*
X-15600000Y-47277857D01*
X-15600000Y-47506428D01*
X-15645715Y-47597857D01*
X-15691429Y-47643571D01*
X-15782858Y-47689285D01*
X-16057143Y-47689285D01*
X-16148572Y-47643571D01*
X-16194286Y-47597857D01*
X-14685715Y-47689285D02*
X-15234286Y-47689285D01*
X-14960000Y-47689285D02*
X-14960000Y-46729285D01*
X-15051429Y-46866428D01*
X-15142858Y-46957857D01*
X-15234286Y-47003571D01*
X-13634286Y-46729285D02*
X-13040000Y-46729285D01*
X-13360000Y-47095000D01*
X-13222858Y-47095000D01*
X-13131429Y-47140714D01*
X-13085715Y-47186428D01*
X-13040000Y-47277857D01*
X-13040000Y-47506428D01*
X-13085715Y-47597857D01*
X-13131429Y-47643571D01*
X-13222858Y-47689285D01*
X-13497143Y-47689285D01*
X-13588572Y-47643571D01*
X-13634286Y-47597857D01*
X-12720000Y-46729285D02*
X-12125715Y-46729285D01*
X-12445715Y-47095000D01*
X-12308572Y-47095000D01*
X-12217143Y-47140714D01*
X-12171429Y-47186428D01*
X-12125715Y-47277857D01*
X-12125715Y-47506428D01*
X-12171429Y-47597857D01*
X-12217143Y-47643571D01*
X-12308572Y-47689285D01*
X-12582858Y-47689285D01*
X-12674286Y-47643571D01*
X-12720000Y-47597857D01*
X-11074286Y-46729285D02*
X-10480000Y-46729285D01*
X-10800000Y-47095000D01*
X-10662858Y-47095000D01*
X-10571429Y-47140714D01*
X-10525715Y-47186428D01*
X-10480000Y-47277857D01*
X-10480000Y-47506428D01*
X-10525715Y-47597857D01*
X-10571429Y-47643571D01*
X-10662858Y-47689285D01*
X-10937143Y-47689285D01*
X-11028572Y-47643571D01*
X-11074286Y-47597857D01*
X-9611429Y-46729285D02*
X-10068572Y-46729285D01*
X-10114286Y-47186428D01*
X-10068572Y-47140714D01*
X-9977143Y-47095000D01*
X-9748572Y-47095000D01*
X-9657143Y-47140714D01*
X-9611429Y-47186428D01*
X-9565715Y-47277857D01*
X-9565715Y-47506428D01*
X-9611429Y-47597857D01*
X-9657143Y-47643571D01*
X-9748572Y-47689285D01*
X-9977143Y-47689285D01*
X-10068572Y-47643571D01*
X-10114286Y-47597857D01*
X-8514286Y-46729285D02*
X-7920000Y-46729285D01*
X-8240000Y-47095000D01*
X-8102858Y-47095000D01*
X-8011429Y-47140714D01*
X-7965715Y-47186428D01*
X-7920000Y-47277857D01*
X-7920000Y-47506428D01*
X-7965715Y-47597857D01*
X-8011429Y-47643571D01*
X-8102858Y-47689285D01*
X-8377143Y-47689285D01*
X-8468572Y-47643571D01*
X-8514286Y-47597857D01*
X-7600000Y-46729285D02*
X-6960000Y-46729285D01*
X-7371429Y-47689285D01*
X-5954286Y-46729285D02*
X-5360000Y-46729285D01*
X-5680000Y-47095000D01*
X-5542858Y-47095000D01*
X-5451429Y-47140714D01*
X-5405715Y-47186428D01*
X-5360000Y-47277857D01*
X-5360000Y-47506428D01*
X-5405715Y-47597857D01*
X-5451429Y-47643571D01*
X-5542858Y-47689285D01*
X-5817143Y-47689285D01*
X-5908572Y-47643571D01*
X-5954286Y-47597857D01*
X-4902858Y-47689285D02*
X-4720000Y-47689285D01*
X-4628572Y-47643571D01*
X-4582858Y-47597857D01*
X-4491429Y-47460714D01*
X-4445715Y-47277857D01*
X-4445715Y-46912142D01*
X-4491429Y-46820714D01*
X-4537143Y-46775000D01*
X-4628572Y-46729285D01*
X-4811429Y-46729285D01*
X-4902858Y-46775000D01*
X-4948572Y-46820714D01*
X-4994286Y-46912142D01*
X-4994286Y-47140714D01*
X-4948572Y-47232142D01*
X-4902858Y-47277857D01*
X-4811429Y-47323571D01*
X-4628572Y-47323571D01*
X-4537143Y-47277857D01*
X-4491429Y-47232142D01*
X-4445715Y-47140714D01*
D12*
X-39161905Y-10242857D02*
X-37638096Y-10242857D01*
X-38400000Y-11004761D02*
X-38400000Y-9480952D01*
X-55571905Y-10521428D02*
X-55571905Y-11140476D01*
X-54952858Y-11202380D01*
X-55014762Y-11140476D01*
X-55076667Y-11016666D01*
X-55076667Y-10707142D01*
X-55014762Y-10583333D01*
X-54952858Y-10521428D01*
X-54829048Y-10459523D01*
X-54519524Y-10459523D01*
X-54395715Y-10521428D01*
X-54333810Y-10583333D01*
X-54271905Y-10707142D01*
X-54271905Y-11016666D01*
X-54333810Y-11140476D01*
X-54395715Y-11202380D01*
X-55571905Y-10088095D02*
X-54271905Y-9654761D01*
X-55571905Y-9221428D01*
X-55571905Y-7550000D02*
X-55571905Y-7302380D01*
X-55510000Y-7178571D01*
X-55386191Y-7054761D01*
X-55138572Y-6992857D01*
X-54705239Y-6992857D01*
X-54457620Y-7054761D01*
X-54333810Y-7178571D01*
X-54271905Y-7302380D01*
X-54271905Y-7550000D01*
X-54333810Y-7673809D01*
X-54457620Y-7797619D01*
X-54705239Y-7859523D01*
X-55138572Y-7859523D01*
X-55386191Y-7797619D01*
X-55510000Y-7673809D01*
X-55571905Y-7550000D01*
X-55138572Y-5878571D02*
X-54271905Y-5878571D01*
X-55138572Y-6435714D02*
X-54457620Y-6435714D01*
X-54333810Y-6373809D01*
X-54271905Y-6250000D01*
X-54271905Y-6064285D01*
X-54333810Y-5940476D01*
X-54395715Y-5878571D01*
X-55138572Y-5445238D02*
X-55138572Y-4950000D01*
X-55571905Y-5259523D02*
X-54457620Y-5259523D01*
X-54333810Y-5197619D01*
X-54271905Y-5073809D01*
X-54271905Y-4950000D01*
X-53776667Y-3154761D02*
X-53838572Y-3216666D01*
X-54024286Y-3340476D01*
X-54148096Y-3402380D01*
X-54333810Y-3464285D01*
X-54643334Y-3526190D01*
X-54890953Y-3526190D01*
X-55200477Y-3464285D01*
X-55386191Y-3402380D01*
X-55510000Y-3340476D01*
X-55695715Y-3216666D01*
X-55757620Y-3154761D01*
X-55448096Y-2721428D02*
X-55510000Y-2659523D01*
X-55571905Y-2535714D01*
X-55571905Y-2226190D01*
X-55510000Y-2102380D01*
X-55448096Y-2040476D01*
X-55324286Y-1978571D01*
X-55200477Y-1978571D01*
X-55014762Y-2040476D01*
X-54271905Y-2783333D01*
X-54271905Y-1978571D01*
X-54643334Y-1483333D02*
X-54643334Y-864285D01*
X-54271905Y-1607142D02*
X-55571905Y-1173809D01*
X-54271905Y-740476D01*
X-53776667Y-430952D02*
X-53838572Y-369047D01*
X-54024286Y-245238D01*
X-54148096Y-183333D01*
X-54333810Y-121428D01*
X-54643334Y-59523D01*
X-54890953Y-59523D01*
X-55200477Y-121428D01*
X-55386191Y-183333D01*
X-55510000Y-245238D01*
X-55695715Y-369047D01*
X-55757620Y-430952D01*
X-29344762Y-8609523D02*
X-29406667Y-8733333D01*
X-29468572Y-8795238D01*
X-29592381Y-8857142D01*
X-29654286Y-8857142D01*
X-29778096Y-8795238D01*
X-29840000Y-8733333D01*
X-29901905Y-8609523D01*
X-29901905Y-8361904D01*
X-29840000Y-8238095D01*
X-29778096Y-8176190D01*
X-29654286Y-8114285D01*
X-29592381Y-8114285D01*
X-29468572Y-8176190D01*
X-29406667Y-8238095D01*
X-29344762Y-8361904D01*
X-29344762Y-8609523D01*
X-29282858Y-8733333D01*
X-29220953Y-8795238D01*
X-29097143Y-8857142D01*
X-28849524Y-8857142D01*
X-28725715Y-8795238D01*
X-28663810Y-8733333D01*
X-28601905Y-8609523D01*
X-28601905Y-8361904D01*
X-28663810Y-8238095D01*
X-28725715Y-8176190D01*
X-28849524Y-8114285D01*
X-29097143Y-8114285D01*
X-29220953Y-8176190D01*
X-29282858Y-8238095D01*
X-29344762Y-8361904D01*
X-29097143Y-7557142D02*
X-29097143Y-6566666D01*
X-29901905Y-6071428D02*
X-29901905Y-5266666D01*
X-29406667Y-5700000D01*
X-29406667Y-5514285D01*
X-29344762Y-5390476D01*
X-29282858Y-5328571D01*
X-29159048Y-5266666D01*
X-28849524Y-5266666D01*
X-28725715Y-5328571D01*
X-28663810Y-5390476D01*
X-28601905Y-5514285D01*
X-28601905Y-5885714D01*
X-28663810Y-6009523D01*
X-28725715Y-6071428D01*
X-29901905Y-4152380D02*
X-29901905Y-4400000D01*
X-29840000Y-4523809D01*
X-29778096Y-4585714D01*
X-29592381Y-4709523D01*
X-29344762Y-4771428D01*
X-28849524Y-4771428D01*
X-28725715Y-4709523D01*
X-28663810Y-4647619D01*
X-28601905Y-4523809D01*
X-28601905Y-4276190D01*
X-28663810Y-4152380D01*
X-28725715Y-4090476D01*
X-28849524Y-4028571D01*
X-29159048Y-4028571D01*
X-29282858Y-4090476D01*
X-29344762Y-4152380D01*
X-29406667Y-4276190D01*
X-29406667Y-4523809D01*
X-29344762Y-4647619D01*
X-29282858Y-4709523D01*
X-29159048Y-4771428D01*
X-29901905Y-3657142D02*
X-28601905Y-3223809D01*
X-29901905Y-2790476D01*
X-28601905Y-1366666D02*
X-29901905Y-1366666D01*
X-28601905Y-747619D02*
X-29901905Y-747619D01*
X-28601905Y-4761D01*
X-29901905Y-4761D01*
D11*
X-56420239Y-34385833D02*
X-56372620Y-34481071D01*
X-56372620Y-34671547D01*
X-56420239Y-34766785D01*
X-56467858Y-34814404D01*
X-56563096Y-34862023D01*
X-56848810Y-34862023D01*
X-56944048Y-34814404D01*
X-56991667Y-34766785D01*
X-57039286Y-34671547D01*
X-57039286Y-34481071D01*
X-56991667Y-34385833D01*
X-56372620Y-33814404D02*
X-56420239Y-33909642D01*
X-56467858Y-33957261D01*
X-56563096Y-34004880D01*
X-56848810Y-34004880D01*
X-56944048Y-33957261D01*
X-56991667Y-33909642D01*
X-57039286Y-33814404D01*
X-57039286Y-33671547D01*
X-56991667Y-33576309D01*
X-56944048Y-33528690D01*
X-56848810Y-33481071D01*
X-56563096Y-33481071D01*
X-56467858Y-33528690D01*
X-56420239Y-33576309D01*
X-56372620Y-33671547D01*
X-56372620Y-33814404D01*
X-56372620Y-33052500D02*
X-57039286Y-33052500D01*
X-56848810Y-33052500D02*
X-56944048Y-33004880D01*
X-56991667Y-32957261D01*
X-57039286Y-32862023D01*
X-57039286Y-32766785D01*
X-56372620Y-32433452D02*
X-57039286Y-32433452D01*
X-56848810Y-32433452D02*
X-56944048Y-32385833D01*
X-56991667Y-32338214D01*
X-57039286Y-32242976D01*
X-57039286Y-32147738D01*
X-56420239Y-31433452D02*
X-56372620Y-31528690D01*
X-56372620Y-31719166D01*
X-56420239Y-31814404D01*
X-56515477Y-31862023D01*
X-56896429Y-31862023D01*
X-56991667Y-31814404D01*
X-57039286Y-31719166D01*
X-57039286Y-31528690D01*
X-56991667Y-31433452D01*
X-56896429Y-31385833D01*
X-56801191Y-31385833D01*
X-56705953Y-31862023D01*
X-56420239Y-31004880D02*
X-56372620Y-30909642D01*
X-56372620Y-30719166D01*
X-56420239Y-30623928D01*
X-56515477Y-30576309D01*
X-56563096Y-30576309D01*
X-56658334Y-30623928D01*
X-56705953Y-30719166D01*
X-56705953Y-30862023D01*
X-56753572Y-30957261D01*
X-56848810Y-31004880D01*
X-56896429Y-31004880D01*
X-56991667Y-30957261D01*
X-57039286Y-30862023D01*
X-57039286Y-30719166D01*
X-56991667Y-30623928D01*
X-57039286Y-30147738D02*
X-56039286Y-30147738D01*
X-56991667Y-30147738D02*
X-57039286Y-30052500D01*
X-57039286Y-29862023D01*
X-56991667Y-29766785D01*
X-56944048Y-29719166D01*
X-56848810Y-29671547D01*
X-56563096Y-29671547D01*
X-56467858Y-29719166D01*
X-56420239Y-29766785D01*
X-56372620Y-29862023D01*
X-56372620Y-30052500D01*
X-56420239Y-30147738D01*
X-56372620Y-29100119D02*
X-56420239Y-29195357D01*
X-56467858Y-29242976D01*
X-56563096Y-29290595D01*
X-56848810Y-29290595D01*
X-56944048Y-29242976D01*
X-56991667Y-29195357D01*
X-57039286Y-29100119D01*
X-57039286Y-28957261D01*
X-56991667Y-28862023D01*
X-56944048Y-28814404D01*
X-56848810Y-28766785D01*
X-56563096Y-28766785D01*
X-56467858Y-28814404D01*
X-56420239Y-28862023D01*
X-56372620Y-28957261D01*
X-56372620Y-29100119D01*
X-57039286Y-28338214D02*
X-56372620Y-28338214D01*
X-56944048Y-28338214D02*
X-56991667Y-28290595D01*
X-57039286Y-28195357D01*
X-57039286Y-28052500D01*
X-56991667Y-27957261D01*
X-56896429Y-27909642D01*
X-56372620Y-27909642D01*
X-56372620Y-27004880D02*
X-57372620Y-27004880D01*
X-56420239Y-27004880D02*
X-56372620Y-27100119D01*
X-56372620Y-27290595D01*
X-56420239Y-27385833D01*
X-56467858Y-27433452D01*
X-56563096Y-27481071D01*
X-56848810Y-27481071D01*
X-56944048Y-27433452D01*
X-56991667Y-27385833D01*
X-57039286Y-27290595D01*
X-57039286Y-27100119D01*
X-56991667Y-27004880D01*
X-56372620Y-26528690D02*
X-57039286Y-26528690D01*
X-57372620Y-26528690D02*
X-57325000Y-26576309D01*
X-57277381Y-26528690D01*
X-57325000Y-26481071D01*
X-57372620Y-26528690D01*
X-57277381Y-26528690D01*
X-57039286Y-26052500D02*
X-56372620Y-26052500D01*
X-56944048Y-26052500D02*
X-56991667Y-26004880D01*
X-57039286Y-25909642D01*
X-57039286Y-25766785D01*
X-56991667Y-25671547D01*
X-56896429Y-25623928D01*
X-56372620Y-25623928D01*
X-57039286Y-24719166D02*
X-56229762Y-24719166D01*
X-56134524Y-24766785D01*
X-56086905Y-24814404D01*
X-56039286Y-24909642D01*
X-56039286Y-25052500D01*
X-56086905Y-25147738D01*
X-56420239Y-24719166D02*
X-56372620Y-24814404D01*
X-56372620Y-25004880D01*
X-56420239Y-25100119D01*
X-56467858Y-25147738D01*
X-56563096Y-25195357D01*
X-56848810Y-25195357D01*
X-56944048Y-25147738D01*
X-56991667Y-25100119D01*
X-57039286Y-25004880D01*
X-57039286Y-24814404D01*
X-56991667Y-24719166D01*
X-56372620Y-23481071D02*
X-57372620Y-23481071D01*
X-57372620Y-23100119D01*
X-57325000Y-23004880D01*
X-57277381Y-22957261D01*
X-57182143Y-22909642D01*
X-57039286Y-22909642D01*
X-56944048Y-22957261D01*
X-56896429Y-23004880D01*
X-56848810Y-23100119D01*
X-56848810Y-23481071D01*
X-56372620Y-22481071D02*
X-57039286Y-22481071D01*
X-57372620Y-22481071D02*
X-57325000Y-22528690D01*
X-57277381Y-22481071D01*
X-57325000Y-22433452D01*
X-57372620Y-22481071D01*
X-57277381Y-22481071D01*
X-57039286Y-22004880D02*
X-56372620Y-22004880D01*
X-56944048Y-22004880D02*
X-56991667Y-21957261D01*
X-57039286Y-21862023D01*
X-57039286Y-21719166D01*
X-56991667Y-21623928D01*
X-56896429Y-21576309D01*
X-56372620Y-21576309D01*
X-56420239Y-21147738D02*
X-56372620Y-21052500D01*
X-56372620Y-20862023D01*
X-56420239Y-20766785D01*
X-56515477Y-20719166D01*
X-56563096Y-20719166D01*
X-56658334Y-20766785D01*
X-56705953Y-20862023D01*
X-56705953Y-21004880D01*
X-56753572Y-21100119D01*
X-56848810Y-21147738D01*
X-56896429Y-21147738D01*
X-56991667Y-21100119D01*
X-57039286Y-21004880D01*
X-57039286Y-20862023D01*
X-56991667Y-20766785D01*
X-56372620Y-19385833D02*
X-56420239Y-19481071D01*
X-56467858Y-19528690D01*
X-56563096Y-19576309D01*
X-56848810Y-19576309D01*
X-56944048Y-19528690D01*
X-56991667Y-19481071D01*
X-57039286Y-19385833D01*
X-57039286Y-19242976D01*
X-56991667Y-19147738D01*
X-56944048Y-19100119D01*
X-56848810Y-19052500D01*
X-56563096Y-19052500D01*
X-56467858Y-19100119D01*
X-56420239Y-19147738D01*
X-56372620Y-19242976D01*
X-56372620Y-19385833D01*
X-57039286Y-18623928D02*
X-56372620Y-18623928D01*
X-56944048Y-18623928D02*
X-56991667Y-18576309D01*
X-57039286Y-18481071D01*
X-57039286Y-18338214D01*
X-56991667Y-18242976D01*
X-56896429Y-18195357D01*
X-56372620Y-18195357D01*
X-56372620Y-16957261D02*
X-57039286Y-16957261D01*
X-56848810Y-16957261D02*
X-56944048Y-16909642D01*
X-56991667Y-16862023D01*
X-57039286Y-16766785D01*
X-57039286Y-16671547D01*
X-57039286Y-16338214D02*
X-56039286Y-16338214D01*
X-56991667Y-16338214D02*
X-57039286Y-16242976D01*
X-57039286Y-16052500D01*
X-56991667Y-15957261D01*
X-56944048Y-15909642D01*
X-56848810Y-15862023D01*
X-56563096Y-15862023D01*
X-56467858Y-15909642D01*
X-56420239Y-15957261D01*
X-56372620Y-16052500D01*
X-56372620Y-16242976D01*
X-56420239Y-16338214D01*
X-56372620Y-15433452D02*
X-57039286Y-15433452D01*
X-57372620Y-15433452D02*
X-57325000Y-15481071D01*
X-57277381Y-15433452D01*
X-57325000Y-15385833D01*
X-57372620Y-15433452D01*
X-57277381Y-15433452D01*
X-54341667Y-34528690D02*
X-54389286Y-34576309D01*
X-54532143Y-34671547D01*
X-54627381Y-34719166D01*
X-54770239Y-34766785D01*
X-55008334Y-34814404D01*
X-55198810Y-34814404D01*
X-55436905Y-34766785D01*
X-55579762Y-34719166D01*
X-55675000Y-34671547D01*
X-55817858Y-34576309D01*
X-55865477Y-34528690D01*
X-54722620Y-33576309D02*
X-55198810Y-33909642D01*
X-54722620Y-34147738D02*
X-55722620Y-34147738D01*
X-55722620Y-33766785D01*
X-55675000Y-33671547D01*
X-55627381Y-33623928D01*
X-55532143Y-33576309D01*
X-55389286Y-33576309D01*
X-55294048Y-33623928D01*
X-55246429Y-33671547D01*
X-55198810Y-33766785D01*
X-55198810Y-34147738D01*
X-54722620Y-33147738D02*
X-55722620Y-33147738D01*
X-55722620Y-32766785D01*
X-55675000Y-32671547D01*
X-55627381Y-32623928D01*
X-55532143Y-32576309D01*
X-55389286Y-32576309D01*
X-55294048Y-32623928D01*
X-55246429Y-32671547D01*
X-55198810Y-32766785D01*
X-55198810Y-33147738D01*
X-54722620Y-32147738D02*
X-55722620Y-32147738D01*
X-54722620Y-30909642D02*
X-55722620Y-30909642D01*
X-55722620Y-30528690D01*
X-55675000Y-30433452D01*
X-55627381Y-30385833D01*
X-55532143Y-30338214D01*
X-55389286Y-30338214D01*
X-55294048Y-30385833D01*
X-55246429Y-30433452D01*
X-55198810Y-30528690D01*
X-55198810Y-30909642D01*
X-54722620Y-29909642D02*
X-55389286Y-29909642D01*
X-55722620Y-29909642D02*
X-55675000Y-29957261D01*
X-55627381Y-29909642D01*
X-55675000Y-29862023D01*
X-55722620Y-29909642D01*
X-55627381Y-29909642D01*
X-55389286Y-29433452D02*
X-54722620Y-29433452D01*
X-55294048Y-29433452D02*
X-55341667Y-29385833D01*
X-55389286Y-29290595D01*
X-55389286Y-29147738D01*
X-55341667Y-29052500D01*
X-55246429Y-29004880D01*
X-54722620Y-29004880D01*
X-55389286Y-27766785D02*
X-54722620Y-27766785D01*
X-55294048Y-27766785D02*
X-55341667Y-27719166D01*
X-55389286Y-27623928D01*
X-55389286Y-27481071D01*
X-55341667Y-27385833D01*
X-55246429Y-27338214D01*
X-54722620Y-27338214D01*
X-55389286Y-26433452D02*
X-54722620Y-26433452D01*
X-55389286Y-26862023D02*
X-54865477Y-26862023D01*
X-54770239Y-26814404D01*
X-54722620Y-26719166D01*
X-54722620Y-26576309D01*
X-54770239Y-26481071D01*
X-54817858Y-26433452D01*
X-54722620Y-25957261D02*
X-55389286Y-25957261D01*
X-55294048Y-25957261D02*
X-55341667Y-25909642D01*
X-55389286Y-25814404D01*
X-55389286Y-25671547D01*
X-55341667Y-25576309D01*
X-55246429Y-25528690D01*
X-54722620Y-25528690D01*
X-55246429Y-25528690D02*
X-55341667Y-25481071D01*
X-55389286Y-25385833D01*
X-55389286Y-25242976D01*
X-55341667Y-25147738D01*
X-55246429Y-25100119D01*
X-54722620Y-25100119D01*
X-54722620Y-24623928D02*
X-55722620Y-24623928D01*
X-55341667Y-24623928D02*
X-55389286Y-24528690D01*
X-55389286Y-24338214D01*
X-55341667Y-24242976D01*
X-55294048Y-24195357D01*
X-55198810Y-24147738D01*
X-54913096Y-24147738D01*
X-54817858Y-24195357D01*
X-54770239Y-24242976D01*
X-54722620Y-24338214D01*
X-54722620Y-24528690D01*
X-54770239Y-24623928D01*
X-54770239Y-23338214D02*
X-54722620Y-23433452D01*
X-54722620Y-23623928D01*
X-54770239Y-23719166D01*
X-54865477Y-23766785D01*
X-55246429Y-23766785D01*
X-55341667Y-23719166D01*
X-55389286Y-23623928D01*
X-55389286Y-23433452D01*
X-55341667Y-23338214D01*
X-55246429Y-23290595D01*
X-55151191Y-23290595D01*
X-55055953Y-23766785D01*
X-54722620Y-22862023D02*
X-55389286Y-22862023D01*
X-55198810Y-22862023D02*
X-55294048Y-22814404D01*
X-55341667Y-22766785D01*
X-55389286Y-22671547D01*
X-55389286Y-22576309D01*
X-54770239Y-22290595D02*
X-54722620Y-22195357D01*
X-54722620Y-22004880D01*
X-54770239Y-21909642D01*
X-54865477Y-21862023D01*
X-54913096Y-21862023D01*
X-55008334Y-21909642D01*
X-55055953Y-22004880D01*
X-55055953Y-22147738D01*
X-55103572Y-22242976D01*
X-55198810Y-22290595D01*
X-55246429Y-22290595D01*
X-55341667Y-22242976D01*
X-55389286Y-22147738D01*
X-55389286Y-22004880D01*
X-55341667Y-21909642D01*
X-54341667Y-21528690D02*
X-54389286Y-21481071D01*
X-54532143Y-21385833D01*
X-54627381Y-21338214D01*
X-54770239Y-21290595D01*
X-55008334Y-21242976D01*
X-55198810Y-21242976D01*
X-55436905Y-21290595D01*
X-55579762Y-21338214D01*
X-55675000Y-21385833D01*
X-55817858Y-21481071D01*
X-55865477Y-21528690D01*
X-61130953Y-42900000D02*
X-61183334Y-43000000D01*
X-61235715Y-43050000D01*
X-61340477Y-43100000D01*
X-61392858Y-43100000D01*
X-61497620Y-43050000D01*
X-61550000Y-43000000D01*
X-61602381Y-42900000D01*
X-61602381Y-42700000D01*
X-61550000Y-42600000D01*
X-61497620Y-42550000D01*
X-61392858Y-42500000D01*
X-61340477Y-42500000D01*
X-61235715Y-42550000D01*
X-61183334Y-42600000D01*
X-61130953Y-42700000D01*
X-61130953Y-42900000D01*
X-61078572Y-43000000D01*
X-61026191Y-43050000D01*
X-60921429Y-43100000D01*
X-60711905Y-43100000D01*
X-60607143Y-43050000D01*
X-60554762Y-43000000D01*
X-60502381Y-42900000D01*
X-60502381Y-42700000D01*
X-60554762Y-42600000D01*
X-60607143Y-42550000D01*
X-60711905Y-42500000D01*
X-60921429Y-42500000D01*
X-61026191Y-42550000D01*
X-61078572Y-42600000D01*
X-61130953Y-42700000D01*
X-60502381Y-39900000D02*
X-60502381Y-40500000D01*
X-60502381Y-40200000D02*
X-61602381Y-40200000D01*
X-61445239Y-40300000D01*
X-61340477Y-40400000D01*
X-61288096Y-40500000D01*
X-61602381Y-39250000D02*
X-61602381Y-39150000D01*
X-61550000Y-39050000D01*
X-61497620Y-39000000D01*
X-61392858Y-38950000D01*
X-61183334Y-38900000D01*
X-60921429Y-38900000D01*
X-60711905Y-38950000D01*
X-60607143Y-39000000D01*
X-60554762Y-39050000D01*
X-60502381Y-39150000D01*
X-60502381Y-39250000D01*
X-60554762Y-39350000D01*
X-60607143Y-39400000D01*
X-60711905Y-39450000D01*
X-60921429Y-39500000D01*
X-61183334Y-39500000D01*
X-61392858Y-39450000D01*
X-61497620Y-39400000D01*
X-61550000Y-39350000D01*
X-61602381Y-39250000D01*
X-61602381Y-37750000D02*
X-61602381Y-37100000D01*
X-61183334Y-37450000D01*
X-61183334Y-37300000D01*
X-61130953Y-37200000D01*
X-61078572Y-37150000D01*
X-60973810Y-37100000D01*
X-60711905Y-37100000D01*
X-60607143Y-37150000D01*
X-60554762Y-37200000D01*
X-60502381Y-37300000D01*
X-60502381Y-37600000D01*
X-60554762Y-37700000D01*
X-60607143Y-37750000D01*
X-61602381Y-36200000D02*
X-61602381Y-36400000D01*
X-61550000Y-36500000D01*
X-61497620Y-36550000D01*
X-61340477Y-36650000D01*
X-61130953Y-36700000D01*
X-60711905Y-36700000D01*
X-60607143Y-36650000D01*
X-60554762Y-36600000D01*
X-60502381Y-36500000D01*
X-60502381Y-36300000D01*
X-60554762Y-36200000D01*
X-60607143Y-36150000D01*
X-60711905Y-36100000D01*
X-60973810Y-36100000D01*
X-61078572Y-36150000D01*
X-61130953Y-36200000D01*
X-61183334Y-36300000D01*
X-61183334Y-36500000D01*
X-61130953Y-36600000D01*
X-61078572Y-36650000D01*
X-60973810Y-36700000D01*
X-60502381Y-34300000D02*
X-60502381Y-34900000D01*
X-60502381Y-34600000D02*
X-61602381Y-34600000D01*
X-61445239Y-34700000D01*
X-61340477Y-34800000D01*
X-61288096Y-34900000D01*
X-60502381Y-33300000D02*
X-60502381Y-33900000D01*
X-60502381Y-33600000D02*
X-61602381Y-33600000D01*
X-61445239Y-33700000D01*
X-61340477Y-33800000D01*
X-61288096Y-33900000D01*
X-60502381Y-31500000D02*
X-60502381Y-32100000D01*
X-60502381Y-31800000D02*
X-61602381Y-31800000D01*
X-61445239Y-31900000D01*
X-61340477Y-32000000D01*
X-61288096Y-32100000D01*
X-61497620Y-31100000D02*
X-61550000Y-31050000D01*
X-61602381Y-30950000D01*
X-61602381Y-30700000D01*
X-61550000Y-30600000D01*
X-61497620Y-30550000D01*
X-61392858Y-30500000D01*
X-61288096Y-30500000D01*
X-61130953Y-30550000D01*
X-60502381Y-31150000D01*
X-60502381Y-30500000D01*
X-61602381Y-29350000D02*
X-61602381Y-28700000D01*
X-61183334Y-29050000D01*
X-61183334Y-28900000D01*
X-61130953Y-28800000D01*
X-61078572Y-28750000D01*
X-60973810Y-28700000D01*
X-60711905Y-28700000D01*
X-60607143Y-28750000D01*
X-60554762Y-28800000D01*
X-60502381Y-28900000D01*
X-60502381Y-29200000D01*
X-60554762Y-29300000D01*
X-60607143Y-29350000D01*
X-61602381Y-27750000D02*
X-61602381Y-28250000D01*
X-61078572Y-28300000D01*
X-61130953Y-28250000D01*
X-61183334Y-28150000D01*
X-61183334Y-27900000D01*
X-61130953Y-27800000D01*
X-61078572Y-27750000D01*
X-60973810Y-27700000D01*
X-60711905Y-27700000D01*
X-60607143Y-27750000D01*
X-60554762Y-27800000D01*
X-60502381Y-27900000D01*
X-60502381Y-28150000D01*
X-60554762Y-28250000D01*
X-60607143Y-28300000D01*
X-61602381Y-26550000D02*
X-61602381Y-25900000D01*
X-61183334Y-26250000D01*
X-61183334Y-26100000D01*
X-61130953Y-26000000D01*
X-61078572Y-25950000D01*
X-60973810Y-25900000D01*
X-60711905Y-25900000D01*
X-60607143Y-25950000D01*
X-60554762Y-26000000D01*
X-60502381Y-26100000D01*
X-60502381Y-26400000D01*
X-60554762Y-26500000D01*
X-60607143Y-26550000D01*
X-61130953Y-25300000D02*
X-61183334Y-25400000D01*
X-61235715Y-25450000D01*
X-61340477Y-25500000D01*
X-61392858Y-25500000D01*
X-61497620Y-25450000D01*
X-61550000Y-25400000D01*
X-61602381Y-25300000D01*
X-61602381Y-25100000D01*
X-61550000Y-25000000D01*
X-61497620Y-24950000D01*
X-61392858Y-24900000D01*
X-61340477Y-24900000D01*
X-61235715Y-24950000D01*
X-61183334Y-25000000D01*
X-61130953Y-25100000D01*
X-61130953Y-25300000D01*
X-61078572Y-25400000D01*
X-61026191Y-25450000D01*
X-60921429Y-25500000D01*
X-60711905Y-25500000D01*
X-60607143Y-25450000D01*
X-60554762Y-25400000D01*
X-60502381Y-25300000D01*
X-60502381Y-25100000D01*
X-60554762Y-25000000D01*
X-60607143Y-24950000D01*
X-60711905Y-24900000D01*
X-60921429Y-24900000D01*
X-61026191Y-24950000D01*
X-61078572Y-25000000D01*
X-61130953Y-25100000D01*
X-61235715Y-23200000D02*
X-60502381Y-23200000D01*
X-61654762Y-23450000D02*
X-60869048Y-23700000D01*
X-60869048Y-23050000D01*
X-61602381Y-22450000D02*
X-61602381Y-22350000D01*
X-61550000Y-22250000D01*
X-61497620Y-22200000D01*
X-61392858Y-22150000D01*
X-61183334Y-22100000D01*
X-60921429Y-22100000D01*
X-60711905Y-22150000D01*
X-60607143Y-22200000D01*
X-60554762Y-22250000D01*
X-60502381Y-22350000D01*
X-60502381Y-22450000D01*
X-60554762Y-22550000D01*
X-60607143Y-22600000D01*
X-60711905Y-22650000D01*
X-60921429Y-22700000D01*
X-61183334Y-22700000D01*
X-61392858Y-22650000D01*
X-61497620Y-22600000D01*
X-61550000Y-22550000D01*
X-61602381Y-22450000D01*
X-60502381Y-20300000D02*
X-60502381Y-20900000D01*
X-60502381Y-20600000D02*
X-61602381Y-20600000D01*
X-61445239Y-20700000D01*
X-61340477Y-20800000D01*
X-61288096Y-20900000D01*
X-61602381Y-19350000D02*
X-61602381Y-19850000D01*
X-61078572Y-19900000D01*
X-61130953Y-19850000D01*
X-61183334Y-19750000D01*
X-61183334Y-19500000D01*
X-61130953Y-19400000D01*
X-61078572Y-19350000D01*
X-60973810Y-19300000D01*
X-60711905Y-19300000D01*
X-60607143Y-19350000D01*
X-60554762Y-19400000D01*
X-60502381Y-19500000D01*
X-60502381Y-19750000D01*
X-60554762Y-19850000D01*
X-60607143Y-19900000D01*
X-60502381Y-17500000D02*
X-60502381Y-18100000D01*
X-60502381Y-17800000D02*
X-61602381Y-17800000D01*
X-61445239Y-17900000D01*
X-61340477Y-18000000D01*
X-61288096Y-18100000D01*
X-61602381Y-16600000D02*
X-61602381Y-16800000D01*
X-61550000Y-16900000D01*
X-61497620Y-16950000D01*
X-61340477Y-17050000D01*
X-61130953Y-17100000D01*
X-60711905Y-17100000D01*
X-60607143Y-17050000D01*
X-60554762Y-17000000D01*
X-60502381Y-16900000D01*
X-60502381Y-16700000D01*
X-60554762Y-16600000D01*
X-60607143Y-16550000D01*
X-60711905Y-16500000D01*
X-60973810Y-16500000D01*
X-61078572Y-16550000D01*
X-61130953Y-16600000D01*
X-61183334Y-16700000D01*
X-61183334Y-16900000D01*
X-61130953Y-17000000D01*
X-61078572Y-17050000D01*
X-60973810Y-17100000D01*
X-60502381Y-14700000D02*
X-60502381Y-15300000D01*
X-60502381Y-15000000D02*
X-61602381Y-15000000D01*
X-61445239Y-15100000D01*
X-61340477Y-15200000D01*
X-61288096Y-15300000D01*
X-61130953Y-14100000D02*
X-61183334Y-14200000D01*
X-61235715Y-14250000D01*
X-61340477Y-14300000D01*
X-61392858Y-14300000D01*
X-61497620Y-14250000D01*
X-61550000Y-14200000D01*
X-61602381Y-14100000D01*
X-61602381Y-13900000D01*
X-61550000Y-13800000D01*
X-61497620Y-13750000D01*
X-61392858Y-13700000D01*
X-61340477Y-13700000D01*
X-61235715Y-13750000D01*
X-61183334Y-13800000D01*
X-61130953Y-13900000D01*
X-61130953Y-14100000D01*
X-61078572Y-14200000D01*
X-61026191Y-14250000D01*
X-60921429Y-14300000D01*
X-60711905Y-14300000D01*
X-60607143Y-14250000D01*
X-60554762Y-14200000D01*
X-60502381Y-14100000D01*
X-60502381Y-13900000D01*
X-60554762Y-13800000D01*
X-60607143Y-13750000D01*
X-60711905Y-13700000D01*
X-60921429Y-13700000D01*
X-61026191Y-13750000D01*
X-61078572Y-13800000D01*
X-61130953Y-13900000D01*
X-61497620Y-12500000D02*
X-61550000Y-12450000D01*
X-61602381Y-12350000D01*
X-61602381Y-12100000D01*
X-61550000Y-12000000D01*
X-61497620Y-11950000D01*
X-61392858Y-11900000D01*
X-61288096Y-11900000D01*
X-61130953Y-11950000D01*
X-60502381Y-12550000D01*
X-60502381Y-11900000D01*
X-61497620Y-11500000D02*
X-61550000Y-11450000D01*
X-61602381Y-11350000D01*
X-61602381Y-11100000D01*
X-61550000Y-11000000D01*
X-61497620Y-10950000D01*
X-61392858Y-10900000D01*
X-61288096Y-10900000D01*
X-61130953Y-10950000D01*
X-60502381Y-11550000D01*
X-60502381Y-10900000D01*
X-58702381Y-44500000D02*
X-58702381Y-45100000D01*
X-58702381Y-44800000D02*
X-59802381Y-44800000D01*
X-59645239Y-44900000D01*
X-59540477Y-45000000D01*
X-59488096Y-45100000D01*
X-59802381Y-44150000D02*
X-59802381Y-43500000D01*
X-59383334Y-43850000D01*
X-59383334Y-43700000D01*
X-59330953Y-43600000D01*
X-59278572Y-43550000D01*
X-59173810Y-43500000D01*
X-58911905Y-43500000D01*
X-58807143Y-43550000D01*
X-58754762Y-43600000D01*
X-58702381Y-43700000D01*
X-58702381Y-44000000D01*
X-58754762Y-44100000D01*
X-58807143Y-44150000D01*
X-59802381Y-42350000D02*
X-59802381Y-41700000D01*
X-59383334Y-42050000D01*
X-59383334Y-41900000D01*
X-59330953Y-41800000D01*
X-59278572Y-41750000D01*
X-59173810Y-41700000D01*
X-58911905Y-41700000D01*
X-58807143Y-41750000D01*
X-58754762Y-41800000D01*
X-58702381Y-41900000D01*
X-58702381Y-42200000D01*
X-58754762Y-42300000D01*
X-58807143Y-42350000D01*
X-59802381Y-39150000D02*
X-59802381Y-39650000D01*
X-59278572Y-39700000D01*
X-59330953Y-39650000D01*
X-59383334Y-39550000D01*
X-59383334Y-39300000D01*
X-59330953Y-39200000D01*
X-59278572Y-39150000D01*
X-59173810Y-39100000D01*
X-58911905Y-39100000D01*
X-58807143Y-39150000D01*
X-58754762Y-39200000D01*
X-58702381Y-39300000D01*
X-58702381Y-39550000D01*
X-58754762Y-39650000D01*
X-58807143Y-39700000D01*
X-59802381Y-37150000D02*
X-59802381Y-36450000D01*
X-58702381Y-36900000D01*
X-59697620Y-34500000D02*
X-59750000Y-34450000D01*
X-59802381Y-34350000D01*
X-59802381Y-34100000D01*
X-59750000Y-34000000D01*
X-59697620Y-33950000D01*
X-59592858Y-33900000D01*
X-59488096Y-33900000D01*
X-59330953Y-33950000D01*
X-58702381Y-34550000D01*
X-58702381Y-33900000D01*
X-58702381Y-33400000D02*
X-58702381Y-33200000D01*
X-58754762Y-33100000D01*
X-58807143Y-33050000D01*
X-58964286Y-32950000D01*
X-59173810Y-32900000D01*
X-59592858Y-32900000D01*
X-59697620Y-32950000D01*
X-59750000Y-33000000D01*
X-59802381Y-33100000D01*
X-59802381Y-33300000D01*
X-59750000Y-33400000D01*
X-59697620Y-33450000D01*
X-59592858Y-33500000D01*
X-59330953Y-33500000D01*
X-59226191Y-33450000D01*
X-59173810Y-33400000D01*
X-59121429Y-33300000D01*
X-59121429Y-33100000D01*
X-59173810Y-33000000D01*
X-59226191Y-32950000D01*
X-59330953Y-32900000D01*
X-59802381Y-31750000D02*
X-59802381Y-31100000D01*
X-59383334Y-31450000D01*
X-59383334Y-31300000D01*
X-59330953Y-31200000D01*
X-59278572Y-31150000D01*
X-59173810Y-31100000D01*
X-58911905Y-31100000D01*
X-58807143Y-31150000D01*
X-58754762Y-31200000D01*
X-58702381Y-31300000D01*
X-58702381Y-31600000D01*
X-58754762Y-31700000D01*
X-58807143Y-31750000D01*
X-58702381Y-30100000D02*
X-58702381Y-30700000D01*
X-58702381Y-30400000D02*
X-59802381Y-30400000D01*
X-59645239Y-30500000D01*
X-59540477Y-30600000D01*
X-59488096Y-30700000D01*
X-59697620Y-28900000D02*
X-59750000Y-28850000D01*
X-59802381Y-28750000D01*
X-59802381Y-28500000D01*
X-59750000Y-28400000D01*
X-59697620Y-28350000D01*
X-59592858Y-28300000D01*
X-59488096Y-28300000D01*
X-59330953Y-28350000D01*
X-58702381Y-28950000D01*
X-58702381Y-28300000D01*
X-59802381Y-27400000D02*
X-59802381Y-27600000D01*
X-59750000Y-27700000D01*
X-59697620Y-27750000D01*
X-59540477Y-27850000D01*
X-59330953Y-27900000D01*
X-58911905Y-27900000D01*
X-58807143Y-27850000D01*
X-58754762Y-27800000D01*
X-58702381Y-27700000D01*
X-58702381Y-27500000D01*
X-58754762Y-27400000D01*
X-58807143Y-27350000D01*
X-58911905Y-27300000D01*
X-59173810Y-27300000D01*
X-59278572Y-27350000D01*
X-59330953Y-27400000D01*
X-59383334Y-27500000D01*
X-59383334Y-27700000D01*
X-59330953Y-27800000D01*
X-59278572Y-27850000D01*
X-59173810Y-27900000D01*
X-59697620Y-26100000D02*
X-59750000Y-26050000D01*
X-59802381Y-25950000D01*
X-59802381Y-25700000D01*
X-59750000Y-25600000D01*
X-59697620Y-25550000D01*
X-59592858Y-25500000D01*
X-59488096Y-25500000D01*
X-59330953Y-25550000D01*
X-58702381Y-26150000D01*
X-58702381Y-25500000D01*
X-59435715Y-24600000D02*
X-58702381Y-24600000D01*
X-59854762Y-24850000D02*
X-59069048Y-25100000D01*
X-59069048Y-24450000D01*
X-59697620Y-23300000D02*
X-59750000Y-23250000D01*
X-59802381Y-23150000D01*
X-59802381Y-22900000D01*
X-59750000Y-22800000D01*
X-59697620Y-22750000D01*
X-59592858Y-22700000D01*
X-59488096Y-22700000D01*
X-59330953Y-22750000D01*
X-58702381Y-23350000D01*
X-58702381Y-22700000D01*
X-58702381Y-21700000D02*
X-58702381Y-22300000D01*
X-58702381Y-22000000D02*
X-59802381Y-22000000D01*
X-59645239Y-22100000D01*
X-59540477Y-22200000D01*
X-59488096Y-22300000D01*
X-58702381Y-19900000D02*
X-58702381Y-20500000D01*
X-58702381Y-20200000D02*
X-59802381Y-20200000D01*
X-59645239Y-20300000D01*
X-59540477Y-20400000D01*
X-59488096Y-20500000D01*
X-58702381Y-19400000D02*
X-58702381Y-19200000D01*
X-58754762Y-19100000D01*
X-58807143Y-19050000D01*
X-58964286Y-18950000D01*
X-59173810Y-18900000D01*
X-59592858Y-18900000D01*
X-59697620Y-18950000D01*
X-59750000Y-19000000D01*
X-59802381Y-19100000D01*
X-59802381Y-19300000D01*
X-59750000Y-19400000D01*
X-59697620Y-19450000D01*
X-59592858Y-19500000D01*
X-59330953Y-19500000D01*
X-59226191Y-19450000D01*
X-59173810Y-19400000D01*
X-59121429Y-19300000D01*
X-59121429Y-19100000D01*
X-59173810Y-19000000D01*
X-59226191Y-18950000D01*
X-59330953Y-18900000D01*
X-59697620Y-17700000D02*
X-59750000Y-17650000D01*
X-59802381Y-17550000D01*
X-59802381Y-17300000D01*
X-59750000Y-17200000D01*
X-59697620Y-17150000D01*
X-59592858Y-17100000D01*
X-59488096Y-17100000D01*
X-59330953Y-17150000D01*
X-58702381Y-17750000D01*
X-58702381Y-17100000D01*
X-59802381Y-16750000D02*
X-59802381Y-16100000D01*
X-59383334Y-16450000D01*
X-59383334Y-16300000D01*
X-59330953Y-16200000D01*
X-59278572Y-16150000D01*
X-59173810Y-16100000D01*
X-58911905Y-16100000D01*
X-58807143Y-16150000D01*
X-58754762Y-16200000D01*
X-58702381Y-16300000D01*
X-58702381Y-16600000D01*
X-58754762Y-16700000D01*
X-58807143Y-16750000D01*
X-59802381Y-14950000D02*
X-59802381Y-14300000D01*
X-59383334Y-14650000D01*
X-59383334Y-14500000D01*
X-59330953Y-14400000D01*
X-59278572Y-14350000D01*
X-59173810Y-14300000D01*
X-58911905Y-14300000D01*
X-58807143Y-14350000D01*
X-58754762Y-14400000D01*
X-58702381Y-14500000D01*
X-58702381Y-14800000D01*
X-58754762Y-14900000D01*
X-58807143Y-14950000D01*
X-59697620Y-13900000D02*
X-59750000Y-13850000D01*
X-59802381Y-13750000D01*
X-59802381Y-13500000D01*
X-59750000Y-13400000D01*
X-59697620Y-13350000D01*
X-59592858Y-13300000D01*
X-59488096Y-13300000D01*
X-59330953Y-13350000D01*
X-58702381Y-13950000D01*
X-58702381Y-13300000D01*
X-59802381Y-12150000D02*
X-59802381Y-11500000D01*
X-59383334Y-11850000D01*
X-59383334Y-11700000D01*
X-59330953Y-11600000D01*
X-59278572Y-11550000D01*
X-59173810Y-11500000D01*
X-58911905Y-11500000D01*
X-58807143Y-11550000D01*
X-58754762Y-11600000D01*
X-58702381Y-11700000D01*
X-58702381Y-12000000D01*
X-58754762Y-12100000D01*
X-58807143Y-12150000D01*
X-59802381Y-11150000D02*
X-59802381Y-10500000D01*
X-59383334Y-10850000D01*
X-59383334Y-10700000D01*
X-59330953Y-10600000D01*
X-59278572Y-10550000D01*
X-59173810Y-10500000D01*
X-58911905Y-10500000D01*
X-58807143Y-10550000D01*
X-58754762Y-10600000D01*
X-58702381Y-10700000D01*
X-58702381Y-11000000D01*
X-58754762Y-11100000D01*
X-58807143Y-11150000D01*
X-37609524Y-37952380D02*
X-37609524Y-37285714D01*
X-37609524Y-37476190D02*
X-37561905Y-37380952D01*
X-37514286Y-37333333D01*
X-37419048Y-37285714D01*
X-37323810Y-37285714D01*
X-36990477Y-37285714D02*
X-36990477Y-38285714D01*
X-36990477Y-37333333D02*
X-36895239Y-37285714D01*
X-36704762Y-37285714D01*
X-36609524Y-37333333D01*
X-36561905Y-37380952D01*
X-36514286Y-37476190D01*
X-36514286Y-37761904D01*
X-36561905Y-37857142D01*
X-36609524Y-37904761D01*
X-36704762Y-37952380D01*
X-36895239Y-37952380D01*
X-36990477Y-37904761D01*
X-36085715Y-37952380D02*
X-36085715Y-37285714D01*
X-36085715Y-36952380D02*
X-36133334Y-37000000D01*
X-36085715Y-37047619D01*
X-36038096Y-37000000D01*
X-36085715Y-36952380D01*
X-36085715Y-37047619D01*
X-34323810Y-37000000D02*
X-34419048Y-36952380D01*
X-34561905Y-36952380D01*
X-34704762Y-37000000D01*
X-34800000Y-37095238D01*
X-34847620Y-37190476D01*
X-34895239Y-37380952D01*
X-34895239Y-37523809D01*
X-34847620Y-37714285D01*
X-34800000Y-37809523D01*
X-34704762Y-37904761D01*
X-34561905Y-37952380D01*
X-34466667Y-37952380D01*
X-34323810Y-37904761D01*
X-34276191Y-37857142D01*
X-34276191Y-37523809D01*
X-34466667Y-37523809D01*
X-33847620Y-37952380D02*
X-33847620Y-36952380D01*
X-33466667Y-36952380D01*
X-33371429Y-37000000D01*
X-33323810Y-37047619D01*
X-33276191Y-37142857D01*
X-33276191Y-37285714D01*
X-33323810Y-37380952D01*
X-33371429Y-37428571D01*
X-33466667Y-37476190D01*
X-33847620Y-37476190D01*
X-32847620Y-37952380D02*
X-32847620Y-36952380D01*
X-32180953Y-36952380D02*
X-31990477Y-36952380D01*
X-31895239Y-37000000D01*
X-31800000Y-37095238D01*
X-31752381Y-37285714D01*
X-31752381Y-37619047D01*
X-31800000Y-37809523D01*
X-31895239Y-37904761D01*
X-31990477Y-37952380D01*
X-32180953Y-37952380D01*
X-32276191Y-37904761D01*
X-32371429Y-37809523D01*
X-32419048Y-37619047D01*
X-32419048Y-37285714D01*
X-32371429Y-37095238D01*
X-32276191Y-37000000D01*
X-32180953Y-36952380D01*
X-30609524Y-37904761D02*
X-30466667Y-37952380D01*
X-30228572Y-37952380D01*
X-30133334Y-37904761D01*
X-30085715Y-37857142D01*
X-30038096Y-37761904D01*
X-30038096Y-37666666D01*
X-30085715Y-37571428D01*
X-30133334Y-37523809D01*
X-30228572Y-37476190D01*
X-30419048Y-37428571D01*
X-30514286Y-37380952D01*
X-30561905Y-37333333D01*
X-30609524Y-37238095D01*
X-30609524Y-37142857D01*
X-30561905Y-37047619D01*
X-30514286Y-37000000D01*
X-30419048Y-36952380D01*
X-30180953Y-36952380D01*
X-30038096Y-37000000D01*
X-29609524Y-37952380D02*
X-29609524Y-37285714D01*
X-29609524Y-36952380D02*
X-29657143Y-37000000D01*
X-29609524Y-37047619D01*
X-29561905Y-37000000D01*
X-29609524Y-36952380D01*
X-29609524Y-37047619D01*
X-28704762Y-37285714D02*
X-28704762Y-38095238D01*
X-28752381Y-38190476D01*
X-28800000Y-38238095D01*
X-28895239Y-38285714D01*
X-29038096Y-38285714D01*
X-29133334Y-38238095D01*
X-28704762Y-37904761D02*
X-28800000Y-37952380D01*
X-28990477Y-37952380D01*
X-29085715Y-37904761D01*
X-29133334Y-37857142D01*
X-29180953Y-37761904D01*
X-29180953Y-37476190D01*
X-29133334Y-37380952D01*
X-29085715Y-37333333D01*
X-28990477Y-37285714D01*
X-28800000Y-37285714D01*
X-28704762Y-37333333D01*
X-28228572Y-37285714D02*
X-28228572Y-37952380D01*
X-28228572Y-37380952D02*
X-28180953Y-37333333D01*
X-28085715Y-37285714D01*
X-27942858Y-37285714D01*
X-27847620Y-37333333D01*
X-27800000Y-37428571D01*
X-27800000Y-37952380D01*
X-26895239Y-37952380D02*
X-26895239Y-37428571D01*
X-26942858Y-37333333D01*
X-27038096Y-37285714D01*
X-27228572Y-37285714D01*
X-27323810Y-37333333D01*
X-26895239Y-37904761D02*
X-26990477Y-37952380D01*
X-27228572Y-37952380D01*
X-27323810Y-37904761D01*
X-27371429Y-37809523D01*
X-27371429Y-37714285D01*
X-27323810Y-37619047D01*
X-27228572Y-37571428D01*
X-26990477Y-37571428D01*
X-26895239Y-37523809D01*
X-26276191Y-37952380D02*
X-26371429Y-37904761D01*
X-26419048Y-37809523D01*
X-26419048Y-36952380D01*
X-25942858Y-37904761D02*
X-25847620Y-37952380D01*
X-25657143Y-37952380D01*
X-25561905Y-37904761D01*
X-25514286Y-37809523D01*
X-25514286Y-37761904D01*
X-25561905Y-37666666D01*
X-25657143Y-37619047D01*
X-25800000Y-37619047D01*
X-25895239Y-37571428D01*
X-25942858Y-37476190D01*
X-25942858Y-37428571D01*
X-25895239Y-37333333D01*
X-25800000Y-37285714D01*
X-25657143Y-37285714D01*
X-25561905Y-37333333D01*
X-23847620Y-36952380D02*
X-24323810Y-36952380D01*
X-24371429Y-37428571D01*
X-24323810Y-37380952D01*
X-24228572Y-37333333D01*
X-23990477Y-37333333D01*
X-23895239Y-37380952D01*
X-23847620Y-37428571D01*
X-23800000Y-37523809D01*
X-23800000Y-37761904D01*
X-23847620Y-37857142D01*
X-23895239Y-37904761D01*
X-23990477Y-37952380D01*
X-24228572Y-37952380D01*
X-24323810Y-37904761D01*
X-24371429Y-37857142D01*
X-23514286Y-36952380D02*
X-23180953Y-37952380D01*
X-22847620Y-36952380D01*
D13*
X-50823215Y-28557142D02*
X-50823215Y-25557142D01*
X-49680358Y-25557142D01*
X-49394643Y-25700000D01*
X-49251786Y-25842857D01*
X-49108929Y-26128571D01*
X-49108929Y-26557142D01*
X-49251786Y-26842857D01*
X-49394643Y-26985714D01*
X-49680358Y-27128571D01*
X-50823215Y-27128571D01*
X-47823215Y-28557142D02*
X-47823215Y-25557142D01*
X-46394643Y-27414285D02*
X-44108929Y-27414285D01*
X-41251786Y-28557142D02*
X-42680358Y-28557142D01*
X-42680358Y-25557142D01*
X-38537500Y-28271428D02*
X-38680358Y-28414285D01*
X-39108929Y-28557142D01*
X-39394643Y-28557142D01*
X-39823215Y-28414285D01*
X-40108929Y-28128571D01*
X-40251786Y-27842857D01*
X-40394643Y-27271428D01*
X-40394643Y-26842857D01*
X-40251786Y-26271428D01*
X-40108929Y-25985714D01*
X-39823215Y-25700000D01*
X-39394643Y-25557142D01*
X-39108929Y-25557142D01*
X-38680358Y-25700000D01*
X-38537500Y-25842857D01*
X-37251786Y-28557142D02*
X-37251786Y-25557142D01*
X-35537500Y-28557142D01*
X-35537500Y-25557142D01*
X-32394643Y-28271428D02*
X-32537500Y-28414285D01*
X-32966072Y-28557142D01*
X-33251786Y-28557142D01*
X-33680358Y-28414285D01*
X-33966072Y-28128571D01*
X-34108929Y-27842857D01*
X-34251786Y-27271428D01*
X-34251786Y-26842857D01*
X-34108929Y-26271428D01*
X-33966072Y-25985714D01*
X-33680358Y-25700000D01*
X-33251786Y-25557142D01*
X-32966072Y-25557142D01*
X-32537500Y-25700000D01*
X-32394643Y-25842857D01*
D11*
X678571Y-13514285D02*
X-35715Y-14014285D01*
X678571Y-14371428D02*
X-821429Y-14371428D01*
X-821429Y-13800000D01*
X-750000Y-13657142D01*
X-678572Y-13585714D01*
X-535715Y-13514285D01*
X-321429Y-13514285D01*
X-178572Y-13585714D01*
X-107143Y-13657142D01*
X-35715Y-13800000D01*
X-35715Y-14371428D01*
X607142Y-12300000D02*
X678571Y-12442857D01*
X678571Y-12728571D01*
X607142Y-12871428D01*
X464285Y-12942857D01*
X-107143Y-12942857D01*
X-250000Y-12871428D01*
X-321429Y-12728571D01*
X-321429Y-12442857D01*
X-250000Y-12300000D01*
X-107143Y-12228571D01*
X35714Y-12228571D01*
X178571Y-12942857D01*
X-321429Y-11728571D02*
X678571Y-11371428D01*
X-321429Y-11014285D01*
X535714Y-10442857D02*
X607142Y-10371428D01*
X678571Y-10442857D01*
X607142Y-10514285D01*
X535714Y-10442857D01*
X678571Y-10442857D01*
X535714Y-9728571D02*
X607142Y-9657142D01*
X678571Y-9728571D01*
X607142Y-9800000D01*
X535714Y-9728571D01*
X678571Y-9728571D01*
X-250000Y-9728571D02*
X-178572Y-9657142D01*
X-107143Y-9728571D01*
X-178572Y-9800000D01*
X-250000Y-9728571D01*
X-107143Y-9728571D01*
X-821429Y-7585714D02*
X-821429Y-7442857D01*
X-750000Y-7300000D01*
X-678572Y-7228571D01*
X-535715Y-7157142D01*
X-250000Y-7085714D01*
X107142Y-7085714D01*
X392857Y-7157142D01*
X535714Y-7228571D01*
X607142Y-7300000D01*
X678571Y-7442857D01*
X678571Y-7585714D01*
X607142Y-7728571D01*
X535714Y-7800000D01*
X392857Y-7871428D01*
X107142Y-7942857D01*
X-250000Y-7942857D01*
X-535715Y-7871428D01*
X-678572Y-7800000D01*
X-750000Y-7728571D01*
X-821429Y-7585714D01*
X-321429Y-5800000D02*
X678571Y-5800000D01*
X-892858Y-6157142D02*
X178571Y-6514285D01*
X178571Y-5585714D01*
X-50631072Y-30500000D02*
X-50802500Y-30414285D01*
X-51059643Y-30414285D01*
X-51316786Y-30500000D01*
X-51488215Y-30671428D01*
X-51573929Y-30842857D01*
X-51659643Y-31185714D01*
X-51659643Y-31442857D01*
X-51573929Y-31785714D01*
X-51488215Y-31957142D01*
X-51316786Y-32128571D01*
X-51059643Y-32214285D01*
X-50888215Y-32214285D01*
X-50631072Y-32128571D01*
X-50545358Y-32042857D01*
X-50545358Y-31442857D01*
X-50888215Y-31442857D01*
X-49773929Y-32214285D02*
X-49773929Y-30414285D01*
X-49088215Y-30414285D01*
X-48916786Y-30500000D01*
X-48831072Y-30585714D01*
X-48745358Y-30757142D01*
X-48745358Y-31014285D01*
X-48831072Y-31185714D01*
X-48916786Y-31271428D01*
X-49088215Y-31357142D01*
X-49773929Y-31357142D01*
X-47973929Y-32214285D02*
X-47973929Y-30414285D01*
X-46773929Y-30414285D02*
X-46431072Y-30414285D01*
X-46259643Y-30500000D01*
X-46088215Y-30671428D01*
X-46002500Y-31014285D01*
X-46002500Y-31614285D01*
X-46088215Y-31957142D01*
X-46259643Y-32128571D01*
X-46431072Y-32214285D01*
X-46773929Y-32214285D01*
X-46945358Y-32128571D01*
X-47116786Y-31957142D01*
X-47202500Y-31614285D01*
X-47202500Y-31014285D01*
X-47116786Y-30671428D01*
X-46945358Y-30500000D01*
X-46773929Y-30414285D01*
X-44116786Y-31014285D02*
X-43431072Y-31014285D01*
X-43859643Y-30414285D02*
X-43859643Y-31957142D01*
X-43773929Y-32128571D01*
X-43602500Y-32214285D01*
X-43431072Y-32214285D01*
X-42573929Y-32214285D02*
X-42745358Y-32128571D01*
X-42831072Y-32042857D01*
X-42916786Y-31871428D01*
X-42916786Y-31357142D01*
X-42831072Y-31185714D01*
X-42745358Y-31100000D01*
X-42573929Y-31014285D01*
X-42316786Y-31014285D01*
X-42145358Y-31100000D01*
X-42059643Y-31185714D01*
X-41973929Y-31357142D01*
X-41973929Y-31871428D01*
X-42059643Y-32042857D01*
X-42145358Y-32128571D01*
X-42316786Y-32214285D01*
X-42573929Y-32214285D01*
X-39831072Y-32214285D02*
X-39831072Y-30414285D01*
X-39145358Y-30414285D01*
X-38973929Y-30500000D01*
X-38888215Y-30585714D01*
X-38802500Y-30757142D01*
X-38802500Y-31014285D01*
X-38888215Y-31185714D01*
X-38973929Y-31271428D01*
X-39145358Y-31357142D01*
X-39831072Y-31357142D01*
X-37259643Y-32214285D02*
X-37259643Y-31271428D01*
X-37345358Y-31100000D01*
X-37516786Y-31014285D01*
X-37859643Y-31014285D01*
X-38031072Y-31100000D01*
X-37259643Y-32128571D02*
X-37431072Y-32214285D01*
X-37859643Y-32214285D01*
X-38031072Y-32128571D01*
X-38116786Y-31957142D01*
X-38116786Y-31785714D01*
X-38031072Y-31614285D01*
X-37859643Y-31528571D01*
X-37431072Y-31528571D01*
X-37259643Y-31442857D01*
X-36402500Y-32214285D02*
X-36402500Y-31014285D01*
X-36402500Y-31357142D02*
X-36316786Y-31185714D01*
X-36231072Y-31100000D01*
X-36059643Y-31014285D01*
X-35888215Y-31014285D01*
X-34516786Y-32214285D02*
X-34516786Y-31271428D01*
X-34602500Y-31100000D01*
X-34773929Y-31014285D01*
X-35116786Y-31014285D01*
X-35288215Y-31100000D01*
X-34516786Y-32128571D02*
X-34688215Y-32214285D01*
X-35116786Y-32214285D01*
X-35288215Y-32128571D01*
X-35373929Y-31957142D01*
X-35373929Y-31785714D01*
X-35288215Y-31614285D01*
X-35116786Y-31528571D01*
X-34688215Y-31528571D01*
X-34516786Y-31442857D01*
X-33402500Y-32214285D02*
X-33573929Y-32128571D01*
X-33659643Y-31957142D01*
X-33659643Y-30414285D01*
X-32459643Y-32214285D02*
X-32631072Y-32128571D01*
X-32716786Y-31957142D01*
X-32716786Y-30414285D01*
X-31088215Y-32128571D02*
X-31259643Y-32214285D01*
X-31602500Y-32214285D01*
X-31773929Y-32128571D01*
X-31859643Y-31957142D01*
X-31859643Y-31271428D01*
X-31773929Y-31100000D01*
X-31602500Y-31014285D01*
X-31259643Y-31014285D01*
X-31088215Y-31100000D01*
X-31002500Y-31271428D01*
X-31002500Y-31442857D01*
X-31859643Y-31614285D01*
X-29973929Y-32214285D02*
X-30145358Y-32128571D01*
X-30231072Y-31957142D01*
X-30231072Y-30414285D01*
X-28002500Y-32128571D02*
X-27745358Y-32214285D01*
X-27316786Y-32214285D01*
X-27145358Y-32128571D01*
X-27059643Y-32042857D01*
X-26973929Y-31871428D01*
X-26973929Y-31700000D01*
X-27059643Y-31528571D01*
X-27145358Y-31442857D01*
X-27316786Y-31357142D01*
X-27659643Y-31271428D01*
X-27831072Y-31185714D01*
X-27916786Y-31100000D01*
X-28002500Y-30928571D01*
X-28002500Y-30757142D01*
X-27916786Y-30585714D01*
X-27831072Y-30500000D01*
X-27659643Y-30414285D01*
X-27231072Y-30414285D01*
X-26973929Y-30500000D01*
X-26202500Y-32214285D02*
X-26202500Y-30414285D01*
X-25431072Y-32214285D02*
X-25431072Y-31271428D01*
X-25516786Y-31100000D01*
X-25688215Y-31014285D01*
X-25945358Y-31014285D01*
X-26116786Y-31100000D01*
X-26202500Y-31185714D01*
X-24573929Y-32214285D02*
X-24573929Y-31014285D01*
X-24573929Y-30414285D02*
X-24659643Y-30500000D01*
X-24573929Y-30585714D01*
X-24488215Y-30500000D01*
X-24573929Y-30414285D01*
X-24573929Y-30585714D01*
X-23031072Y-32128571D02*
X-23202500Y-32214285D01*
X-23545358Y-32214285D01*
X-23716786Y-32128571D01*
X-23802500Y-31957142D01*
X-23802500Y-31271428D01*
X-23716786Y-31100000D01*
X-23545358Y-31014285D01*
X-23202500Y-31014285D01*
X-23031072Y-31100000D01*
X-22945358Y-31271428D01*
X-22945358Y-31442857D01*
X-23802500Y-31614285D01*
X-21916786Y-32214285D02*
X-22088215Y-32128571D01*
X-22173929Y-31957142D01*
X-22173929Y-30414285D01*
X-20459643Y-32214285D02*
X-20459643Y-30414285D01*
X-20459643Y-32128571D02*
X-20631072Y-32214285D01*
X-20973929Y-32214285D01*
X-21145358Y-32128571D01*
X-21231072Y-32042857D01*
X-21316786Y-31871428D01*
X-21316786Y-31357142D01*
X-21231072Y-31185714D01*
X-21145358Y-31100000D01*
X-20973929Y-31014285D01*
X-20631072Y-31014285D01*
X-20459643Y-31100000D01*
X-50802500Y-33864285D02*
X-50802500Y-35321428D01*
X-50888215Y-35492857D01*
X-50973929Y-35578571D01*
X-51145358Y-35664285D01*
X-51402500Y-35664285D01*
X-51573929Y-35578571D01*
X-50802500Y-34978571D02*
X-50973929Y-35064285D01*
X-51316786Y-35064285D01*
X-51488215Y-34978571D01*
X-51573929Y-34892857D01*
X-51659643Y-34721428D01*
X-51659643Y-34207142D01*
X-51573929Y-34035714D01*
X-51488215Y-33950000D01*
X-51316786Y-33864285D01*
X-50973929Y-33864285D01*
X-50802500Y-33950000D01*
X-49945358Y-35064285D02*
X-49945358Y-33864285D01*
X-49945358Y-33264285D02*
X-50031072Y-33350000D01*
X-49945358Y-33435714D01*
X-49859643Y-33350000D01*
X-49945358Y-33264285D01*
X-49945358Y-33435714D01*
X-49345358Y-33864285D02*
X-48659643Y-33864285D01*
X-49088215Y-33264285D02*
X-49088215Y-34807142D01*
X-49002500Y-34978571D01*
X-48831072Y-35064285D01*
X-48659643Y-35064285D01*
X-48059643Y-35064285D02*
X-48059643Y-33264285D01*
X-47288215Y-35064285D02*
X-47288215Y-34121428D01*
X-47373929Y-33950000D01*
X-47545358Y-33864285D01*
X-47802500Y-33864285D01*
X-47973929Y-33950000D01*
X-48059643Y-34035714D01*
X-45659643Y-33864285D02*
X-45659643Y-35064285D01*
X-46431072Y-33864285D02*
X-46431072Y-34807142D01*
X-46345358Y-34978571D01*
X-46173929Y-35064285D01*
X-45916786Y-35064285D01*
X-45745358Y-34978571D01*
X-45659643Y-34892857D01*
X-44802500Y-35064285D02*
X-44802500Y-33264285D01*
X-44802500Y-33950000D02*
X-44631072Y-33864285D01*
X-44288215Y-33864285D01*
X-44116786Y-33950000D01*
X-44031072Y-34035714D01*
X-43945358Y-34207142D01*
X-43945358Y-34721428D01*
X-44031072Y-34892857D01*
X-44116786Y-34978571D01*
X-44288215Y-35064285D01*
X-44631072Y-35064285D01*
X-44802500Y-34978571D01*
X-43173929Y-34892857D02*
X-43088215Y-34978571D01*
X-43173929Y-35064285D01*
X-43259643Y-34978571D01*
X-43173929Y-34892857D01*
X-43173929Y-35064285D01*
X-41545358Y-34978571D02*
X-41716786Y-35064285D01*
X-42059643Y-35064285D01*
X-42231072Y-34978571D01*
X-42316786Y-34892857D01*
X-42402500Y-34721428D01*
X-42402500Y-34207142D01*
X-42316786Y-34035714D01*
X-42231072Y-33950000D01*
X-42059643Y-33864285D01*
X-41716786Y-33864285D01*
X-41545358Y-33950000D01*
X-40516786Y-35064285D02*
X-40688215Y-34978571D01*
X-40773929Y-34892857D01*
X-40859643Y-34721428D01*
X-40859643Y-34207142D01*
X-40773929Y-34035714D01*
X-40688215Y-33950000D01*
X-40516786Y-33864285D01*
X-40259643Y-33864285D01*
X-40088215Y-33950000D01*
X-40002500Y-34035714D01*
X-39916786Y-34207142D01*
X-39916786Y-34721428D01*
X-40002500Y-34892857D01*
X-40088215Y-34978571D01*
X-40259643Y-35064285D01*
X-40516786Y-35064285D01*
X-39145358Y-35064285D02*
X-39145358Y-33864285D01*
X-39145358Y-34035714D02*
X-39059643Y-33950000D01*
X-38888215Y-33864285D01*
X-38631072Y-33864285D01*
X-38459643Y-33950000D01*
X-38373929Y-34121428D01*
X-38373929Y-35064285D01*
X-38373929Y-34121428D02*
X-38288215Y-33950000D01*
X-38116786Y-33864285D01*
X-37859643Y-33864285D01*
X-37688215Y-33950000D01*
X-37602500Y-34121428D01*
X-37602500Y-35064285D01*
X-35459643Y-33178571D02*
X-37002500Y-35492857D01*
X-33831072Y-34892857D02*
X-33916786Y-34978571D01*
X-34173929Y-35064285D01*
X-34345358Y-35064285D01*
X-34602500Y-34978571D01*
X-34773929Y-34807142D01*
X-34859643Y-34635714D01*
X-34945358Y-34292857D01*
X-34945358Y-34035714D01*
X-34859643Y-33692857D01*
X-34773929Y-33521428D01*
X-34602500Y-33350000D01*
X-34345358Y-33264285D01*
X-34173929Y-33264285D01*
X-33916786Y-33350000D01*
X-33831072Y-33435714D01*
X-33059643Y-35064285D02*
X-33059643Y-33264285D01*
X-32288215Y-35064285D02*
X-32288215Y-34121428D01*
X-32373929Y-33950000D01*
X-32545358Y-33864285D01*
X-32802500Y-33864285D01*
X-32973929Y-33950000D01*
X-33059643Y-34035714D01*
X-31431072Y-35064285D02*
X-31431072Y-33864285D01*
X-31431072Y-34207142D02*
X-31345358Y-34035714D01*
X-31259643Y-33950000D01*
X-31088215Y-33864285D01*
X-30916786Y-33864285D01*
X-30316786Y-35064285D02*
X-30316786Y-33864285D01*
X-30316786Y-33264285D02*
X-30402500Y-33350000D01*
X-30316786Y-33435714D01*
X-30231072Y-33350000D01*
X-30316786Y-33264285D01*
X-30316786Y-33435714D01*
X-29545358Y-34978571D02*
X-29373929Y-35064285D01*
X-29031072Y-35064285D01*
X-28859643Y-34978571D01*
X-28773929Y-34807142D01*
X-28773929Y-34721428D01*
X-28859643Y-34550000D01*
X-29031072Y-34464285D01*
X-29288215Y-34464285D01*
X-29459643Y-34378571D01*
X-29545358Y-34207142D01*
X-29545358Y-34121428D01*
X-29459643Y-33950000D01*
X-29288215Y-33864285D01*
X-29031072Y-33864285D01*
X-28859643Y-33950000D01*
X-28173929Y-33264285D02*
X-27745358Y-35064285D01*
X-27402500Y-33778571D01*
X-27059643Y-35064285D01*
X-26631072Y-33264285D01*
X-25173929Y-35064285D02*
X-25173929Y-34121428D01*
X-25259643Y-33950000D01*
X-25431072Y-33864285D01*
X-25773929Y-33864285D01*
X-25945358Y-33950000D01*
X-25173929Y-34978571D02*
X-25345358Y-35064285D01*
X-25773929Y-35064285D01*
X-25945358Y-34978571D01*
X-26031072Y-34807142D01*
X-26031072Y-34635714D01*
X-25945358Y-34464285D01*
X-25773929Y-34378571D01*
X-25345358Y-34378571D01*
X-25173929Y-34292857D01*
X-23545358Y-33864285D02*
X-23545358Y-35321428D01*
X-23631072Y-35492857D01*
X-23716786Y-35578571D01*
X-23888215Y-35664285D01*
X-24145358Y-35664285D01*
X-24316786Y-35578571D01*
X-23545358Y-34978571D02*
X-23716786Y-35064285D01*
X-24059643Y-35064285D01*
X-24231072Y-34978571D01*
X-24316786Y-34892857D01*
X-24402500Y-34721428D01*
X-24402500Y-34207142D01*
X-24316786Y-34035714D01*
X-24231072Y-33950000D01*
X-24059643Y-33864285D01*
X-23716786Y-33864285D01*
X-23545358Y-33950000D01*
X-22602500Y-35064285D02*
X-22259643Y-35064285D01*
X-22088215Y-34978571D01*
X-22002500Y-34892857D01*
X-21831072Y-34635714D01*
X-21745358Y-34292857D01*
X-21745358Y-33607142D01*
X-21831072Y-33435714D01*
X-21916786Y-33350000D01*
X-22088215Y-33264285D01*
X-22431072Y-33264285D01*
X-22602500Y-33350000D01*
X-22688215Y-33435714D01*
X-22773929Y-33607142D01*
X-22773929Y-34035714D01*
X-22688215Y-34207142D01*
X-22602500Y-34292857D01*
X-22431072Y-34378571D01*
X-22088215Y-34378571D01*
X-21916786Y-34292857D01*
X-21831072Y-34207142D01*
X-21745358Y-34035714D01*
X-20031072Y-35064285D02*
X-21059643Y-35064285D01*
X-20545358Y-35064285D02*
X-20545358Y-33264285D01*
X-20716786Y-33521428D01*
X-20888215Y-33692857D01*
X-21059643Y-33778571D01*
X-17973929Y-33178571D02*
X-19516786Y-35492857D01*
X-17373929Y-35064285D02*
X-17373929Y-33264285D01*
X-16688215Y-33264285D01*
X-16516786Y-33350000D01*
X-16431072Y-33435714D01*
X-16345358Y-33607142D01*
X-16345358Y-33864285D01*
X-16431072Y-34035714D01*
X-16516786Y-34121428D01*
X-16688215Y-34207142D01*
X-17373929Y-34207142D01*
X-15573929Y-35064285D02*
X-15573929Y-33264285D01*
X-14716786Y-34378571D02*
X-13345358Y-34378571D01*
X-11631072Y-35064285D02*
X-12488215Y-35064285D01*
X-12488215Y-33264285D01*
X-10002500Y-34892857D02*
X-10088215Y-34978571D01*
X-10345358Y-35064285D01*
X-10516786Y-35064285D01*
X-10773929Y-34978571D01*
X-10945358Y-34807142D01*
X-11031072Y-34635714D01*
X-11116786Y-34292857D01*
X-11116786Y-34035714D01*
X-11031072Y-33692857D01*
X-10945358Y-33521428D01*
X-10773929Y-33350000D01*
X-10516786Y-33264285D01*
X-10345358Y-33264285D01*
X-10088215Y-33350000D01*
X-10002500Y-33435714D01*
X-9231072Y-35064285D02*
X-9231072Y-33264285D01*
X-8202500Y-35064285D01*
X-8202500Y-33264285D01*
X-6316786Y-34892857D02*
X-6402500Y-34978571D01*
X-6659643Y-35064285D01*
X-6831072Y-35064285D01*
X-7088215Y-34978571D01*
X-7259643Y-34807142D01*
X-7345358Y-34635714D01*
X-7431072Y-34292857D01*
X-7431072Y-34035714D01*
X-7345358Y-33692857D01*
X-7259643Y-33521428D01*
X-7088215Y-33350000D01*
X-6831072Y-33264285D01*
X-6659643Y-33264285D01*
X-6402500Y-33350000D01*
X-6316786Y-33435714D01*
D10*
G04 #@! TO.C,L1*
X-4350000Y-16200000D02*
X-4350000Y-19900000D01*
X-18950000Y-16200000D02*
X-4350000Y-16200000D01*
X-18950000Y-19900000D02*
X-18950000Y-16200000D01*
X-18950000Y-30200000D02*
X-18950000Y-26500000D01*
X-4350000Y-30200000D02*
X-18950000Y-30200000D01*
X-4350000Y-26500000D02*
X-4350000Y-30200000D01*
G04 #@! TO.C,C4*
X-44565000Y-11465000D02*
X-45815000Y-11465000D01*
X-45190000Y-10840000D02*
X-45190000Y-12090000D01*
X-52145563Y-12330000D02*
X-53210000Y-13394437D01*
X-43754437Y-12330000D02*
X-42690000Y-13394437D01*
X-43754437Y-12330000D02*
X-46440000Y-12330000D01*
X-52145563Y-12330000D02*
X-49460000Y-12330000D01*
X-53210000Y-13394437D02*
X-53210000Y-22850000D01*
X-42690000Y-13394437D02*
X-42690000Y-22850000D01*
X-42690000Y-22850000D02*
X-46440000Y-22850000D01*
X-53210000Y-22850000D02*
X-49460000Y-22850000D01*
G04 #@! TO.C,C1*
X-31905000Y-11415000D02*
X-33155000Y-11415000D01*
X-32530000Y-10790000D02*
X-32530000Y-12040000D01*
X-39485563Y-12280000D02*
X-40550000Y-13344437D01*
X-31094437Y-12280000D02*
X-30030000Y-13344437D01*
X-31094437Y-12280000D02*
X-33780000Y-12280000D01*
X-39485563Y-12280000D02*
X-36800000Y-12280000D01*
X-40550000Y-13344437D02*
X-40550000Y-22800000D01*
X-30030000Y-13344437D02*
X-30030000Y-22800000D01*
X-30030000Y-22800000D02*
X-33780000Y-22800000D01*
X-40550000Y-22800000D02*
X-36800000Y-22800000D01*
D11*
G04 #@! TO.C,PS1*
X-21985000Y-16725000D02*
X-21985000Y-15325000D01*
X-27085000Y-16725000D02*
X-27085000Y-20875000D01*
X-21935000Y-16725000D02*
X-21935000Y-20875000D01*
X-27085000Y-16725000D02*
X-26940000Y-16725000D01*
X-27085000Y-20875000D02*
X-26940000Y-20875000D01*
X-21935000Y-20875000D02*
X-22080000Y-20875000D01*
X-21935000Y-16725000D02*
X-21985000Y-16725000D01*
D10*
G04 #@! TO.C,C3*
X-25085000Y-13125000D02*
X-23835000Y-13125000D01*
X-24460000Y-13750000D02*
X-24460000Y-12500000D01*
X-17504437Y-12260000D02*
X-16440000Y-11195563D01*
X-25895563Y-12260000D02*
X-26960000Y-11195563D01*
X-25895563Y-12260000D02*
X-23210000Y-12260000D01*
X-17504437Y-12260000D02*
X-20190000Y-12260000D01*
X-16440000Y-11195563D02*
X-16440000Y-1740000D01*
X-26960000Y-11195563D02*
X-26960000Y-1740000D01*
X-26960000Y-1740000D02*
X-23210000Y-1740000D01*
X-16440000Y-1740000D02*
X-20190000Y-1740000D01*
G04 #@! TO.C,C2*
X-12585000Y-13225000D02*
X-11335000Y-13225000D01*
X-11960000Y-13850000D02*
X-11960000Y-12600000D01*
X-5004437Y-12360000D02*
X-3940000Y-11295563D01*
X-13395563Y-12360000D02*
X-14460000Y-11295563D01*
X-13395563Y-12360000D02*
X-10710000Y-12360000D01*
X-5004437Y-12360000D02*
X-7690000Y-12360000D01*
X-3940000Y-11295563D02*
X-3940000Y-1840000D01*
X-14460000Y-11295563D02*
X-14460000Y-1840000D01*
X-14460000Y-1840000D02*
X-10710000Y-1840000D01*
X-3940000Y-1840000D02*
X-7690000Y-1840000D01*
G04 #@! TO.C,J3*
X-54530000Y-61030000D02*
X-54530000Y-59700000D01*
X-53200000Y-61030000D02*
X-54530000Y-61030000D01*
X-54530000Y-58430000D02*
X-54530000Y-55830000D01*
X-51930000Y-58430000D02*
X-54530000Y-58430000D01*
X-51930000Y-61030000D02*
X-51930000Y-58430000D01*
X-54530000Y-55830000D02*
X-3610000Y-55830000D01*
X-51930000Y-61030000D02*
X-3610000Y-61030000D01*
X-3610000Y-61030000D02*
X-3610000Y-55830000D01*
G04 #@! TO.C,J4*
X-62378675Y-44100000D02*
X-61945662Y-43850000D01*
X-61945662Y-44350000D02*
X-62378675Y-44100000D01*
X-61945662Y-43850000D02*
X-61945662Y-44350000D01*
X-62840000Y-54090000D02*
X-75180000Y-54090000D01*
X-62840000Y-870000D02*
X-62840000Y-54090000D01*
X-75180000Y-870000D02*
X-62840000Y-870000D01*
G04 #@! TO.C,J1*
X-41100000Y-8650000D02*
X-40500000Y-8650000D01*
X-41100000Y-7810000D02*
X-41100000Y-8650000D01*
X-32050000Y-250000D02*
X-32050000Y-1250000D01*
X-34550000Y-250000D02*
X-34550000Y-1250000D01*
X-34550000Y-1250000D02*
X-32050000Y-1250000D01*
X-34550000Y-250000D02*
X-32050000Y-250000D01*
X-34328000Y-5123000D02*
X-34574000Y-5369000D01*
X-32230000Y-3025000D02*
X-32441000Y-3236000D01*
X-34170000Y-5375000D02*
X-34369000Y-5574000D01*
X-32025000Y-3231000D02*
X-32271000Y-3477000D01*
X-37050000Y-250000D02*
X-37050000Y-1250000D01*
X-39550000Y-250000D02*
X-39550000Y-1250000D01*
X-39550000Y-1250000D02*
X-37050000Y-1250000D01*
X-39550000Y-250000D02*
X-37050000Y-250000D01*
X-30740000Y-190000D02*
X-30740000Y-8410000D01*
X-40860000Y-190000D02*
X-40860000Y-8410000D01*
X-40860000Y-8410000D02*
X-30740000Y-8410000D01*
X-40860000Y-190000D02*
X-30740000Y-190000D01*
X-40860000Y-2250000D02*
X-30740000Y-2250000D01*
X-40860000Y-7150000D02*
X-30740000Y-7150000D01*
X-40860000Y-7750000D02*
X-30740000Y-7750000D01*
X-31620000Y-4300000D02*
G75*
G03*
X-31620000Y-4300000I-1680000J0D01*
G01*
X-38271493Y-5980511D02*
G75*
G02*
X-39381000Y-5587000I-28507J1680511D01*
G01*
X-39588063Y-5379734D02*
G75*
G02*
X-39587000Y-3219000I1288063J1079734D01*
G01*
X-39379908Y-3012922D02*
G75*
G02*
X-37220000Y-3013000I1079908J-1287078D01*
G01*
X-37012922Y-3220092D02*
G75*
G02*
X-37013000Y-5380000I-1287078J-1079908D01*
G01*
X-37220117Y-5586955D02*
G75*
G02*
X-38300000Y-5980000I-1079883J1286955D01*
G01*
G04 #@! TO.C,J5*
X-52900000Y-8650000D02*
X-52300000Y-8650000D01*
X-52900000Y-7810000D02*
X-52900000Y-8650000D01*
X-43850000Y-250000D02*
X-43850000Y-1250000D01*
X-46350000Y-250000D02*
X-46350000Y-1250000D01*
X-46350000Y-1250000D02*
X-43850000Y-1250000D01*
X-46350000Y-250000D02*
X-43850000Y-250000D01*
X-46128000Y-5123000D02*
X-46374000Y-5369000D01*
X-44030000Y-3025000D02*
X-44241000Y-3236000D01*
X-45970000Y-5375000D02*
X-46169000Y-5574000D01*
X-43825000Y-3231000D02*
X-44071000Y-3477000D01*
X-48850000Y-250000D02*
X-48850000Y-1250000D01*
X-51350000Y-250000D02*
X-51350000Y-1250000D01*
X-51350000Y-1250000D02*
X-48850000Y-1250000D01*
X-51350000Y-250000D02*
X-48850000Y-250000D01*
X-42540000Y-190000D02*
X-42540000Y-8410000D01*
X-52660000Y-190000D02*
X-52660000Y-8410000D01*
X-52660000Y-8410000D02*
X-42540000Y-8410000D01*
X-52660000Y-190000D02*
X-42540000Y-190000D01*
X-52660000Y-2250000D02*
X-42540000Y-2250000D01*
X-52660000Y-7150000D02*
X-42540000Y-7150000D01*
X-52660000Y-7750000D02*
X-42540000Y-7750000D01*
X-43420000Y-4300000D02*
G75*
G03*
X-43420000Y-4300000I-1680000J0D01*
G01*
X-50071493Y-5980511D02*
G75*
G02*
X-51181000Y-5587000I-28507J1680511D01*
G01*
X-51388063Y-5379734D02*
G75*
G02*
X-51387000Y-3219000I1288063J1079734D01*
G01*
X-51179908Y-3012922D02*
G75*
G02*
X-49020000Y-3013000I1079908J-1287078D01*
G01*
X-48812922Y-3220092D02*
G75*
G02*
X-48813000Y-5380000I-1287078J-1079908D01*
G01*
X-49020117Y-5586955D02*
G75*
G02*
X-50100000Y-5980000I-1079883J1286955D01*
G01*
G04 #@! TO.C,L1*
D11*
X-6016667Y-14852380D02*
X-6492858Y-14852380D01*
X-6492858Y-13852380D01*
X-5159524Y-14852380D02*
X-5730953Y-14852380D01*
X-5445239Y-14852380D02*
X-5445239Y-13852380D01*
X-5540477Y-13995238D01*
X-5635715Y-14090476D01*
X-5730953Y-14138095D01*
G04 #@! TO.C,D1*
X-21958096Y-29332380D02*
X-21958096Y-28332380D01*
X-21720000Y-28332380D01*
X-21577143Y-28380000D01*
X-21481905Y-28475238D01*
X-21434286Y-28570476D01*
X-21386667Y-28760952D01*
X-21386667Y-28903809D01*
X-21434286Y-29094285D01*
X-21481905Y-29189523D01*
X-21577143Y-29284761D01*
X-21720000Y-29332380D01*
X-21958096Y-29332380D01*
X-20434286Y-29332380D02*
X-21005715Y-29332380D01*
X-20720000Y-29332380D02*
X-20720000Y-28332380D01*
X-20815239Y-28475238D01*
X-20910477Y-28570476D01*
X-21005715Y-28618095D01*
G04 #@! TO.C,C4*
X-41392858Y-17756666D02*
X-41345239Y-17804285D01*
X-41297620Y-17947142D01*
X-41297620Y-18042380D01*
X-41345239Y-18185238D01*
X-41440477Y-18280476D01*
X-41535715Y-18328095D01*
X-41726191Y-18375714D01*
X-41869048Y-18375714D01*
X-42059524Y-18328095D01*
X-42154762Y-18280476D01*
X-42250000Y-18185238D01*
X-42297620Y-18042380D01*
X-42297620Y-17947142D01*
X-42250000Y-17804285D01*
X-42202381Y-17756666D01*
X-41964286Y-16899523D02*
X-41297620Y-16899523D01*
X-42345239Y-17137619D02*
X-41630953Y-17375714D01*
X-41630953Y-16756666D01*
G04 #@! TO.C,C1*
X-28732858Y-17706666D02*
X-28685239Y-17754285D01*
X-28637620Y-17897142D01*
X-28637620Y-17992380D01*
X-28685239Y-18135238D01*
X-28780477Y-18230476D01*
X-28875715Y-18278095D01*
X-29066191Y-18325714D01*
X-29209048Y-18325714D01*
X-29399524Y-18278095D01*
X-29494762Y-18230476D01*
X-29590000Y-18135238D01*
X-29637620Y-17992380D01*
X-29637620Y-17897142D01*
X-29590000Y-17754285D01*
X-29542381Y-17706666D01*
X-28637620Y-16754285D02*
X-28637620Y-17325714D01*
X-28637620Y-17040000D02*
X-29637620Y-17040000D01*
X-29494762Y-17135238D01*
X-29399524Y-17230476D01*
X-29351905Y-17325714D01*
G04 #@! TO.C,PS1*
X-20557620Y-20014285D02*
X-21557620Y-20014285D01*
X-21557620Y-19633333D01*
X-21510000Y-19538095D01*
X-21462381Y-19490476D01*
X-21367143Y-19442857D01*
X-21224286Y-19442857D01*
X-21129048Y-19490476D01*
X-21081429Y-19538095D01*
X-21033810Y-19633333D01*
X-21033810Y-20014285D01*
X-20605239Y-19061904D02*
X-20557620Y-18919047D01*
X-20557620Y-18680952D01*
X-20605239Y-18585714D01*
X-20652858Y-18538095D01*
X-20748096Y-18490476D01*
X-20843334Y-18490476D01*
X-20938572Y-18538095D01*
X-20986191Y-18585714D01*
X-21033810Y-18680952D01*
X-21081429Y-18871428D01*
X-21129048Y-18966666D01*
X-21176667Y-19014285D01*
X-21271905Y-19061904D01*
X-21367143Y-19061904D01*
X-21462381Y-19014285D01*
X-21510000Y-18966666D01*
X-21557620Y-18871428D01*
X-21557620Y-18633333D01*
X-21510000Y-18490476D01*
X-20557620Y-17538095D02*
X-20557620Y-18109523D01*
X-20557620Y-17823809D02*
X-21557620Y-17823809D01*
X-21414762Y-17919047D01*
X-21319524Y-18014285D01*
X-21271905Y-18109523D01*
G04 #@! TO.C,C3*
X-25946667Y-977142D02*
X-25994286Y-1024761D01*
X-26137143Y-1072380D01*
X-26232381Y-1072380D01*
X-26375239Y-1024761D01*
X-26470477Y-929523D01*
X-26518096Y-834285D01*
X-26565715Y-643809D01*
X-26565715Y-500952D01*
X-26518096Y-310476D01*
X-26470477Y-215238D01*
X-26375239Y-120000D01*
X-26232381Y-72380D01*
X-26137143Y-72380D01*
X-25994286Y-120000D01*
X-25946667Y-167619D01*
X-25613334Y-72380D02*
X-24994286Y-72380D01*
X-25327620Y-453333D01*
X-25184762Y-453333D01*
X-25089524Y-500952D01*
X-25041905Y-548571D01*
X-24994286Y-643809D01*
X-24994286Y-881904D01*
X-25041905Y-977142D01*
X-25089524Y-1024761D01*
X-25184762Y-1072380D01*
X-25470477Y-1072380D01*
X-25565715Y-1024761D01*
X-25613334Y-977142D01*
G04 #@! TO.C,C2*
X-13716667Y-1077142D02*
X-13764286Y-1124761D01*
X-13907143Y-1172380D01*
X-14002381Y-1172380D01*
X-14145239Y-1124761D01*
X-14240477Y-1029523D01*
X-14288096Y-934285D01*
X-14335715Y-743809D01*
X-14335715Y-600952D01*
X-14288096Y-410476D01*
X-14240477Y-315238D01*
X-14145239Y-220000D01*
X-14002381Y-172380D01*
X-13907143Y-172380D01*
X-13764286Y-220000D01*
X-13716667Y-267619D01*
X-13335715Y-267619D02*
X-13288096Y-220000D01*
X-13192858Y-172380D01*
X-12954762Y-172380D01*
X-12859524Y-220000D01*
X-12811905Y-267619D01*
X-12764286Y-362857D01*
X-12764286Y-458095D01*
X-12811905Y-600952D01*
X-13383334Y-1172380D01*
X-12764286Y-1172380D01*
G04 #@! TO.C,J3*
X-56077620Y-58763333D02*
X-55363334Y-58763333D01*
X-55220477Y-58810952D01*
X-55125239Y-58906190D01*
X-55077620Y-59049047D01*
X-55077620Y-59144285D01*
X-56077620Y-58382380D02*
X-56077620Y-57763333D01*
X-55696667Y-58096666D01*
X-55696667Y-57953809D01*
X-55649048Y-57858571D01*
X-55601429Y-57810952D01*
X-55506191Y-57763333D01*
X-55268096Y-57763333D01*
X-55172858Y-57810952D01*
X-55125239Y-57858571D01*
X-55077620Y-57953809D01*
X-55077620Y-58239523D01*
X-55125239Y-58334761D01*
X-55172858Y-58382380D01*
G04 #@! TO.C,J4*
X-64047620Y-56483333D02*
X-63333334Y-56483333D01*
X-63190477Y-56530952D01*
X-63095239Y-56626190D01*
X-63047620Y-56769047D01*
X-63047620Y-56864285D01*
X-63714286Y-55578571D02*
X-63047620Y-55578571D01*
X-64095239Y-55816666D02*
X-63380953Y-56054761D01*
X-63380953Y-55435714D01*
G04 #@! TO.C,J1*
X-40713334Y-9292380D02*
X-40713334Y-10006666D01*
X-40760953Y-10149523D01*
X-40856191Y-10244761D01*
X-40999048Y-10292380D01*
X-41094286Y-10292380D01*
X-39713334Y-10292380D02*
X-40284762Y-10292380D01*
X-39999048Y-10292380D02*
X-39999048Y-9292380D01*
X-40094286Y-9435238D01*
X-40189524Y-9530476D01*
X-40284762Y-9578095D01*
G04 #@! TO.C,J5*
X-43673334Y-9292380D02*
X-43673334Y-10006666D01*
X-43720953Y-10149523D01*
X-43816191Y-10244761D01*
X-43959048Y-10292380D01*
X-44054286Y-10292380D01*
X-42720953Y-9292380D02*
X-43197143Y-9292380D01*
X-43244762Y-9768571D01*
X-43197143Y-9720952D01*
X-43101905Y-9673333D01*
X-42863810Y-9673333D01*
X-42768572Y-9720952D01*
X-42720953Y-9768571D01*
X-42673334Y-9863809D01*
X-42673334Y-10101904D01*
X-42720953Y-10197142D01*
X-42768572Y-10244761D01*
X-42863810Y-10292380D01*
X-43101905Y-10292380D01*
X-43197143Y-10244761D01*
X-43244762Y-10197142D01*
G04 #@! TD*
M02*
