G04 #@! TF.GenerationSoftware,KiCad,Pcbnew,5.1.8*
G04 #@! TF.CreationDate,2021-01-02T16:40:16+01:00*
G04 #@! TF.ProjectId,F008_gpio2parallel,46303038-5f67-4706-996f-32706172616c,rev?*
G04 #@! TF.SameCoordinates,PXa52d280PY2b953a0*
G04 #@! TF.FileFunction,Soldermask,Top*
G04 #@! TF.FilePolarity,Negative*
%FSLAX46Y46*%
G04 Gerber Fmt 4.6, Leading zero omitted, Abs format (unit mm)*
G04 Created by KiCad (PCBNEW 5.1.8) date 2021-01-02 16:40:16*
%MOMM*%
%LPD*%
G01*
G04 APERTURE LIST*
%ADD10O,1.802000X1.802000*%
%ADD11C,4.102000*%
%ADD12C,1.702000*%
%ADD13C,2.202000*%
%ADD14C,0.100000*%
G04 APERTURE END LIST*
G04 #@! TO.C,L1*
G36*
G01*
X-8451000Y-26200000D02*
X-8451000Y-20200000D01*
G75*
G02*
X-8400000Y-20149000I51000J0D01*
G01*
X-2900000Y-20149000D01*
G75*
G02*
X-2849000Y-20200000I0J-51000D01*
G01*
X-2849000Y-26200000D01*
G75*
G02*
X-2900000Y-26251000I-51000J0D01*
G01*
X-8400000Y-26251000D01*
G75*
G02*
X-8451000Y-26200000I0J51000D01*
G01*
G37*
G36*
G01*
X-20451000Y-26200000D02*
X-20451000Y-20200000D01*
G75*
G02*
X-20400000Y-20149000I51000J0D01*
G01*
X-14900000Y-20149000D01*
G75*
G02*
X-14849000Y-20200000I0J-51000D01*
G01*
X-14849000Y-26200000D01*
G75*
G02*
X-14900000Y-26251000I-51000J0D01*
G01*
X-20400000Y-26251000D01*
G75*
G02*
X-20451000Y-26200000I0J51000D01*
G01*
G37*
G04 #@! TD*
G04 #@! TO.C,D1*
G36*
G01*
X-24924000Y-25114758D02*
X-24924000Y-26885242D01*
G75*
G02*
X-25389758Y-27351000I-465758J0D01*
G01*
X-27060242Y-27351000D01*
G75*
G02*
X-27526000Y-26885242I0J465758D01*
G01*
X-27526000Y-25114758D01*
G75*
G02*
X-27060242Y-24649000I465758J0D01*
G01*
X-25389758Y-24649000D01*
G75*
G02*
X-24924000Y-25114758I0J-465758D01*
G01*
G37*
G36*
G01*
X-21174000Y-25114758D02*
X-21174000Y-26885242D01*
G75*
G02*
X-21639758Y-27351000I-465758J0D01*
G01*
X-23310242Y-27351000D01*
G75*
G02*
X-23776000Y-26885242I0J465758D01*
G01*
X-23776000Y-25114758D01*
G75*
G02*
X-23310242Y-24649000I465758J0D01*
G01*
X-21639758Y-24649000D01*
G75*
G02*
X-21174000Y-25114758I0J-465758D01*
G01*
G37*
G04 #@! TD*
G04 #@! TO.C,C4*
G36*
G01*
X-48990800Y-19539000D02*
X-46909200Y-19539000D01*
G75*
G02*
X-46649000Y-19799200I0J-260200D01*
G01*
X-46649000Y-23380800D01*
G75*
G02*
X-46909200Y-23641000I-260200J0D01*
G01*
X-48990800Y-23641000D01*
G75*
G02*
X-49251000Y-23380800I0J260200D01*
G01*
X-49251000Y-19799200D01*
G75*
G02*
X-48990800Y-19539000I260200J0D01*
G01*
G37*
G36*
G01*
X-48990800Y-11539000D02*
X-46909200Y-11539000D01*
G75*
G02*
X-46649000Y-11799200I0J-260200D01*
G01*
X-46649000Y-15380800D01*
G75*
G02*
X-46909200Y-15641000I-260200J0D01*
G01*
X-48990800Y-15641000D01*
G75*
G02*
X-49251000Y-15380800I0J260200D01*
G01*
X-49251000Y-11799200D01*
G75*
G02*
X-48990800Y-11539000I260200J0D01*
G01*
G37*
G04 #@! TD*
G04 #@! TO.C,C1*
G36*
G01*
X-36330800Y-19489000D02*
X-34249200Y-19489000D01*
G75*
G02*
X-33989000Y-19749200I0J-260200D01*
G01*
X-33989000Y-23330800D01*
G75*
G02*
X-34249200Y-23591000I-260200J0D01*
G01*
X-36330800Y-23591000D01*
G75*
G02*
X-36591000Y-23330800I0J260200D01*
G01*
X-36591000Y-19749200D01*
G75*
G02*
X-36330800Y-19489000I260200J0D01*
G01*
G37*
G36*
G01*
X-36330800Y-11489000D02*
X-34249200Y-11489000D01*
G75*
G02*
X-33989000Y-11749200I0J-260200D01*
G01*
X-33989000Y-15330800D01*
G75*
G02*
X-34249200Y-15591000I-260200J0D01*
G01*
X-36330800Y-15591000D01*
G75*
G02*
X-36591000Y-15330800I0J260200D01*
G01*
X-36591000Y-11749200D01*
G75*
G02*
X-36330800Y-11489000I260200J0D01*
G01*
G37*
G04 #@! TD*
G04 #@! TO.C,PS1*
G36*
G01*
X-22905000Y-20474000D02*
X-22305000Y-20474000D01*
G75*
G02*
X-22254000Y-20525000I0J-51000D01*
G01*
X-22254000Y-22525000D01*
G75*
G02*
X-22305000Y-22576000I-51000J0D01*
G01*
X-22905000Y-22576000D01*
G75*
G02*
X-22956000Y-22525000I0J51000D01*
G01*
X-22956000Y-20525000D01*
G75*
G02*
X-22905000Y-20474000I51000J0D01*
G01*
G37*
G36*
G01*
X-24175000Y-20474000D02*
X-23575000Y-20474000D01*
G75*
G02*
X-23524000Y-20525000I0J-51000D01*
G01*
X-23524000Y-22525000D01*
G75*
G02*
X-23575000Y-22576000I-51000J0D01*
G01*
X-24175000Y-22576000D01*
G75*
G02*
X-24226000Y-22525000I0J51000D01*
G01*
X-24226000Y-20525000D01*
G75*
G02*
X-24175000Y-20474000I51000J0D01*
G01*
G37*
G36*
G01*
X-25445000Y-20474000D02*
X-24845000Y-20474000D01*
G75*
G02*
X-24794000Y-20525000I0J-51000D01*
G01*
X-24794000Y-22525000D01*
G75*
G02*
X-24845000Y-22576000I-51000J0D01*
G01*
X-25445000Y-22576000D01*
G75*
G02*
X-25496000Y-22525000I0J51000D01*
G01*
X-25496000Y-20525000D01*
G75*
G02*
X-25445000Y-20474000I51000J0D01*
G01*
G37*
G36*
G01*
X-26715000Y-20474000D02*
X-26115000Y-20474000D01*
G75*
G02*
X-26064000Y-20525000I0J-51000D01*
G01*
X-26064000Y-22525000D01*
G75*
G02*
X-26115000Y-22576000I-51000J0D01*
G01*
X-26715000Y-22576000D01*
G75*
G02*
X-26766000Y-22525000I0J51000D01*
G01*
X-26766000Y-20525000D01*
G75*
G02*
X-26715000Y-20474000I51000J0D01*
G01*
G37*
G36*
G01*
X-26715000Y-15024000D02*
X-26115000Y-15024000D01*
G75*
G02*
X-26064000Y-15075000I0J-51000D01*
G01*
X-26064000Y-17075000D01*
G75*
G02*
X-26115000Y-17126000I-51000J0D01*
G01*
X-26715000Y-17126000D01*
G75*
G02*
X-26766000Y-17075000I0J51000D01*
G01*
X-26766000Y-15075000D01*
G75*
G02*
X-26715000Y-15024000I51000J0D01*
G01*
G37*
G36*
G01*
X-25445000Y-15024000D02*
X-24845000Y-15024000D01*
G75*
G02*
X-24794000Y-15075000I0J-51000D01*
G01*
X-24794000Y-17075000D01*
G75*
G02*
X-24845000Y-17126000I-51000J0D01*
G01*
X-25445000Y-17126000D01*
G75*
G02*
X-25496000Y-17075000I0J51000D01*
G01*
X-25496000Y-15075000D01*
G75*
G02*
X-25445000Y-15024000I51000J0D01*
G01*
G37*
G36*
G01*
X-24175000Y-15024000D02*
X-23575000Y-15024000D01*
G75*
G02*
X-23524000Y-15075000I0J-51000D01*
G01*
X-23524000Y-17075000D01*
G75*
G02*
X-23575000Y-17126000I-51000J0D01*
G01*
X-24175000Y-17126000D01*
G75*
G02*
X-24226000Y-17075000I0J51000D01*
G01*
X-24226000Y-15075000D01*
G75*
G02*
X-24175000Y-15024000I51000J0D01*
G01*
G37*
G36*
G01*
X-22905000Y-15024000D02*
X-22305000Y-15024000D01*
G75*
G02*
X-22254000Y-15075000I0J-51000D01*
G01*
X-22254000Y-17075000D01*
G75*
G02*
X-22305000Y-17126000I-51000J0D01*
G01*
X-22905000Y-17126000D01*
G75*
G02*
X-22956000Y-17075000I0J51000D01*
G01*
X-22956000Y-15075000D01*
G75*
G02*
X-22905000Y-15024000I51000J0D01*
G01*
G37*
G04 #@! TD*
G04 #@! TO.C,C3*
G36*
G01*
X-20659200Y-5051000D02*
X-22740800Y-5051000D01*
G75*
G02*
X-23001000Y-4790800I0J260200D01*
G01*
X-23001000Y-1209200D01*
G75*
G02*
X-22740800Y-949000I260200J0D01*
G01*
X-20659200Y-949000D01*
G75*
G02*
X-20399000Y-1209200I0J-260200D01*
G01*
X-20399000Y-4790800D01*
G75*
G02*
X-20659200Y-5051000I-260200J0D01*
G01*
G37*
G36*
G01*
X-20659200Y-13051000D02*
X-22740800Y-13051000D01*
G75*
G02*
X-23001000Y-12790800I0J260200D01*
G01*
X-23001000Y-9209200D01*
G75*
G02*
X-22740800Y-8949000I260200J0D01*
G01*
X-20659200Y-8949000D01*
G75*
G02*
X-20399000Y-9209200I0J-260200D01*
G01*
X-20399000Y-12790800D01*
G75*
G02*
X-20659200Y-13051000I-260200J0D01*
G01*
G37*
G04 #@! TD*
G04 #@! TO.C,C2*
G36*
G01*
X-8159200Y-5151000D02*
X-10240800Y-5151000D01*
G75*
G02*
X-10501000Y-4890800I0J260200D01*
G01*
X-10501000Y-1309200D01*
G75*
G02*
X-10240800Y-1049000I260200J0D01*
G01*
X-8159200Y-1049000D01*
G75*
G02*
X-7899000Y-1309200I0J-260200D01*
G01*
X-7899000Y-4890800D01*
G75*
G02*
X-8159200Y-5151000I-260200J0D01*
G01*
G37*
G36*
G01*
X-8159200Y-13151000D02*
X-10240800Y-13151000D01*
G75*
G02*
X-10501000Y-12890800I0J260200D01*
G01*
X-10501000Y-9309200D01*
G75*
G02*
X-10240800Y-9049000I260200J0D01*
G01*
X-8159200Y-9049000D01*
G75*
G02*
X-7899000Y-9309200I0J-260200D01*
G01*
X-7899000Y-12890800D01*
G75*
G02*
X-8159200Y-13151000I-260200J0D01*
G01*
G37*
G04 #@! TD*
D10*
G04 #@! TO.C,J2*
X-5040000Y-50260000D03*
X-5040000Y-52800000D03*
X-7580000Y-50260000D03*
X-7580000Y-52800000D03*
X-10120000Y-50260000D03*
X-10120000Y-52800000D03*
X-12660000Y-50260000D03*
X-12660000Y-52800000D03*
X-15200000Y-50260000D03*
X-15200000Y-52800000D03*
X-17740000Y-50260000D03*
X-17740000Y-52800000D03*
X-20280000Y-50260000D03*
X-20280000Y-52800000D03*
X-22820000Y-50260000D03*
X-22820000Y-52800000D03*
X-25360000Y-50260000D03*
X-25360000Y-52800000D03*
X-27900000Y-50260000D03*
X-27900000Y-52800000D03*
X-30440000Y-50260000D03*
X-30440000Y-52800000D03*
X-32980000Y-50260000D03*
X-32980000Y-52800000D03*
X-35520000Y-50260000D03*
X-35520000Y-52800000D03*
X-38060000Y-50260000D03*
X-38060000Y-52800000D03*
X-40600000Y-50260000D03*
X-40600000Y-52800000D03*
X-43140000Y-50260000D03*
X-43140000Y-52800000D03*
X-45680000Y-50260000D03*
X-45680000Y-52800000D03*
X-48220000Y-50260000D03*
X-48220000Y-52800000D03*
X-50760000Y-50260000D03*
X-50760000Y-52800000D03*
X-53300000Y-50260000D03*
G36*
G01*
X-54150000Y-51899000D02*
X-52450000Y-51899000D01*
G75*
G02*
X-52399000Y-51950000I0J-51000D01*
G01*
X-52399000Y-53650000D01*
G75*
G02*
X-52450000Y-53701000I-51000J0D01*
G01*
X-54150000Y-53701000D01*
G75*
G02*
X-54201000Y-53650000I0J51000D01*
G01*
X-54201000Y-51950000D01*
G75*
G02*
X-54150000Y-51899000I51000J0D01*
G01*
G37*
G04 #@! TD*
G04 #@! TO.C,J3*
X-4940000Y-57160000D03*
X-4940000Y-59700000D03*
X-7480000Y-57160000D03*
X-7480000Y-59700000D03*
X-10020000Y-57160000D03*
X-10020000Y-59700000D03*
X-12560000Y-57160000D03*
X-12560000Y-59700000D03*
X-15100000Y-57160000D03*
X-15100000Y-59700000D03*
X-17640000Y-57160000D03*
X-17640000Y-59700000D03*
X-20180000Y-57160000D03*
X-20180000Y-59700000D03*
X-22720000Y-57160000D03*
X-22720000Y-59700000D03*
X-25260000Y-57160000D03*
X-25260000Y-59700000D03*
X-27800000Y-57160000D03*
X-27800000Y-59700000D03*
X-30340000Y-57160000D03*
X-30340000Y-59700000D03*
X-32880000Y-57160000D03*
X-32880000Y-59700000D03*
X-35420000Y-57160000D03*
X-35420000Y-59700000D03*
X-37960000Y-57160000D03*
X-37960000Y-59700000D03*
X-40500000Y-57160000D03*
X-40500000Y-59700000D03*
X-43040000Y-57160000D03*
X-43040000Y-59700000D03*
X-45580000Y-57160000D03*
X-45580000Y-59700000D03*
X-48120000Y-57160000D03*
X-48120000Y-59700000D03*
X-50660000Y-57160000D03*
X-50660000Y-59700000D03*
X-53200000Y-57160000D03*
G36*
G01*
X-52350000Y-60601000D02*
X-54050000Y-60601000D01*
G75*
G02*
X-54101000Y-60550000I0J51000D01*
G01*
X-54101000Y-58850000D01*
G75*
G02*
X-54050000Y-58799000I51000J0D01*
G01*
X-52350000Y-58799000D01*
G75*
G02*
X-52299000Y-58850000I0J-51000D01*
G01*
X-52299000Y-60550000D01*
G75*
G02*
X-52350000Y-60601000I-51000J0D01*
G01*
G37*
G04 #@! TD*
D11*
G04 #@! TO.C,J4*
X-66120000Y-51030000D03*
X-66120000Y-3930000D03*
D12*
X-67540000Y-12245000D03*
X-67540000Y-15015000D03*
X-67540000Y-17785000D03*
X-67540000Y-20555000D03*
X-67540000Y-23325000D03*
X-67540000Y-26095000D03*
X-67540000Y-28865000D03*
X-67540000Y-31635000D03*
X-67540000Y-34405000D03*
X-67540000Y-37175000D03*
X-67540000Y-39945000D03*
X-67540000Y-42715000D03*
X-64700000Y-10860000D03*
X-64700000Y-13630000D03*
X-64700000Y-16400000D03*
X-64700000Y-19170000D03*
X-64700000Y-21940000D03*
X-64700000Y-24710000D03*
X-64700000Y-27480000D03*
X-64700000Y-30250000D03*
X-64700000Y-33020000D03*
X-64700000Y-35790000D03*
X-64700000Y-38560000D03*
X-64700000Y-41330000D03*
G36*
G01*
X-65500000Y-43249000D02*
X-63900000Y-43249000D01*
G75*
G02*
X-63849000Y-43300000I0J-51000D01*
G01*
X-63849000Y-44900000D01*
G75*
G02*
X-63900000Y-44951000I-51000J0D01*
G01*
X-65500000Y-44951000D01*
G75*
G02*
X-65551000Y-44900000I0J51000D01*
G01*
X-65551000Y-43300000D01*
G75*
G02*
X-65500000Y-43249000I51000J0D01*
G01*
G37*
G04 #@! TD*
D13*
G04 #@! TO.C,J1*
X-33300000Y-4300000D03*
G36*
G01*
X-39401000Y-5350000D02*
X-39401000Y-3250000D01*
G75*
G02*
X-39350000Y-3199000I51000J0D01*
G01*
X-37250000Y-3199000D01*
G75*
G02*
X-37199000Y-3250000I0J-51000D01*
G01*
X-37199000Y-5350000D01*
G75*
G02*
X-37250000Y-5401000I-51000J0D01*
G01*
X-39350000Y-5401000D01*
G75*
G02*
X-39401000Y-5350000I0J51000D01*
G01*
G37*
G04 #@! TD*
G04 #@! TO.C,J5*
X-45100000Y-4300000D03*
G36*
G01*
X-51201000Y-5350000D02*
X-51201000Y-3250000D01*
G75*
G02*
X-51150000Y-3199000I51000J0D01*
G01*
X-49050000Y-3199000D01*
G75*
G02*
X-48999000Y-3250000I0J-51000D01*
G01*
X-48999000Y-5350000D01*
G75*
G02*
X-49050000Y-5401000I-51000J0D01*
G01*
X-51150000Y-5401000D01*
G75*
G02*
X-51201000Y-5350000I0J51000D01*
G01*
G37*
G04 #@! TD*
D14*
G36*
X-24922835Y-26883616D02*
G01*
X-24922000Y-26885242D01*
X-24922000Y-26959352D01*
X-24922010Y-26959548D01*
X-24930010Y-27040777D01*
X-24930086Y-27041162D01*
X-24951990Y-27113370D01*
X-24952140Y-27113732D01*
X-24987709Y-27180276D01*
X-24987927Y-27180602D01*
X-25035794Y-27238929D01*
X-25036071Y-27239206D01*
X-25094398Y-27287073D01*
X-25094724Y-27287291D01*
X-25161268Y-27322860D01*
X-25161630Y-27323010D01*
X-25233838Y-27344914D01*
X-25234223Y-27344990D01*
X-25315452Y-27352990D01*
X-25315648Y-27353000D01*
X-25389758Y-27353000D01*
X-25391490Y-27352000D01*
X-25391490Y-27350000D01*
X-25389954Y-27349010D01*
X-25299288Y-27340081D01*
X-25212289Y-27313689D01*
X-25132113Y-27270835D01*
X-25061838Y-27213162D01*
X-25004165Y-27142887D01*
X-24961311Y-27062711D01*
X-24934919Y-26975712D01*
X-24925990Y-26885046D01*
X-24924825Y-26883420D01*
X-24922835Y-26883616D01*
G37*
G36*
X-21172835Y-26883616D02*
G01*
X-21172000Y-26885242D01*
X-21172000Y-26959352D01*
X-21172010Y-26959548D01*
X-21180010Y-27040777D01*
X-21180086Y-27041162D01*
X-21201990Y-27113370D01*
X-21202140Y-27113732D01*
X-21237709Y-27180276D01*
X-21237927Y-27180602D01*
X-21285794Y-27238929D01*
X-21286071Y-27239206D01*
X-21344398Y-27287073D01*
X-21344724Y-27287291D01*
X-21411268Y-27322860D01*
X-21411630Y-27323010D01*
X-21483838Y-27344914D01*
X-21484223Y-27344990D01*
X-21565452Y-27352990D01*
X-21565648Y-27353000D01*
X-21639758Y-27353000D01*
X-21641490Y-27352000D01*
X-21641490Y-27350000D01*
X-21639954Y-27349010D01*
X-21549288Y-27340081D01*
X-21462289Y-27313689D01*
X-21382113Y-27270835D01*
X-21311838Y-27213162D01*
X-21254165Y-27142887D01*
X-21211311Y-27062711D01*
X-21184919Y-26975712D01*
X-21175990Y-26885046D01*
X-21174825Y-26883420D01*
X-21172835Y-26883616D01*
G37*
G36*
X-27524010Y-26885046D02*
G01*
X-27515081Y-26975712D01*
X-27488689Y-27062711D01*
X-27445835Y-27142887D01*
X-27388162Y-27213162D01*
X-27317887Y-27270835D01*
X-27237711Y-27313689D01*
X-27150712Y-27340081D01*
X-27060046Y-27349010D01*
X-27058420Y-27350175D01*
X-27058616Y-27352165D01*
X-27060242Y-27353000D01*
X-27134352Y-27353000D01*
X-27134548Y-27352990D01*
X-27215777Y-27344990D01*
X-27216162Y-27344914D01*
X-27288370Y-27323010D01*
X-27288732Y-27322860D01*
X-27355276Y-27287291D01*
X-27355602Y-27287073D01*
X-27413929Y-27239206D01*
X-27414206Y-27238929D01*
X-27462073Y-27180602D01*
X-27462291Y-27180276D01*
X-27497860Y-27113732D01*
X-27498010Y-27113370D01*
X-27519914Y-27041162D01*
X-27519990Y-27040777D01*
X-27527990Y-26959548D01*
X-27528000Y-26959352D01*
X-27528000Y-26885242D01*
X-27527000Y-26883510D01*
X-27525000Y-26883510D01*
X-27524010Y-26885046D01*
G37*
G36*
X-23774010Y-26885046D02*
G01*
X-23765081Y-26975712D01*
X-23738689Y-27062711D01*
X-23695835Y-27142887D01*
X-23638162Y-27213162D01*
X-23567887Y-27270835D01*
X-23487711Y-27313689D01*
X-23400712Y-27340081D01*
X-23310046Y-27349010D01*
X-23308420Y-27350175D01*
X-23308616Y-27352165D01*
X-23310242Y-27353000D01*
X-23384352Y-27353000D01*
X-23384548Y-27352990D01*
X-23465777Y-27344990D01*
X-23466162Y-27344914D01*
X-23538370Y-27323010D01*
X-23538732Y-27322860D01*
X-23605276Y-27287291D01*
X-23605602Y-27287073D01*
X-23663929Y-27239206D01*
X-23664206Y-27238929D01*
X-23712073Y-27180602D01*
X-23712291Y-27180276D01*
X-23747860Y-27113732D01*
X-23748010Y-27113370D01*
X-23769914Y-27041162D01*
X-23769990Y-27040777D01*
X-23777990Y-26959548D01*
X-23778000Y-26959352D01*
X-23778000Y-26885242D01*
X-23777000Y-26883510D01*
X-23775000Y-26883510D01*
X-23774010Y-26885046D01*
G37*
G36*
X-27058510Y-24648000D02*
G01*
X-27058510Y-24650000D01*
X-27060046Y-24650990D01*
X-27150712Y-24659919D01*
X-27237711Y-24686311D01*
X-27317887Y-24729165D01*
X-27388162Y-24786838D01*
X-27445835Y-24857113D01*
X-27488689Y-24937289D01*
X-27515081Y-25024288D01*
X-27524010Y-25114954D01*
X-27525175Y-25116580D01*
X-27527165Y-25116384D01*
X-27528000Y-25114758D01*
X-27528000Y-25040648D01*
X-27527990Y-25040452D01*
X-27519990Y-24959223D01*
X-27519914Y-24958838D01*
X-27498010Y-24886630D01*
X-27497860Y-24886268D01*
X-27462291Y-24819724D01*
X-27462073Y-24819398D01*
X-27414206Y-24761071D01*
X-27413929Y-24760794D01*
X-27355602Y-24712927D01*
X-27355276Y-24712709D01*
X-27288732Y-24677140D01*
X-27288370Y-24676990D01*
X-27216162Y-24655086D01*
X-27215777Y-24655010D01*
X-27134548Y-24647010D01*
X-27134352Y-24647000D01*
X-27060242Y-24647000D01*
X-27058510Y-24648000D01*
G37*
G36*
X-23308510Y-24648000D02*
G01*
X-23308510Y-24650000D01*
X-23310046Y-24650990D01*
X-23400712Y-24659919D01*
X-23487711Y-24686311D01*
X-23567887Y-24729165D01*
X-23638162Y-24786838D01*
X-23695835Y-24857113D01*
X-23738689Y-24937289D01*
X-23765081Y-25024288D01*
X-23774010Y-25114954D01*
X-23775175Y-25116580D01*
X-23777165Y-25116384D01*
X-23778000Y-25114758D01*
X-23778000Y-25040648D01*
X-23777990Y-25040452D01*
X-23769990Y-24959223D01*
X-23769914Y-24958838D01*
X-23748010Y-24886630D01*
X-23747860Y-24886268D01*
X-23712291Y-24819724D01*
X-23712073Y-24819398D01*
X-23664206Y-24761071D01*
X-23663929Y-24760794D01*
X-23605602Y-24712927D01*
X-23605276Y-24712709D01*
X-23538732Y-24677140D01*
X-23538370Y-24676990D01*
X-23466162Y-24655086D01*
X-23465777Y-24655010D01*
X-23384548Y-24647010D01*
X-23384352Y-24647000D01*
X-23310242Y-24647000D01*
X-23308510Y-24648000D01*
G37*
G36*
X-25315452Y-24647010D02*
G01*
X-25234223Y-24655010D01*
X-25233838Y-24655086D01*
X-25161630Y-24676990D01*
X-25161268Y-24677140D01*
X-25094724Y-24712709D01*
X-25094398Y-24712927D01*
X-25036071Y-24760794D01*
X-25035794Y-24761071D01*
X-24987927Y-24819398D01*
X-24987709Y-24819724D01*
X-24952140Y-24886268D01*
X-24951990Y-24886630D01*
X-24930086Y-24958838D01*
X-24930010Y-24959223D01*
X-24922010Y-25040452D01*
X-24922000Y-25040648D01*
X-24922000Y-25114758D01*
X-24923000Y-25116490D01*
X-24925000Y-25116490D01*
X-24925990Y-25114954D01*
X-24934919Y-25024288D01*
X-24961311Y-24937289D01*
X-25004165Y-24857113D01*
X-25061838Y-24786838D01*
X-25132113Y-24729165D01*
X-25212289Y-24686311D01*
X-25299288Y-24659919D01*
X-25389954Y-24650990D01*
X-25391580Y-24649825D01*
X-25391384Y-24647835D01*
X-25389758Y-24647000D01*
X-25315648Y-24647000D01*
X-25315452Y-24647010D01*
G37*
G36*
X-21565452Y-24647010D02*
G01*
X-21484223Y-24655010D01*
X-21483838Y-24655086D01*
X-21411630Y-24676990D01*
X-21411268Y-24677140D01*
X-21344724Y-24712709D01*
X-21344398Y-24712927D01*
X-21286071Y-24760794D01*
X-21285794Y-24761071D01*
X-21237927Y-24819398D01*
X-21237709Y-24819724D01*
X-21202140Y-24886268D01*
X-21201990Y-24886630D01*
X-21180086Y-24958838D01*
X-21180010Y-24959223D01*
X-21172010Y-25040452D01*
X-21172000Y-25040648D01*
X-21172000Y-25114758D01*
X-21173000Y-25116490D01*
X-21175000Y-25116490D01*
X-21175990Y-25114954D01*
X-21184919Y-25024288D01*
X-21211311Y-24937289D01*
X-21254165Y-24857113D01*
X-21311838Y-24786838D01*
X-21382113Y-24729165D01*
X-21462289Y-24686311D01*
X-21549288Y-24659919D01*
X-21639954Y-24650990D01*
X-21641580Y-24649825D01*
X-21641384Y-24647835D01*
X-21639758Y-24647000D01*
X-21565648Y-24647000D01*
X-21565452Y-24647010D01*
G37*
G36*
X-46647835Y-23379174D02*
G01*
X-46647000Y-23380800D01*
X-46647000Y-23474660D01*
X-46647010Y-23474856D01*
X-46650681Y-23512130D01*
X-46650757Y-23512515D01*
X-46659840Y-23542458D01*
X-46659990Y-23542820D01*
X-46674736Y-23570408D01*
X-46674954Y-23570734D01*
X-46694803Y-23594920D01*
X-46695080Y-23595197D01*
X-46719266Y-23615046D01*
X-46719592Y-23615264D01*
X-46747180Y-23630010D01*
X-46747542Y-23630160D01*
X-46777485Y-23639243D01*
X-46777870Y-23639319D01*
X-46815144Y-23642990D01*
X-46815340Y-23643000D01*
X-46909200Y-23643000D01*
X-46910932Y-23642000D01*
X-46910932Y-23640000D01*
X-46909396Y-23639010D01*
X-46858832Y-23634030D01*
X-46810395Y-23619336D01*
X-46765757Y-23595477D01*
X-46726632Y-23563368D01*
X-46694523Y-23524243D01*
X-46670664Y-23479605D01*
X-46655970Y-23431168D01*
X-46650990Y-23380604D01*
X-46649825Y-23378978D01*
X-46647835Y-23379174D01*
G37*
G36*
X-49249010Y-23380604D02*
G01*
X-49244030Y-23431168D01*
X-49229336Y-23479605D01*
X-49205477Y-23524243D01*
X-49173368Y-23563368D01*
X-49134243Y-23595477D01*
X-49089605Y-23619336D01*
X-49041168Y-23634030D01*
X-48990604Y-23639010D01*
X-48988978Y-23640175D01*
X-48989174Y-23642165D01*
X-48990800Y-23643000D01*
X-49084660Y-23643000D01*
X-49084856Y-23642990D01*
X-49122130Y-23639319D01*
X-49122515Y-23639243D01*
X-49152458Y-23630160D01*
X-49152820Y-23630010D01*
X-49180408Y-23615264D01*
X-49180734Y-23615046D01*
X-49204920Y-23595197D01*
X-49205197Y-23594920D01*
X-49225046Y-23570734D01*
X-49225264Y-23570408D01*
X-49240010Y-23542820D01*
X-49240160Y-23542458D01*
X-49249243Y-23512515D01*
X-49249319Y-23512130D01*
X-49252990Y-23474856D01*
X-49253000Y-23474660D01*
X-49253000Y-23380800D01*
X-49252000Y-23379068D01*
X-49250000Y-23379068D01*
X-49249010Y-23380604D01*
G37*
G36*
X-36589010Y-23330604D02*
G01*
X-36584030Y-23381168D01*
X-36569336Y-23429605D01*
X-36545477Y-23474243D01*
X-36513368Y-23513368D01*
X-36474243Y-23545477D01*
X-36429605Y-23569336D01*
X-36381168Y-23584030D01*
X-36330604Y-23589010D01*
X-36328978Y-23590175D01*
X-36329174Y-23592165D01*
X-36330800Y-23593000D01*
X-36424660Y-23593000D01*
X-36424856Y-23592990D01*
X-36462130Y-23589319D01*
X-36462515Y-23589243D01*
X-36492458Y-23580160D01*
X-36492820Y-23580010D01*
X-36520408Y-23565264D01*
X-36520734Y-23565046D01*
X-36544920Y-23545197D01*
X-36545197Y-23544920D01*
X-36565046Y-23520734D01*
X-36565264Y-23520408D01*
X-36580010Y-23492820D01*
X-36580160Y-23492458D01*
X-36589243Y-23462515D01*
X-36589319Y-23462130D01*
X-36592990Y-23424856D01*
X-36593000Y-23424660D01*
X-36593000Y-23330800D01*
X-36592000Y-23329068D01*
X-36590000Y-23329068D01*
X-36589010Y-23330604D01*
G37*
G36*
X-33987835Y-23329174D02*
G01*
X-33987000Y-23330800D01*
X-33987000Y-23424660D01*
X-33987010Y-23424856D01*
X-33990681Y-23462130D01*
X-33990757Y-23462515D01*
X-33999840Y-23492458D01*
X-33999990Y-23492820D01*
X-34014736Y-23520408D01*
X-34014954Y-23520734D01*
X-34034803Y-23544920D01*
X-34035080Y-23545197D01*
X-34059266Y-23565046D01*
X-34059592Y-23565264D01*
X-34087180Y-23580010D01*
X-34087542Y-23580160D01*
X-34117485Y-23589243D01*
X-34117870Y-23589319D01*
X-34155144Y-23592990D01*
X-34155340Y-23593000D01*
X-34249200Y-23593000D01*
X-34250932Y-23592000D01*
X-34250932Y-23590000D01*
X-34249396Y-23589010D01*
X-34198832Y-23584030D01*
X-34150395Y-23569336D01*
X-34105757Y-23545477D01*
X-34066632Y-23513368D01*
X-34034523Y-23474243D01*
X-34010664Y-23429605D01*
X-33995970Y-23381168D01*
X-33990990Y-23330604D01*
X-33989825Y-23328978D01*
X-33987835Y-23329174D01*
G37*
G36*
X-48989068Y-19538000D02*
G01*
X-48989068Y-19540000D01*
X-48990604Y-19540990D01*
X-49041168Y-19545970D01*
X-49089605Y-19560664D01*
X-49134243Y-19584523D01*
X-49173368Y-19616632D01*
X-49205477Y-19655757D01*
X-49229336Y-19700395D01*
X-49244030Y-19748832D01*
X-49249010Y-19799396D01*
X-49250175Y-19801022D01*
X-49252165Y-19800826D01*
X-49253000Y-19799200D01*
X-49253000Y-19705340D01*
X-49252990Y-19705144D01*
X-49249319Y-19667870D01*
X-49249243Y-19667485D01*
X-49240160Y-19637542D01*
X-49240010Y-19637180D01*
X-49225264Y-19609592D01*
X-49225046Y-19609266D01*
X-49205197Y-19585080D01*
X-49204920Y-19584803D01*
X-49180734Y-19564954D01*
X-49180408Y-19564736D01*
X-49152820Y-19549990D01*
X-49152458Y-19549840D01*
X-49122515Y-19540757D01*
X-49122130Y-19540681D01*
X-49084856Y-19537010D01*
X-49084660Y-19537000D01*
X-48990800Y-19537000D01*
X-48989068Y-19538000D01*
G37*
G36*
X-46815144Y-19537010D02*
G01*
X-46777870Y-19540681D01*
X-46777485Y-19540757D01*
X-46747542Y-19549840D01*
X-46747180Y-19549990D01*
X-46719592Y-19564736D01*
X-46719266Y-19564954D01*
X-46695080Y-19584803D01*
X-46694803Y-19585080D01*
X-46674954Y-19609266D01*
X-46674736Y-19609592D01*
X-46659990Y-19637180D01*
X-46659840Y-19637542D01*
X-46650757Y-19667485D01*
X-46650681Y-19667870D01*
X-46647010Y-19705144D01*
X-46647000Y-19705340D01*
X-46647000Y-19799200D01*
X-46648000Y-19800932D01*
X-46650000Y-19800932D01*
X-46650990Y-19799396D01*
X-46655970Y-19748832D01*
X-46670664Y-19700395D01*
X-46694523Y-19655757D01*
X-46726632Y-19616632D01*
X-46765757Y-19584523D01*
X-46810395Y-19560664D01*
X-46858832Y-19545970D01*
X-46909396Y-19540990D01*
X-46911022Y-19539825D01*
X-46910826Y-19537835D01*
X-46909200Y-19537000D01*
X-46815340Y-19537000D01*
X-46815144Y-19537010D01*
G37*
G36*
X-36329068Y-19488000D02*
G01*
X-36329068Y-19490000D01*
X-36330604Y-19490990D01*
X-36381168Y-19495970D01*
X-36429605Y-19510664D01*
X-36474243Y-19534523D01*
X-36513368Y-19566632D01*
X-36545477Y-19605757D01*
X-36569336Y-19650395D01*
X-36584030Y-19698832D01*
X-36589010Y-19749396D01*
X-36590175Y-19751022D01*
X-36592165Y-19750826D01*
X-36593000Y-19749200D01*
X-36593000Y-19655340D01*
X-36592990Y-19655144D01*
X-36589319Y-19617870D01*
X-36589243Y-19617485D01*
X-36580160Y-19587542D01*
X-36580010Y-19587180D01*
X-36565264Y-19559592D01*
X-36565046Y-19559266D01*
X-36545197Y-19535080D01*
X-36544920Y-19534803D01*
X-36520734Y-19514954D01*
X-36520408Y-19514736D01*
X-36492820Y-19499990D01*
X-36492458Y-19499840D01*
X-36462515Y-19490757D01*
X-36462130Y-19490681D01*
X-36424856Y-19487010D01*
X-36424660Y-19487000D01*
X-36330800Y-19487000D01*
X-36329068Y-19488000D01*
G37*
G36*
X-34155144Y-19487010D02*
G01*
X-34117870Y-19490681D01*
X-34117485Y-19490757D01*
X-34087542Y-19499840D01*
X-34087180Y-19499990D01*
X-34059592Y-19514736D01*
X-34059266Y-19514954D01*
X-34035080Y-19534803D01*
X-34034803Y-19535080D01*
X-34014954Y-19559266D01*
X-34014736Y-19559592D01*
X-33999990Y-19587180D01*
X-33999840Y-19587542D01*
X-33990757Y-19617485D01*
X-33990681Y-19617870D01*
X-33987010Y-19655144D01*
X-33987000Y-19655340D01*
X-33987000Y-19749200D01*
X-33988000Y-19750932D01*
X-33990000Y-19750932D01*
X-33990990Y-19749396D01*
X-33995970Y-19698832D01*
X-34010664Y-19650395D01*
X-34034523Y-19605757D01*
X-34066632Y-19566632D01*
X-34105757Y-19534523D01*
X-34150395Y-19510664D01*
X-34198832Y-19495970D01*
X-34249396Y-19490990D01*
X-34251022Y-19489825D01*
X-34250826Y-19487835D01*
X-34249200Y-19487000D01*
X-34155340Y-19487000D01*
X-34155144Y-19487010D01*
G37*
G36*
X-49249010Y-15380604D02*
G01*
X-49244030Y-15431168D01*
X-49229336Y-15479605D01*
X-49205477Y-15524243D01*
X-49173368Y-15563368D01*
X-49134243Y-15595477D01*
X-49089605Y-15619336D01*
X-49041168Y-15634030D01*
X-48990604Y-15639010D01*
X-48988978Y-15640175D01*
X-48989174Y-15642165D01*
X-48990800Y-15643000D01*
X-49084660Y-15643000D01*
X-49084856Y-15642990D01*
X-49122130Y-15639319D01*
X-49122515Y-15639243D01*
X-49152458Y-15630160D01*
X-49152820Y-15630010D01*
X-49180408Y-15615264D01*
X-49180734Y-15615046D01*
X-49204920Y-15595197D01*
X-49205197Y-15594920D01*
X-49225046Y-15570734D01*
X-49225264Y-15570408D01*
X-49240010Y-15542820D01*
X-49240160Y-15542458D01*
X-49249243Y-15512515D01*
X-49249319Y-15512130D01*
X-49252990Y-15474856D01*
X-49253000Y-15474660D01*
X-49253000Y-15380800D01*
X-49252000Y-15379068D01*
X-49250000Y-15379068D01*
X-49249010Y-15380604D01*
G37*
G36*
X-46647835Y-15379174D02*
G01*
X-46647000Y-15380800D01*
X-46647000Y-15474660D01*
X-46647010Y-15474856D01*
X-46650681Y-15512130D01*
X-46650757Y-15512515D01*
X-46659840Y-15542458D01*
X-46659990Y-15542820D01*
X-46674736Y-15570408D01*
X-46674954Y-15570734D01*
X-46694803Y-15594920D01*
X-46695080Y-15595197D01*
X-46719266Y-15615046D01*
X-46719592Y-15615264D01*
X-46747180Y-15630010D01*
X-46747542Y-15630160D01*
X-46777485Y-15639243D01*
X-46777870Y-15639319D01*
X-46815144Y-15642990D01*
X-46815340Y-15643000D01*
X-46909200Y-15643000D01*
X-46910932Y-15642000D01*
X-46910932Y-15640000D01*
X-46909396Y-15639010D01*
X-46858832Y-15634030D01*
X-46810395Y-15619336D01*
X-46765757Y-15595477D01*
X-46726632Y-15563368D01*
X-46694523Y-15524243D01*
X-46670664Y-15479605D01*
X-46655970Y-15431168D01*
X-46650990Y-15380604D01*
X-46649825Y-15378978D01*
X-46647835Y-15379174D01*
G37*
G36*
X-36589010Y-15330604D02*
G01*
X-36584030Y-15381168D01*
X-36569336Y-15429605D01*
X-36545477Y-15474243D01*
X-36513368Y-15513368D01*
X-36474243Y-15545477D01*
X-36429605Y-15569336D01*
X-36381168Y-15584030D01*
X-36330604Y-15589010D01*
X-36328978Y-15590175D01*
X-36329174Y-15592165D01*
X-36330800Y-15593000D01*
X-36424660Y-15593000D01*
X-36424856Y-15592990D01*
X-36462130Y-15589319D01*
X-36462515Y-15589243D01*
X-36492458Y-15580160D01*
X-36492820Y-15580010D01*
X-36520408Y-15565264D01*
X-36520734Y-15565046D01*
X-36544920Y-15545197D01*
X-36545197Y-15544920D01*
X-36565046Y-15520734D01*
X-36565264Y-15520408D01*
X-36580010Y-15492820D01*
X-36580160Y-15492458D01*
X-36589243Y-15462515D01*
X-36589319Y-15462130D01*
X-36592990Y-15424856D01*
X-36593000Y-15424660D01*
X-36593000Y-15330800D01*
X-36592000Y-15329068D01*
X-36590000Y-15329068D01*
X-36589010Y-15330604D01*
G37*
G36*
X-33987835Y-15329174D02*
G01*
X-33987000Y-15330800D01*
X-33987000Y-15424660D01*
X-33987010Y-15424856D01*
X-33990681Y-15462130D01*
X-33990757Y-15462515D01*
X-33999840Y-15492458D01*
X-33999990Y-15492820D01*
X-34014736Y-15520408D01*
X-34014954Y-15520734D01*
X-34034803Y-15544920D01*
X-34035080Y-15545197D01*
X-34059266Y-15565046D01*
X-34059592Y-15565264D01*
X-34087180Y-15580010D01*
X-34087542Y-15580160D01*
X-34117485Y-15589243D01*
X-34117870Y-15589319D01*
X-34155144Y-15592990D01*
X-34155340Y-15593000D01*
X-34249200Y-15593000D01*
X-34250932Y-15592000D01*
X-34250932Y-15590000D01*
X-34249396Y-15589010D01*
X-34198832Y-15584030D01*
X-34150395Y-15569336D01*
X-34105757Y-15545477D01*
X-34066632Y-15513368D01*
X-34034523Y-15474243D01*
X-34010664Y-15429605D01*
X-33995970Y-15381168D01*
X-33990990Y-15330604D01*
X-33989825Y-15328978D01*
X-33987835Y-15329174D01*
G37*
G36*
X-10499010Y-12890604D02*
G01*
X-10494030Y-12941168D01*
X-10479336Y-12989605D01*
X-10455477Y-13034243D01*
X-10423368Y-13073368D01*
X-10384243Y-13105477D01*
X-10339605Y-13129336D01*
X-10291168Y-13144030D01*
X-10240604Y-13149010D01*
X-10238978Y-13150175D01*
X-10239174Y-13152165D01*
X-10240800Y-13153000D01*
X-10334660Y-13153000D01*
X-10334856Y-13152990D01*
X-10372130Y-13149319D01*
X-10372515Y-13149243D01*
X-10402458Y-13140160D01*
X-10402820Y-13140010D01*
X-10430408Y-13125264D01*
X-10430734Y-13125046D01*
X-10454920Y-13105197D01*
X-10455197Y-13104920D01*
X-10475046Y-13080734D01*
X-10475264Y-13080408D01*
X-10490010Y-13052820D01*
X-10490160Y-13052458D01*
X-10499243Y-13022515D01*
X-10499319Y-13022130D01*
X-10502990Y-12984856D01*
X-10503000Y-12984660D01*
X-10503000Y-12890800D01*
X-10502000Y-12889068D01*
X-10500000Y-12889068D01*
X-10499010Y-12890604D01*
G37*
G36*
X-7897835Y-12889174D02*
G01*
X-7897000Y-12890800D01*
X-7897000Y-12984660D01*
X-7897010Y-12984856D01*
X-7900681Y-13022130D01*
X-7900757Y-13022515D01*
X-7909840Y-13052458D01*
X-7909990Y-13052820D01*
X-7924736Y-13080408D01*
X-7924954Y-13080734D01*
X-7944803Y-13104920D01*
X-7945080Y-13105197D01*
X-7969266Y-13125046D01*
X-7969592Y-13125264D01*
X-7997180Y-13140010D01*
X-7997542Y-13140160D01*
X-8027485Y-13149243D01*
X-8027870Y-13149319D01*
X-8065144Y-13152990D01*
X-8065340Y-13153000D01*
X-8159200Y-13153000D01*
X-8160932Y-13152000D01*
X-8160932Y-13150000D01*
X-8159396Y-13149010D01*
X-8108832Y-13144030D01*
X-8060395Y-13129336D01*
X-8015757Y-13105477D01*
X-7976632Y-13073368D01*
X-7944523Y-13034243D01*
X-7920664Y-12989605D01*
X-7905970Y-12941168D01*
X-7900990Y-12890604D01*
X-7899825Y-12888978D01*
X-7897835Y-12889174D01*
G37*
G36*
X-22999010Y-12790604D02*
G01*
X-22994030Y-12841168D01*
X-22979336Y-12889605D01*
X-22955477Y-12934243D01*
X-22923368Y-12973368D01*
X-22884243Y-13005477D01*
X-22839605Y-13029336D01*
X-22791168Y-13044030D01*
X-22740604Y-13049010D01*
X-22738978Y-13050175D01*
X-22739174Y-13052165D01*
X-22740800Y-13053000D01*
X-22834660Y-13053000D01*
X-22834856Y-13052990D01*
X-22872130Y-13049319D01*
X-22872515Y-13049243D01*
X-22902458Y-13040160D01*
X-22902820Y-13040010D01*
X-22930408Y-13025264D01*
X-22930734Y-13025046D01*
X-22954920Y-13005197D01*
X-22955197Y-13004920D01*
X-22975046Y-12980734D01*
X-22975264Y-12980408D01*
X-22990010Y-12952820D01*
X-22990160Y-12952458D01*
X-22999243Y-12922515D01*
X-22999319Y-12922130D01*
X-23002990Y-12884856D01*
X-23003000Y-12884660D01*
X-23003000Y-12790800D01*
X-23002000Y-12789068D01*
X-23000000Y-12789068D01*
X-22999010Y-12790604D01*
G37*
G36*
X-20397835Y-12789174D02*
G01*
X-20397000Y-12790800D01*
X-20397000Y-12884660D01*
X-20397010Y-12884856D01*
X-20400681Y-12922130D01*
X-20400757Y-12922515D01*
X-20409840Y-12952458D01*
X-20409990Y-12952820D01*
X-20424736Y-12980408D01*
X-20424954Y-12980734D01*
X-20444803Y-13004920D01*
X-20445080Y-13005197D01*
X-20469266Y-13025046D01*
X-20469592Y-13025264D01*
X-20497180Y-13040010D01*
X-20497542Y-13040160D01*
X-20527485Y-13049243D01*
X-20527870Y-13049319D01*
X-20565144Y-13052990D01*
X-20565340Y-13053000D01*
X-20659200Y-13053000D01*
X-20660932Y-13052000D01*
X-20660932Y-13050000D01*
X-20659396Y-13049010D01*
X-20608832Y-13044030D01*
X-20560395Y-13029336D01*
X-20515757Y-13005477D01*
X-20476632Y-12973368D01*
X-20444523Y-12934243D01*
X-20420664Y-12889605D01*
X-20405970Y-12841168D01*
X-20400990Y-12790604D01*
X-20399825Y-12788978D01*
X-20397835Y-12789174D01*
G37*
G36*
X-48989068Y-11538000D02*
G01*
X-48989068Y-11540000D01*
X-48990604Y-11540990D01*
X-49041168Y-11545970D01*
X-49089605Y-11560664D01*
X-49134243Y-11584523D01*
X-49173368Y-11616632D01*
X-49205477Y-11655757D01*
X-49229336Y-11700395D01*
X-49244030Y-11748832D01*
X-49249010Y-11799396D01*
X-49250175Y-11801022D01*
X-49252165Y-11800826D01*
X-49253000Y-11799200D01*
X-49253000Y-11705340D01*
X-49252990Y-11705144D01*
X-49249319Y-11667870D01*
X-49249243Y-11667485D01*
X-49240160Y-11637542D01*
X-49240010Y-11637180D01*
X-49225264Y-11609592D01*
X-49225046Y-11609266D01*
X-49205197Y-11585080D01*
X-49204920Y-11584803D01*
X-49180734Y-11564954D01*
X-49180408Y-11564736D01*
X-49152820Y-11549990D01*
X-49152458Y-11549840D01*
X-49122515Y-11540757D01*
X-49122130Y-11540681D01*
X-49084856Y-11537010D01*
X-49084660Y-11537000D01*
X-48990800Y-11537000D01*
X-48989068Y-11538000D01*
G37*
G36*
X-46815144Y-11537010D02*
G01*
X-46777870Y-11540681D01*
X-46777485Y-11540757D01*
X-46747542Y-11549840D01*
X-46747180Y-11549990D01*
X-46719592Y-11564736D01*
X-46719266Y-11564954D01*
X-46695080Y-11584803D01*
X-46694803Y-11585080D01*
X-46674954Y-11609266D01*
X-46674736Y-11609592D01*
X-46659990Y-11637180D01*
X-46659840Y-11637542D01*
X-46650757Y-11667485D01*
X-46650681Y-11667870D01*
X-46647010Y-11705144D01*
X-46647000Y-11705340D01*
X-46647000Y-11799200D01*
X-46648000Y-11800932D01*
X-46650000Y-11800932D01*
X-46650990Y-11799396D01*
X-46655970Y-11748832D01*
X-46670664Y-11700395D01*
X-46694523Y-11655757D01*
X-46726632Y-11616632D01*
X-46765757Y-11584523D01*
X-46810395Y-11560664D01*
X-46858832Y-11545970D01*
X-46909396Y-11540990D01*
X-46911022Y-11539825D01*
X-46910826Y-11537835D01*
X-46909200Y-11537000D01*
X-46815340Y-11537000D01*
X-46815144Y-11537010D01*
G37*
G36*
X-36329068Y-11488000D02*
G01*
X-36329068Y-11490000D01*
X-36330604Y-11490990D01*
X-36381168Y-11495970D01*
X-36429605Y-11510664D01*
X-36474243Y-11534523D01*
X-36513368Y-11566632D01*
X-36545477Y-11605757D01*
X-36569336Y-11650395D01*
X-36584030Y-11698832D01*
X-36589010Y-11749396D01*
X-36590175Y-11751022D01*
X-36592165Y-11750826D01*
X-36593000Y-11749200D01*
X-36593000Y-11655340D01*
X-36592990Y-11655144D01*
X-36589319Y-11617870D01*
X-36589243Y-11617485D01*
X-36580160Y-11587542D01*
X-36580010Y-11587180D01*
X-36565264Y-11559592D01*
X-36565046Y-11559266D01*
X-36545197Y-11535080D01*
X-36544920Y-11534803D01*
X-36520734Y-11514954D01*
X-36520408Y-11514736D01*
X-36492820Y-11499990D01*
X-36492458Y-11499840D01*
X-36462515Y-11490757D01*
X-36462130Y-11490681D01*
X-36424856Y-11487010D01*
X-36424660Y-11487000D01*
X-36330800Y-11487000D01*
X-36329068Y-11488000D01*
G37*
G36*
X-34155144Y-11487010D02*
G01*
X-34117870Y-11490681D01*
X-34117485Y-11490757D01*
X-34087542Y-11499840D01*
X-34087180Y-11499990D01*
X-34059592Y-11514736D01*
X-34059266Y-11514954D01*
X-34035080Y-11534803D01*
X-34034803Y-11535080D01*
X-34014954Y-11559266D01*
X-34014736Y-11559592D01*
X-33999990Y-11587180D01*
X-33999840Y-11587542D01*
X-33990757Y-11617485D01*
X-33990681Y-11617870D01*
X-33987010Y-11655144D01*
X-33987000Y-11655340D01*
X-33987000Y-11749200D01*
X-33988000Y-11750932D01*
X-33990000Y-11750932D01*
X-33990990Y-11749396D01*
X-33995970Y-11698832D01*
X-34010664Y-11650395D01*
X-34034523Y-11605757D01*
X-34066632Y-11566632D01*
X-34105757Y-11534523D01*
X-34150395Y-11510664D01*
X-34198832Y-11495970D01*
X-34249396Y-11490990D01*
X-34251022Y-11489825D01*
X-34250826Y-11487835D01*
X-34249200Y-11487000D01*
X-34155340Y-11487000D01*
X-34155144Y-11487010D01*
G37*
G36*
X-10239068Y-9048000D02*
G01*
X-10239068Y-9050000D01*
X-10240604Y-9050990D01*
X-10291168Y-9055970D01*
X-10339605Y-9070664D01*
X-10384243Y-9094523D01*
X-10423368Y-9126632D01*
X-10455477Y-9165757D01*
X-10479336Y-9210395D01*
X-10494030Y-9258832D01*
X-10499010Y-9309396D01*
X-10500175Y-9311022D01*
X-10502165Y-9310826D01*
X-10503000Y-9309200D01*
X-10503000Y-9215340D01*
X-10502990Y-9215144D01*
X-10499319Y-9177870D01*
X-10499243Y-9177485D01*
X-10490160Y-9147542D01*
X-10490010Y-9147180D01*
X-10475264Y-9119592D01*
X-10475046Y-9119266D01*
X-10455197Y-9095080D01*
X-10454920Y-9094803D01*
X-10430734Y-9074954D01*
X-10430408Y-9074736D01*
X-10402820Y-9059990D01*
X-10402458Y-9059840D01*
X-10372515Y-9050757D01*
X-10372130Y-9050681D01*
X-10334856Y-9047010D01*
X-10334660Y-9047000D01*
X-10240800Y-9047000D01*
X-10239068Y-9048000D01*
G37*
G36*
X-8065144Y-9047010D02*
G01*
X-8027870Y-9050681D01*
X-8027485Y-9050757D01*
X-7997542Y-9059840D01*
X-7997180Y-9059990D01*
X-7969592Y-9074736D01*
X-7969266Y-9074954D01*
X-7945080Y-9094803D01*
X-7944803Y-9095080D01*
X-7924954Y-9119266D01*
X-7924736Y-9119592D01*
X-7909990Y-9147180D01*
X-7909840Y-9147542D01*
X-7900757Y-9177485D01*
X-7900681Y-9177870D01*
X-7897010Y-9215144D01*
X-7897000Y-9215340D01*
X-7897000Y-9309200D01*
X-7898000Y-9310932D01*
X-7900000Y-9310932D01*
X-7900990Y-9309396D01*
X-7905970Y-9258832D01*
X-7920664Y-9210395D01*
X-7944523Y-9165757D01*
X-7976632Y-9126632D01*
X-8015757Y-9094523D01*
X-8060395Y-9070664D01*
X-8108832Y-9055970D01*
X-8159396Y-9050990D01*
X-8161022Y-9049825D01*
X-8160826Y-9047835D01*
X-8159200Y-9047000D01*
X-8065340Y-9047000D01*
X-8065144Y-9047010D01*
G37*
G36*
X-22739068Y-8948000D02*
G01*
X-22739068Y-8950000D01*
X-22740604Y-8950990D01*
X-22791168Y-8955970D01*
X-22839605Y-8970664D01*
X-22884243Y-8994523D01*
X-22923368Y-9026632D01*
X-22955477Y-9065757D01*
X-22979336Y-9110395D01*
X-22994030Y-9158832D01*
X-22999010Y-9209396D01*
X-23000175Y-9211022D01*
X-23002165Y-9210826D01*
X-23003000Y-9209200D01*
X-23003000Y-9115340D01*
X-23002990Y-9115144D01*
X-22999319Y-9077870D01*
X-22999243Y-9077485D01*
X-22990160Y-9047542D01*
X-22990010Y-9047180D01*
X-22975264Y-9019592D01*
X-22975046Y-9019266D01*
X-22955197Y-8995080D01*
X-22954920Y-8994803D01*
X-22930734Y-8974954D01*
X-22930408Y-8974736D01*
X-22902820Y-8959990D01*
X-22902458Y-8959840D01*
X-22872515Y-8950757D01*
X-22872130Y-8950681D01*
X-22834856Y-8947010D01*
X-22834660Y-8947000D01*
X-22740800Y-8947000D01*
X-22739068Y-8948000D01*
G37*
G36*
X-20565144Y-8947010D02*
G01*
X-20527870Y-8950681D01*
X-20527485Y-8950757D01*
X-20497542Y-8959840D01*
X-20497180Y-8959990D01*
X-20469592Y-8974736D01*
X-20469266Y-8974954D01*
X-20445080Y-8994803D01*
X-20444803Y-8995080D01*
X-20424954Y-9019266D01*
X-20424736Y-9019592D01*
X-20409990Y-9047180D01*
X-20409840Y-9047542D01*
X-20400757Y-9077485D01*
X-20400681Y-9077870D01*
X-20397010Y-9115144D01*
X-20397000Y-9115340D01*
X-20397000Y-9209200D01*
X-20398000Y-9210932D01*
X-20400000Y-9210932D01*
X-20400990Y-9209396D01*
X-20405970Y-9158832D01*
X-20420664Y-9110395D01*
X-20444523Y-9065757D01*
X-20476632Y-9026632D01*
X-20515757Y-8994523D01*
X-20560395Y-8970664D01*
X-20608832Y-8955970D01*
X-20659396Y-8950990D01*
X-20661022Y-8949825D01*
X-20660826Y-8947835D01*
X-20659200Y-8947000D01*
X-20565340Y-8947000D01*
X-20565144Y-8947010D01*
G37*
G36*
X-10499010Y-4890604D02*
G01*
X-10494030Y-4941168D01*
X-10479336Y-4989605D01*
X-10455477Y-5034243D01*
X-10423368Y-5073368D01*
X-10384243Y-5105477D01*
X-10339605Y-5129336D01*
X-10291168Y-5144030D01*
X-10240604Y-5149010D01*
X-10238978Y-5150175D01*
X-10239174Y-5152165D01*
X-10240800Y-5153000D01*
X-10334660Y-5153000D01*
X-10334856Y-5152990D01*
X-10372130Y-5149319D01*
X-10372515Y-5149243D01*
X-10402458Y-5140160D01*
X-10402820Y-5140010D01*
X-10430408Y-5125264D01*
X-10430734Y-5125046D01*
X-10454920Y-5105197D01*
X-10455197Y-5104920D01*
X-10475046Y-5080734D01*
X-10475264Y-5080408D01*
X-10490010Y-5052820D01*
X-10490160Y-5052458D01*
X-10499243Y-5022515D01*
X-10499319Y-5022130D01*
X-10502990Y-4984856D01*
X-10503000Y-4984660D01*
X-10503000Y-4890800D01*
X-10502000Y-4889068D01*
X-10500000Y-4889068D01*
X-10499010Y-4890604D01*
G37*
G36*
X-7897835Y-4889174D02*
G01*
X-7897000Y-4890800D01*
X-7897000Y-4984660D01*
X-7897010Y-4984856D01*
X-7900681Y-5022130D01*
X-7900757Y-5022515D01*
X-7909840Y-5052458D01*
X-7909990Y-5052820D01*
X-7924736Y-5080408D01*
X-7924954Y-5080734D01*
X-7944803Y-5104920D01*
X-7945080Y-5105197D01*
X-7969266Y-5125046D01*
X-7969592Y-5125264D01*
X-7997180Y-5140010D01*
X-7997542Y-5140160D01*
X-8027485Y-5149243D01*
X-8027870Y-5149319D01*
X-8065144Y-5152990D01*
X-8065340Y-5153000D01*
X-8159200Y-5153000D01*
X-8160932Y-5152000D01*
X-8160932Y-5150000D01*
X-8159396Y-5149010D01*
X-8108832Y-5144030D01*
X-8060395Y-5129336D01*
X-8015757Y-5105477D01*
X-7976632Y-5073368D01*
X-7944523Y-5034243D01*
X-7920664Y-4989605D01*
X-7905970Y-4941168D01*
X-7900990Y-4890604D01*
X-7899825Y-4888978D01*
X-7897835Y-4889174D01*
G37*
G36*
X-22999010Y-4790604D02*
G01*
X-22994030Y-4841168D01*
X-22979336Y-4889605D01*
X-22955477Y-4934243D01*
X-22923368Y-4973368D01*
X-22884243Y-5005477D01*
X-22839605Y-5029336D01*
X-22791168Y-5044030D01*
X-22740604Y-5049010D01*
X-22738978Y-5050175D01*
X-22739174Y-5052165D01*
X-22740800Y-5053000D01*
X-22834660Y-5053000D01*
X-22834856Y-5052990D01*
X-22872130Y-5049319D01*
X-22872515Y-5049243D01*
X-22902458Y-5040160D01*
X-22902820Y-5040010D01*
X-22930408Y-5025264D01*
X-22930734Y-5025046D01*
X-22954920Y-5005197D01*
X-22955197Y-5004920D01*
X-22975046Y-4980734D01*
X-22975264Y-4980408D01*
X-22990010Y-4952820D01*
X-22990160Y-4952458D01*
X-22999243Y-4922515D01*
X-22999319Y-4922130D01*
X-23002990Y-4884856D01*
X-23003000Y-4884660D01*
X-23003000Y-4790800D01*
X-23002000Y-4789068D01*
X-23000000Y-4789068D01*
X-22999010Y-4790604D01*
G37*
G36*
X-20397835Y-4789174D02*
G01*
X-20397000Y-4790800D01*
X-20397000Y-4884660D01*
X-20397010Y-4884856D01*
X-20400681Y-4922130D01*
X-20400757Y-4922515D01*
X-20409840Y-4952458D01*
X-20409990Y-4952820D01*
X-20424736Y-4980408D01*
X-20424954Y-4980734D01*
X-20444803Y-5004920D01*
X-20445080Y-5005197D01*
X-20469266Y-5025046D01*
X-20469592Y-5025264D01*
X-20497180Y-5040010D01*
X-20497542Y-5040160D01*
X-20527485Y-5049243D01*
X-20527870Y-5049319D01*
X-20565144Y-5052990D01*
X-20565340Y-5053000D01*
X-20659200Y-5053000D01*
X-20660932Y-5052000D01*
X-20660932Y-5050000D01*
X-20659396Y-5049010D01*
X-20608832Y-5044030D01*
X-20560395Y-5029336D01*
X-20515757Y-5005477D01*
X-20476632Y-4973368D01*
X-20444523Y-4934243D01*
X-20420664Y-4889605D01*
X-20405970Y-4841168D01*
X-20400990Y-4790604D01*
X-20399825Y-4788978D01*
X-20397835Y-4789174D01*
G37*
G36*
X-10239068Y-1048000D02*
G01*
X-10239068Y-1050000D01*
X-10240604Y-1050990D01*
X-10291168Y-1055970D01*
X-10339605Y-1070664D01*
X-10384243Y-1094523D01*
X-10423368Y-1126632D01*
X-10455477Y-1165757D01*
X-10479336Y-1210395D01*
X-10494030Y-1258832D01*
X-10499010Y-1309396D01*
X-10500175Y-1311022D01*
X-10502165Y-1310826D01*
X-10503000Y-1309200D01*
X-10503000Y-1215340D01*
X-10502990Y-1215144D01*
X-10499319Y-1177870D01*
X-10499243Y-1177485D01*
X-10490160Y-1147542D01*
X-10490010Y-1147180D01*
X-10475264Y-1119592D01*
X-10475046Y-1119266D01*
X-10455197Y-1095080D01*
X-10454920Y-1094803D01*
X-10430734Y-1074954D01*
X-10430408Y-1074736D01*
X-10402820Y-1059990D01*
X-10402458Y-1059840D01*
X-10372515Y-1050757D01*
X-10372130Y-1050681D01*
X-10334856Y-1047010D01*
X-10334660Y-1047000D01*
X-10240800Y-1047000D01*
X-10239068Y-1048000D01*
G37*
G36*
X-8065144Y-1047010D02*
G01*
X-8027870Y-1050681D01*
X-8027485Y-1050757D01*
X-7997542Y-1059840D01*
X-7997180Y-1059990D01*
X-7969592Y-1074736D01*
X-7969266Y-1074954D01*
X-7945080Y-1094803D01*
X-7944803Y-1095080D01*
X-7924954Y-1119266D01*
X-7924736Y-1119592D01*
X-7909990Y-1147180D01*
X-7909840Y-1147542D01*
X-7900757Y-1177485D01*
X-7900681Y-1177870D01*
X-7897010Y-1215144D01*
X-7897000Y-1215340D01*
X-7897000Y-1309200D01*
X-7898000Y-1310932D01*
X-7900000Y-1310932D01*
X-7900990Y-1309396D01*
X-7905970Y-1258832D01*
X-7920664Y-1210395D01*
X-7944523Y-1165757D01*
X-7976632Y-1126632D01*
X-8015757Y-1094523D01*
X-8060395Y-1070664D01*
X-8108832Y-1055970D01*
X-8159396Y-1050990D01*
X-8161022Y-1049825D01*
X-8160826Y-1047835D01*
X-8159200Y-1047000D01*
X-8065340Y-1047000D01*
X-8065144Y-1047010D01*
G37*
G36*
X-22739068Y-948000D02*
G01*
X-22739068Y-950000D01*
X-22740604Y-950990D01*
X-22791168Y-955970D01*
X-22839605Y-970664D01*
X-22884243Y-994523D01*
X-22923368Y-1026632D01*
X-22955477Y-1065757D01*
X-22979336Y-1110395D01*
X-22994030Y-1158832D01*
X-22999010Y-1209396D01*
X-23000175Y-1211022D01*
X-23002165Y-1210826D01*
X-23003000Y-1209200D01*
X-23003000Y-1115340D01*
X-23002990Y-1115144D01*
X-22999319Y-1077870D01*
X-22999243Y-1077485D01*
X-22990160Y-1047542D01*
X-22990010Y-1047180D01*
X-22975264Y-1019592D01*
X-22975046Y-1019266D01*
X-22955197Y-995080D01*
X-22954920Y-994803D01*
X-22930734Y-974954D01*
X-22930408Y-974736D01*
X-22902820Y-959990D01*
X-22902458Y-959840D01*
X-22872515Y-950757D01*
X-22872130Y-950681D01*
X-22834856Y-947010D01*
X-22834660Y-947000D01*
X-22740800Y-947000D01*
X-22739068Y-948000D01*
G37*
G36*
X-20565144Y-947010D02*
G01*
X-20527870Y-950681D01*
X-20527485Y-950757D01*
X-20497542Y-959840D01*
X-20497180Y-959990D01*
X-20469592Y-974736D01*
X-20469266Y-974954D01*
X-20445080Y-994803D01*
X-20444803Y-995080D01*
X-20424954Y-1019266D01*
X-20424736Y-1019592D01*
X-20409990Y-1047180D01*
X-20409840Y-1047542D01*
X-20400757Y-1077485D01*
X-20400681Y-1077870D01*
X-20397010Y-1115144D01*
X-20397000Y-1115340D01*
X-20397000Y-1209200D01*
X-20398000Y-1210932D01*
X-20400000Y-1210932D01*
X-20400990Y-1209396D01*
X-20405970Y-1158832D01*
X-20420664Y-1110395D01*
X-20444523Y-1065757D01*
X-20476632Y-1026632D01*
X-20515757Y-994523D01*
X-20560395Y-970664D01*
X-20608832Y-955970D01*
X-20659396Y-950990D01*
X-20661022Y-949825D01*
X-20660826Y-947835D01*
X-20659200Y-947000D01*
X-20565340Y-947000D01*
X-20565144Y-947010D01*
G37*
M02*
