M48
; DRILL file {KiCad 5.1.8} date Sat Jan  2 16:40:48 2021
; FORMAT={-:-/ absolute / inch / decimal}
; #@! TF.CreationDate,2021-01-02T16:40:48+01:00
; #@! TF.GenerationSoftware,Kicad,Pcbnew,5.1.8
; #@! TF.FileFunction,Plated,1,2,PTH
FMAT,2
INCH
T1C0.0157
T2C0.0394
T3C0.0433
T4C0.1260
%
G90
G05
T1
X-2.3937Y-1.6693
X-2.3346Y-1.7165
X-2.3307Y-0.6417
X-2.2756Y-1.7598
X-2.1929Y-1.8031
X-2.0563Y-1.513
X-1.9472Y-1.4039
X-1.8665Y-1.2949
X-1.8077Y-1.5675
X-1.7026Y-1.4585
X-1.6496Y-1.2953
X-1.5984Y-1.2283
X-1.5512Y-1.6063
X-1.5197Y-1.4803
X-1.4843Y-1.0866
X-1.3661Y-1.4764
X-1.3031Y-1.0827
X-1.2559Y-1.0039
X-1.189Y-1.811
X-1.1732Y-1.4724
X-1.1437Y-1.0846
X-1.0039Y-1.1693
X-0.9409Y-1.811
X-0.9173Y-1.4843
X-0.7756Y-1.5118
X-0.6772Y-1.5157
X-0.6024Y-1.626
T2
X-2.0984Y-0.8858
X-1.8839Y-0.702
X-1.7669Y-0.7122
X-1.6929Y-0.2874
X-1.4925Y-0.7134
X-1.3772Y-0.7087
X-1.1969Y-0.252
X-1.1846Y-0.6035
X-1.1591Y-0.8567
X-1.0429Y-0.7374
X-1.0276Y-0.1142
X-0.7165Y-1.2067
X-0.6969Y-0.1142
X-0.5315Y-0.1142
X-0.3268Y-0.6063
X-0.2008Y-0.1181
X-2.6591Y-0.4821
X-2.6591Y-0.5911
X-2.6591Y-0.7002
X-2.6591Y-0.8093
X-2.6591Y-0.9183
X-2.6591Y-1.0274
X-2.6591Y-1.1364
X-2.6591Y-1.2455
X-2.6591Y-1.3545
X-2.6591Y-1.4636
X-2.6591Y-1.5726
X-2.6591Y-1.6817
X-2.5472Y-0.4276
X-2.5472Y-0.5366
X-2.5472Y-0.6457
X-2.5472Y-0.7547
X-2.5472Y-0.8638
X-2.5472Y-0.9728
X-2.5472Y-1.0819
X-2.5472Y-1.1909
X-2.5472Y-1.3
X-2.5472Y-1.4091
X-2.5472Y-1.5181
X-2.5472Y-1.6272
X-2.5472Y-1.7362
X-2.0984Y-1.9787
X-2.0984Y-2.0787
X-1.9984Y-1.9787
X-1.9984Y-2.0787
X-1.8984Y-1.9787
X-1.8984Y-2.0787
X-1.7984Y-1.9787
X-1.7984Y-2.0787
X-1.6984Y-1.9787
X-1.6984Y-2.0787
X-1.5984Y-1.9787
X-1.5984Y-2.0787
X-1.4984Y-1.9787
X-1.4984Y-2.0787
X-1.3984Y-1.9787
X-1.3984Y-2.0787
X-1.2984Y-1.9787
X-1.2984Y-2.0787
X-1.1984Y-1.9787
X-1.1984Y-2.0787
X-1.0984Y-1.9787
X-1.0984Y-2.0787
X-0.9984Y-1.9787
X-0.9984Y-2.0787
X-0.8984Y-1.9787
X-0.8984Y-2.0787
X-0.7984Y-1.9787
X-0.7984Y-2.0787
X-0.6984Y-1.9787
X-0.6984Y-2.0787
X-0.5984Y-1.9787
X-0.5984Y-2.0787
X-0.4984Y-1.9787
X-0.4984Y-2.0787
X-0.3984Y-1.9787
X-0.3984Y-2.0787
X-0.2984Y-1.9787
X-0.2984Y-2.0787
X-0.1984Y-1.9787
X-0.1984Y-2.0787
X-2.0945Y-2.2504
X-2.0945Y-2.3504
X-1.9945Y-2.2504
X-1.9945Y-2.3504
X-1.8945Y-2.2504
X-1.8945Y-2.3504
X-1.7945Y-2.2504
X-1.7945Y-2.3504
X-1.6945Y-2.2504
X-1.6945Y-2.3504
X-1.5945Y-2.2504
X-1.5945Y-2.3504
X-1.4945Y-2.2504
X-1.4945Y-2.3504
X-1.3945Y-2.2504
X-1.3945Y-2.3504
X-1.2945Y-2.2504
X-1.2945Y-2.3504
X-1.1945Y-2.2504
X-1.1945Y-2.3504
X-1.0945Y-2.2504
X-1.0945Y-2.3504
X-0.9945Y-2.2504
X-0.9945Y-2.3504
X-0.8945Y-2.2504
X-0.8945Y-2.3504
X-0.7945Y-2.2504
X-0.7945Y-2.3504
X-0.6945Y-2.2504
X-0.6945Y-2.3504
X-0.5945Y-2.2504
X-0.5945Y-2.3504
X-0.4945Y-2.2504
X-0.4945Y-2.3504
X-0.3945Y-2.2504
X-0.3945Y-2.3504
X-0.2945Y-2.2504
X-0.2945Y-2.3504
X-0.1945Y-2.2504
X-0.1945Y-2.3504
T3
X-1.9724Y-0.1693
X-1.7756Y-0.1693
X-1.5079Y-0.1693
X-1.311Y-0.1693
T4
X-2.6031Y-0.1547
X-2.6031Y-2.0091
T0
M30
